<svg xmlns:dc="http://purl.org/dc/elements/1.1/" xmlns:cc="http://creativecommons.org/ns#" xmlns:rdf="http://www.w3.org/1999/02/22-rdf-syntax-ns#" xmlns:svg="http://www.w3.org/2000/svg" xmlns="http://www.w3.org/2000/svg" version="1.1" viewBox="0 0 1007.554 280.01184" data-name="Layer 1" id="Layer_1">
  <metadata id="metadata247">
    <rdf:RDF>
      <cc:Work rdf:about="">
        <dc:format>image/svg+xml</dc:format>
        <dc:type rdf:resource="http://purl.org/dc/dcmitype/StillImage"/>
        <dc:title>SLoP</dc:title>
      </cc:Work>
    </rdf:RDF>
  </metadata>
  <defs id="defs4">
    <style id="style2">.cls-1{fill:#ba017b;}.cls-2,.cls-79{fill:#fff;}.cls-3{fill:#fec006;}.cls-4{fill:#ed0884;}.cls-5{fill:#ee0b7f;}.cls-6{fill:#ec058b;}.cls-7{fill:#ea0190;}.cls-8{fill:#f78400;}.cls-9{fill:#f1480d;}.cls-10{fill:#ee0d7a;}.cls-11{fill:#f14d08;}.cls-12{fill:#f67d00;}.cls-13{fill:#f25601;}.cls-14{fill:#f0234c;}.cls-15{fill:#f02a3f;}.cls-16{fill:#f02d39;}.cls-17{fill:#f67800;}.cls-18{fill:#ec048d;}.cls-19{fill:#f57300;}.cls-20{fill:#f56d00;}.cls-21{fill:#ef0f75;}.cls-22{fill:#f25104;}.cls-23{fill:#ef146c;}.cls-24{fill:#f01765;}.cls-25{fill:#f46700;}.cls-26{fill:#d60191;}.cls-27{fill:#f88c00;}.cls-28{fill:#f14315;}.cls-29{fill:#f01a5f;}.cls-30{fill:#c00181;}.cls-31{fill:#e30191;}.cls-32{fill:#be0180;}.cls-33{fill:#f02251;}.cls-34{fill:#f03231;}.cls-35{fill:#de0192;}.cls-36{fill:#eb038e;}.cls-37{fill:#c60187;}.cls-38{fill:#f14413;}.cls-39{fill:#f01e56;}.cls-40{fill:#f36100;}.cls-41{fill:#be027f;}.cls-42{fill:#cd018c;}.cls-43{fill:#f02153;}.cls-44{fill:#cd018d;}.cls-45{fill:#fdb905;}.cls-46{fill:#ce028e;}.cls-47{fill:#c70187;}.cls-48{fill:#f1362b;}.cls-49{fill:#f03035;}.cls-50{fill:#f0332f;}.cls-51{fill:#f13e1d;}.cls-52{fill:#f14018;}.cls-53{fill:#c80188;}.cls-54{fill:#f02745;}.cls-55{fill:#fcb205;}.cls-56{fill:#fba801;}.cls-57{fill:#c40285;}.cls-58{fill:#f02155;}.cls-59{fill:#f13629;}.cls-60{fill:#fcaf02;}.cls-61{fill:#f35e02;}.cls-62{fill:#f13a23;}.cls-63{fill:#f13d1f;}.cls-64{fill:#fa9d00;}.cls-65{fill:#f13924;}.cls-66{fill:#f35b00;}.cls-67{fill:#f99500;}.cls-68{fill:#f36105;}.cls-69{fill:#c20183;}.cls-70{fill:#fdb804;}.cls-71{fill:#f88a00;}.cls-72{fill:#f99700;}.cls-73{fill:#ef1171;}.cls-74{fill:#f01c5a;}.cls-75{fill:#fcb103;}.cls-76{fill:#f88f00;}.cls-77{fill:#fba700;}.cls-78{fill:#fa9f00;}.cls-79{font-size:60px;font-family:Montserrat-Medium, Montserrat;font-weight:500;}.cls-80{letter-spacing:-0.01em;}.cls-81{letter-spacing:-0.01em;}.cls-82{letter-spacing:0.01em;}.cls-83{letter-spacing:-0.01em;}.cls-84{letter-spacing:0.03em;}.cls-85{letter-spacing:-0.02em;}.cls-86{letter-spacing:0em;}.cls-87{letter-spacing:0em;}.cls-88{letter-spacing:-0.02em;}.cls-89{letter-spacing:-0.01em;}.cls-90{letter-spacing:0em;}.cls-91{letter-spacing:-0.02em;}.cls-92{letter-spacing:-0.01em;}.cls-93{letter-spacing:0.01em;}</style>
  </defs>
  <title id="title6">slopepepepep</title>
  <path style="fill:#ba017b" id="path8" d="m 95.995834,72.148882 c -1.57,1.46 -3.26,2.81 -4.69,4.39 -5.91,6.55 -4.78,14.83 3.11,18.85 a 76.74,76.74 0 0 0 16.629996,6.089998 c 7.48,1.81 14.41,5.62 22.25,6 1.47,3.55 0.26,6.94 -1.09,10.05 -2.89,6.65 -6.24,13 -8.77,19.89 -4.6,12.46 -9.9,24.65 -14.91,36.95 -19.819996,-3.26 -39.339996,-8 -57.659996,-16.14 -25.57,-11.35 -43.2000002,-29.73 -45.7100002,-59.119998 -2.79,-32.64 8.7600002,-58.89 36.1100002,-77.53 21,-14.3399999 45,-19.5699999 69.889996,-21.0899999 18.94,-1.16 37.84,-0.44 56.4,4.17 6.61,3.26 3.9,7.8999999 1.93,12.5399999 -5.7,13.36 -11.55,26.67 -16.87,40.18 -3.78,9.62 -5.78,11.44 -16.11,9 -12.55,-3 -24.53,0.2 -36.669996,2.15 a 4.41,4.41 0 0 0 -3.84,3.62 z" class="cls-1"/>
  <path style="fill:#ffffff" id="path10" d="m -139.39417,138.16888 c 26.33,15.17 51.540004,29.89 76.900004,44.17 4.69,2.64 6.27,5.53 6.15,10.84 -0.41,17.06 -0.34,34.14 -0.2,51.21 0,5.09 -0.8,6.4 -5.72,3.38 q -86.500004,-53.13 -173.200004,-105.93 c -4.75,-2.9 -5,-4.36 0,-7.43 q 86.43,-52.459998 172.650004,-105.209998 c 1.55,-0.94 3.06,-3 5,-2 2.46,1.23 1.13,3.89 1.15,5.87 0.15,16.8 -0.06,33.61 0.33,50.4 0.12,5.07 -1.67,7.73 -6,10.17 -25.32,14.469998 -50.520004,29.189998 -77.060004,44.529998 z" class="cls-2"/>
  <path style="fill:#ffffff" id="path12" d="m 1203.8558,248.68888 c 0,-19.7 0,-39.66 0,-59.61 0,-4 3.17,-4.77 5.6,-6.18 q 35.55,-20.52 71.18,-40.87 l 6.58,-3.76 c -7.44,-4.37 -13.85,-8.17 -20.3,-11.9 -19,-11 -37.93,-22.09 -57.07,-32.829998 -4.28,-2.4 -6.15,-5 -6.06,-10.06 0.33,-18.59 0.13,-37.19 0.13,-57.32 12.23,7.43 23.23,14.08 34.23,20.78 47.39,29 94.73,57.999998 142.24,86.779998 6.19,3.75 6.18,5.2 0,9 q -85.43,51.95 -170.59,104.32 c -1.55,0.88 -2.84,2.63 -5.94,1.65 z" class="cls-2"/>
  <path style="fill:#ffffff" id="path14" d="m 1046.2658,273.26888 c -5.42,0 -10.85,0.07 -16.28,0 -7.94,-0.12 -9,-1.68 -6.37,-9.33 q 25.88,-74 51.84,-148 c 15.86,-45.249998 31.88,-90.439998 47.42,-135.799998 2.07,-6 4.74,-7.85 10.87,-7.53 10.28,0.55 20.61,0.12 30.92,0.16 8.08,0 9.64,2.25 7,9.89 q -42.35,120.779998 -84.73,241.539998 c -5,14.31 -10.17,28.58 -14.92,43 -1.5,4.54 -3.53,6.69 -8.62,6.23 -5.7,-0.55 -11.43,-0.16 -17.13,-0.16 z" class="cls-2"/>
  <path style="fill:#fec006" id="path16" d="m 949.14583,17.998882 c 29.35,11.09 47.74,32.37 54.99997,62.36 15.22,62.489998 -21.72997,114.859998 -86.99997,124.609998 -20.22,3 -40.54,2.45 -60.87,1.87 0.66,-1.38 1.89,-1.7 3.26,-1.75 6.48,-0.46 13.9,2.72 16.95,-7.37 3.05,-10.09 8,-19.7 11.91,-29.61 2.54,-6.51 4.68,-13.17 6.91,-19.79 2.16,-6.43 -0.11,-9.39 -7,-8.57 2.08,-0.48 4.15,-1.1 6.26,-1.43 19.71,-3.06 29.37,-15.05 28.29,-34.91 -0.34,-6.129998 -2.68,-11.539998 -5.17,-16.999998 2,0.61 3.35,0.59 4.53,-1.69 a 253.53,253.53 0 0 0 11.71,-27.2 c 5.01,-13.18 11,-26.01 15.22,-39.52 z" class="cls-3"/>
  <path style="fill:#ed0884" id="path18" d="m 274.39583,6.3388821 c 4.91,-2.33 10.12,-1 15.16,-1 17.33,-0.2 34.65,-0.1 52,-0.06 9.24,0 11.7,2.35 11.66,11.3199999 0,9.73 -0.26,19.45 -0.41,29.18 -4.25,10.1 -8.65,20.15 -12.72,30.32 -9.72,24.289998 -18.65,48.909998 -29.1,72.879998 -9.81,22.48 -18,45.6 -28,68 -3.85,8.7 -5.89,18.48 -12.92,25.63 v -79.81 c 7.26,-7.06 9.29,-16.88 13,-25.67 12.33,-29.27 24,-58.829998 35.89,-88.279998 4.94,-12.24 9.82,-24.5 14.78,-36.73 1.8,-4.4099999 0.19,-5.7299999 -4.26,-5.6199999 -10,0.25 -20,0.18 -30.07,0.23 z" class="cls-4"/>
  <path style="fill:#ba017b" id="path20" d="m 58.265834,273.50888 a 150.12,150.12 0 0 1 -55.3800002,-22.12 c -3.09,-2 -3.6,-3.82 -2,-7.29 7.46,-16.23 14.6300002,-32.59 21.8300002,-48.94 2.31,-5.26 6.4,-8.37 11.45,-5.27 15.19,9.34 31.83,14.85 48.65,20.08 1.7,2.38 6,3.14 4.31,7.6 -6.55,17.21 -13,34.45 -20.62,51.25 -1.75,3.86 -4.36,5.1 -8.24,4.69 z" class="cls-1"/>
  <path style="fill:#ee0b7f" id="path22" d="m 270.05583,242.53888 c 7,-7.15 9.07,-16.93 12.92,-25.63 9.94,-22.39 18.17,-45.51 28,-68 10.45,-24 19.38,-48.59 29.1,-72.879998 4.07,-10.17 8.47,-20.22 12.72,-30.32 q 1.11,34.89 0,69.779998 c -7.8,-7 -7.26,2.68 -8.25,5 -7.39,17.38 -14,35.09 -21,52.64 -12.21,30.59 -24.6,61.11 -36.76,91.72 -1.23,3.1 -3.27,6.52 -0.47,10 -15.37,1.44 -16.67,0.33 -16.62,-14.51 0.01,-5.95 0.23,-11.87 0.36,-17.8 z" class="cls-5"/>
  <path style="fill:#ec058b" id="path24" d="m 299.38583,6.7288821 c 10,-0.05 20,0 30.07,-0.23 4.45,-0.11 6.06,1.21 4.26,5.6199999 -5,12.23 -9.84,24.49 -14.78,36.73 -11.9,29.45 -23.56,58.999998 -35.89,88.279998 -3.7,8.79 -5.73,18.61 -13,25.67 V 78.168882 c 2.22,-0.87 3.17,-2.81 4,-4.81 5.59,-13.34 11.82,-26.47 16.49,-40.12 3.04,-8.79 9.08,-16.65 8.85,-26.5099999 z" class="cls-6"/>
  <path style="fill:#ea0190" id="path26" d="m 182.19583,267.15888 c -12.2,6.67 -25.43,9.72 -39.13,11.18 9.12,-7.17 10,-18.67 14.51,-28.2 6.16,-13 11,-26.7 16.37,-40.1 q 7.35,-18.24 14.71,-36.47 8.12,-20 16.28,-40 c 9.75,4.87 16.52,12.6 21.37,22.18 0,3.54 -3.1,5.58 -4.19,8.61 -12.44,34.58 -28.74,67.69 -39.92,102.8 z" class="cls-7"/>
  <path style="fill:#f78400" id="path28" d="m 771.74583,274.89888 c -5.9,0.59 -8.51,-2.59 -8.65,-8 -0.13,-4.85 0.21,-9.72 0.34,-14.58 3.13,-1.3 3.89,-4.39 5.12,-7 6.25,-13.37 10.89,-27.44 16.75,-40.93 12.14,-27.9 22.5,-56.49 34.45,-84.46 10.87,-25.439998 21.43,-50.999998 31.11,-76.939998 4.51,-12.06 10.84,-23.47 13.56,-36.1999999 h 17.24 c -8,22.4799999 -19.74,42.4799999 -25.37,64.8299999 -3.08,0.85 -6.85,-1.64 -9.36,1.95 l -0.06,-0.16 c -4.2,6.1 -0.87,13 -2,19.42 -0.68,6 -4.85,10.399998 -6.75,15.899998 -3.77,10.92 -8.1,21.67 -12.5,32.36 -7.46,18.15 -15.9,35.93 -22.52,54.37 -5.51,15.38 -12.68,30 -18.1,45.38 -3.84,10.9 -10.15,20.93 -11.7,32.63 z" class="cls-8"/>
  <path style="fill:#f1480d" id="path30" d="m 685.21583,65.188882 a 71.28,71.28 0 0 1 13,13 5,5 0 0 0 -4.5,2.91 c -7.57,13.71 -11.89,28.789998 -17.57,43.239998 -5.2,13.14 -10.85,26.13 -15.86,39.36 -7.79,20.54 -17,40.55 -25.12,61 -6.43,16.12 -12.08,32.56 -19.6,48.24 -1.09,2.29 -2.15,4.42 -0.27,6.75 h -16.35 c -0.78,-1.46 -3.56,-1.67 -2.28,-4.44 8.27,-18 14.48,-36.83 22.8,-54.83 3.43,-7.42 7,-15.19 7.11,-23.77 17.22,-10.77 25,-26.15 22.74,-46.44 7.54,-18.32 14.93,-36.7 22.69,-54.929998 4.28,-10.11 7.19,-20.79 13.21,-30.09 z" class="cls-9"/>
  <path style="fill:#ee0d7a" id="path32" d="m 286.31583,274.84888 c -2.8,-3.44 -0.76,-6.86 0.47,-10 12.16,-30.61 24.55,-61.13 36.76,-91.72 7,-17.55 13.6,-35.26 21,-52.64 1,-2.32 0.45,-12 8.25,-5 q 1.1,34.17 0,68.34 c -3.2,-5.24 0.55,-11.63 -2.52,-17.23 a 12.71,12.71 0 0 0 -5.39,7.15 c -10.54,30.54 -25,59.56 -35.42,90.17 -2.24,6.57 -3,9.69 4.52,10.89 a 163.77,163.77 0 0 1 -27.67,0.04 z" class="cls-10"/>
  <path style="fill:#f14d08" id="path34" d="m 615.25583,279.63888 c -1.88,-2.33 -0.82,-4.46 0.27,-6.75 7.52,-15.68 13.17,-32.12 19.6,-48.24 8.14,-20.41 17.33,-40.42 25.12,-61 5,-13.23 10.66,-26.22 15.86,-39.36 5.72,-14.44 10.07,-29.519998 17.64,-43.229998 a 5,5 0 0 1 4.5,-2.91 c 12.25,10.35 12.81,15.25 1.31,25.909998 -5.85,5.43 -9.66,10.32 -4.5,18 a 14.76,14.76 0 0 0 -6.9,8.6 c -5.58,18.64 -14.55,36 -21.29,54.18 -6.64,18 -13.92,35.7 -21,53.5 -1.16,2.9 -2,5.28 2.31,5.88 -11.9,2.88 -15.28,10.25 -14.08,22.25 1.05,10.48 -5.05,13.92 -18.84,13.17 z" class="cls-11"/>
  <path style="fill:#f67d00" id="path36" d="m 864.41583,6.7688821 c -2.71,12.7199999 -9,24.1299999 -13.55,36.1899999 -9.68,25.9 -20.24,51.5 -31.11,76.939998 -11.95,28 -22.31,56.56 -34.45,84.46 -5.86,13.49 -10.5,27.56 -16.75,40.93 -1.23,2.63 -2,5.72 -5.12,7 a 243.51,243.51 0 0 1 0,-30.92 c 3.74,-1.81 5.15,-5.25 6.58,-8.85 q 9.13,-23.18 18.58,-46.18 c 4.27,-10.45 9.51,-20.65 13.29,-31.12 10.65,-29.42 23.57,-57.899998 34.58,-87.159998 5.21,-13.86 11,-27.5 16.56,-41.2399999 z" class="cls-12"/>
  <path style="fill:#f25601" id="path38" d="m 698.50583,186.26888 c -0.83,3.17 -1.51,6.39 -3.54,9.09 -6.35,6.79 -6.39,9.19 -0.18,13.12 l 0.18,0.18 c -5.81,13.78 -11.53,27.59 -17.49,41.29 -1.16,2.65 -2,4.94 -0.11,7.46 v -0.07 l -9.75,-1.85 c -4.66,-3 -8.27,-7 -11.57,-11.34 2.79,-1.75 5.18,-3.78 6.36,-7.06 11,-30.63 23.74,-60.54 36.41,-90.5 1.76,-4.17 7.06,-9.14 1.21,-14.39 5.65,-0.11 11.3,-0.4 16.95,-0.3 5.25,0.1 9.36,2.18 10.79,7.77 1.75,8.14 -3.58,14.44 -6.72,20.71 -5,10 -5,25.58 -22.21,25.19 -0.1,0 -0.22,0.46 -0.33,0.7 z" class="cls-13"/>
  <path style="fill:#f0234c" id="path40" d="m 519.02583,124.72888 a 11.71,11.71 0 0 1 3.24,-7.56 c 2.23,-0.88 4.47,-3 3,-4.77 -4.59,-5.7 -0.35,-10.33 1.55,-14.769998 3.37,-7.91 6.28,-15.94 9.28,-24 1.77,-4.75 2.38,-13.09 11.39,-12 6.2,3.21 9.08,10.38 15.67,13.12 -2.63,5.61 -6,10.76 -8.18,16.69 -6,16.109998 -12.58,31.999998 -19.23,47.839998 -6.65,15.84 -13,31.94 -18.37,48.33 -0.48,-0.74 -1,-1.49 -1.42,-2.23 -7,-3.19 -14.25,-0.8 -21.36,-1.35 v 0.08 c 6.87,-12.4 11.36,-25.83 16.38,-39 2.63,-6.77 8.05,-12.54 8.05,-20.38 z" class="cls-14"/>
  <path style="fill:#f02a3f" id="path42" d="m 574.58583,69.988882 c 5.57,-1.82 7,-5.84 6.3,-11.26 a 53.72,53.72 0 0 1 0,-8.88 c 0.35,-8.18 4.41,-12.34 12.56,-12.59 4.56,-0.14 9.14,0.2 13.71,0.32 -8.34,1.55 -10.86,9.42 -12.4,15.14 -5.42,20.14 -15.35,38.38 -23,57.539998 -9,22.59 -17.48,45.38 -27.54,67.59 -6.8,15 -12.66,30.62 -18.56,46.08 -2.25,5.91 -5.9,11.94 -4.92,18.89 a 14,14 0 0 1 -2,-1.34 c -15.07,-14.48 -15.09,-16.78 -0.66,-31.46 2.21,-2.25 5.14,-4 5.73,-7.51 -0.31,-6.39 5,-10.54 6.4,-16.32 3.22,-13.58 9.49,-26.18 15.13,-38.68 8.89,-19.7 15.39,-40.31 24.56,-59.849998 2.38,-5.08 5.65,-9.93 4.62,-16 z" class="cls-15"/>
  <path style="fill:#f02d39" id="path44" d="m 520.75583,242.81888 c -1,-7 2.67,-13 4.92,-18.89 5.9,-15.46 11.76,-31.06 18.56,-46.08 10.06,-22.21 18.59,-45 27.54,-67.59 7.6,-19.159998 17.53,-37.399998 23,-57.539998 1.54,-5.72 4.06,-13.59 12.4,-15.14 h 14.65 c -2.18,2.93 -7.74,-0.13 -8.67,4.58 -1.13,5.73 -5.15,10.08 -6.89,15.41 -5.8,17.67 -12.64,34.89 -20.08,51.939998 -1.83,4.19 -6.93,8.61 -3,14.35 -10.92,8.76 -16.69,20.26 -18.17,34.05 -9.15,9.56 -10.72,22.77 -16.14,34.12 -8.63,18.09 -13.3,37.9 -23.12,55.55 a 10.4,10.4 0 0 1 -5,-4.76 z" class="cls-16"/>
  <path style="fill:#f67800" id="path46" d="m 853.02583,6.7688821 c -5.54,13.7399999 -11.35,27.3799999 -16.56,41.2399999 -11,29.26 -23.93,57.739998 -34.58,87.159998 -3.78,10.47 -9,20.67 -13.29,31.12 q -9.45,23.05 -18.58,46.25 c -1.43,3.6 -2.84,7 -6.58,8.85 a 218.69,218.69 0 0 1 0,-29.3 c 5.64,-1.7 6.07,-7.23 7.86,-11.41 7.51,-17.5 14.64,-35.17 21.81,-52.81 6.78,-16.65 13.83,-33.209998 20.07,-50.069998 8.87,-23.93 18.52,-47.53 28.45,-70.9999999 z" class="cls-17"/>
  <path style="fill:#ec048d" id="path48" d="m 182.19583,267.15888 c 11.18,-35.11 27.48,-68.22 39.95,-102.82 1.09,-3 4.17,-5.07 4.19,-8.61 15.82,25.6 10.11,66.74 -12.72,90.36 -8.95,9.25 -19.13,16.76 -31.42,21.07 z" class="cls-18"/>
  <path style="fill:#f57300" id="path50" d="m 841.62583,6.7788821 c -9.93,23.4899999 -19.58,47.0899999 -28.45,70.9999999 -6.24,16.86 -13.29,33.419998 -20.07,50.069998 -7.17,17.64 -14.3,35.31 -21.81,52.81 -1.79,4.18 -2.22,9.71 -7.86,11.41 a 241.67,241.67 0 0 1 0,-30.92 c 6.93,-4.51 8.53,-12.2 11.08,-19.17 11.33,-31 25.23,-60.999998 36.87,-91.809998 5.5,-14.58 12.81,-28.42 17.22,-43.4099999 z" class="cls-19"/>
  <path style="fill:#f56d00" id="path52" d="m 828.60583,6.7788821 c -4.41,14.9999999 -11.72,28.8299999 -17.22,43.4099999 -11.64,30.85 -25.54,60.809998 -36.87,91.809998 -2.55,7 -4.15,14.66 -11.08,19.17 a 292.88,292.88 0 0 1 0,-34.17 10.77,10.77 0 0 0 5.35,-5.82 c 4.61,-10.91 9.49,-21.709998 13.78,-32.729998 9.43,-24.25 18.52,-48.64 29.15,-72.4 1.35,-3 2.61,-5.91 2.23,-9.2699999 z" class="cls-20"/>
  <path style="fill:#ef0f75" id="path54" d="m 313.96583,274.81888 c -7.55,-1.2 -6.76,-4.32 -4.52,-10.89 10.46,-30.59 24.88,-59.59 35.42,-90.17 a 12.71,12.71 0 0 1 5.39,-7.15 c 3.07,5.6 -0.68,12 2.52,17.23 0.15,2.14 0.4,4.28 0.42,6.43 0.16,16.59 0.14,16.52 17.18,16.61 20.76,0.1 41.5,0.33 62.26,0.5 -5.21,2.15 -10.7,0.3 -16,1.12 h -50.49 c -7.78,-0.4 -16.44,-2 -19.28,8.22 -3.89,14.1 -11.22,26.78 -15.82,40.58 -5.43,16.31 -5.52,16.27 12.3,16.1 2.19,0.28 4.64,-0.64 6.44,1.42 a 276.37,276.37 0 0 1 -35.82,0 z" class="cls-21"/>
  <path style="fill:#f25104" id="path56" d="m 700.03583,132.19888 c 5.85,5.25 0.55,10.22 -1.21,14.39 -12.67,30 -25.41,59.87 -36.41,90.5 -1.18,3.28 -3.57,5.31 -6.36,7.06 -2.66,-1.62 -5.29,-2 -7.89,0.12 -4.28,-0.6 -3.47,-3 -2.31,-5.88 7.09,-17.8 14.37,-35.53 21,-53.5 6.74,-18.21 15.71,-35.54 21.29,-54.18 a 14.76,14.76 0 0 1 6.9,-8.6 c 2.24,3.08 1.25,7.75 4.99,10.09 z" class="cls-22"/>
  <path style="fill:#ef146c" id="path58" d="m 366.14583,208.50888 h 26 c 0.1,3.63 -1.44,6.84 -2.73,10.08 -6.57,16.53 -13.1,33.08 -20,49.49 -1.27,3 -1.16,4.95 1.46,6.75 a 97.39,97.39 0 0 1 -21.18,0 c -1.8,-2.06 -4.25,-1.14 -6.44,-1.42 a 16,16 0 0 1 0.52,-4 c 5.26,-12.92 10.9,-25.69 15.83,-38.72 2.81,-7.16 7.15,-14 6.54,-22.18 z" class="cls-23"/>
  <path style="fill:#f01765" id="path60" d="m 370.97583,274.81888 c -2.62,-1.8 -2.73,-3.7 -1.46,-6.75 6.86,-16.41 13.39,-33 20,-49.49 1.29,-3.24 2.83,-6.45 2.73,-10.08 h 24.43 a 18,18 0 0 1 -1.81,8.55 c -6.32,15.07 -12.68,30.14 -18.61,45.37 -3.71,9.55 -3.39,9.68 5.69,12.41 a 203.41,203.41 0 0 1 -30.97,-0.01 z" class="cls-24"/>
  <path style="fill:#f46700" id="path62" d="m 813.94583,6.7788821 c 0.38,3.3599999 -0.88,6.2599999 -2.23,9.2699999 -10.63,23.76 -19.72,48.15 -29.15,72.4 -4.29,11 -9.17,21.819998 -13.78,32.729998 a 10.77,10.77 0 0 1 -5.35,5.82 351.57,351.57 0 0 1 0,-37.439998 c 4.79,-0.77 5.27,-5.25 6.56,-8.46 9.94,-24.71 19.56,-49.54 29.29,-74.3299999 z" class="cls-25"/>
  <path style="fill:#d60191" id="path64" d="m 142.79583,209.86888 c 10.16,-7 11,-9 8.25,-19.37 3.72,1.77 4.58,-0.54 5.37,-3.5 a 88.25,88.25 0 0 1 3.5,-10.64 c 6.67,-16.27 13.51,-32.47 20.14,-48.76 0.86,-2.11 2.09,-4.5 0.49,-6.92 4.66,-0.59 7.1,4.3 11.39,4.6 -2.09,3.77 -4.63,7.37 -6.19,11.35 -5.77,14.71 -10.6,29.88 -16.92,44.38 -13.22,30.42 -25.87,61.05 -36.67,92.42 a 10.51,10.51 0 0 1 -5.31,6.23 h -8.21 a 7.68,7.68 0 0 1 0.16,-2.42 q 12.95,-30.06 26,-60.05 c 1.46,-3.23 3.11,-6.07 -2,-7.32 z" class="cls-26"/>
  <path style="fill:#f88c00" id="path66" d="m 813.94583,6.7788821 h -29.32 l -17.37,-0.22 c 1.36,-1.81 3.35,-1.44 5.2,-1.43 q 60.32,0.12 120.65,0.31 a 55,55 0 0 1 7.17,0.93 c -3.9,12.0499999 -9,23.6299999 -13.77,35.3499999 -4,9.72 -9.57,19.06 -10.67,29.87 h -19.54 c 5.63,-22.35 17.36,-42.35 25.37,-64.8299999 h -67.72 z" class="cls-27"/>
  <path style="fill:#f14315" id="path68" d="m 626.57583,196.59888 c -0.13,8.58 -3.68,16.35 -7.11,23.77 -8.32,18 -14.53,36.84 -22.8,54.83 -1.28,2.77 1.5,3 2.28,4.44 -6.37,0.54 -12.93,1.57 -16.27,-6 0.51,-4.8 -1.47,-10.08 1,-14.37 6.18,-10.54 8.38,-22.75 14.2,-33.27 5,-9 4.23,-22.15 17.38,-25.63 z" class="cls-28"/>
  <path style="fill:#f01a5f" id="path70" d="m 401.90583,274.82888 c -9.08,-2.73 -9.4,-2.86 -5.69,-12.41 5.93,-15.23 12.29,-30.3 18.61,-45.37 a 18,18 0 0 0 1.81,-8.55 c 5.3,-0.82 10.79,1 16,-1.12 13.16,-0.25 26.36,-2.1 39.44,0.94 l -1.71,0.18 h -16.28 a 43.42,43.42 0 0 1 -4.85,-0.17 c -8.37,-1.22 -12.49,1.7 -15.55,10.39 -5,14.36 -10.27,28.79 -17.28,42.45 -5.36,10.43 -4,12.29 7.59,12.28 1.89,0 3.78,0 5.67,0 3.22,0.55 6.76,-1.11 9.69,1.42 a 298.07,298.07 0 0 1 -37.45,-0.04 z" class="cls-29"/>
  <path style="fill:#c00181" id="path72" d="m 108.52583,174.33888 c 5,-12.3 10.31,-24.49 14.91,-36.95 2.53,-6.84 5.88,-13.24 8.77,-19.89 1.35,-3.11 2.56,-6.5 1.09,-10.05 l 8.2,1.82 c 1.36,0.86 2.68,2.38 4.08,2.46 8.66,0.51 9.06,5.24 5.54,11.21 -7.45,12.64 -10.71,27 -16.36,40.34 -4.4,10.4 -8.33,15.77 -19.72,12.63 a 11,11 0 0 1 -6.51,-1.57 z" class="cls-30"/>
  <path style="fill:#e30191" id="path74" d="m 204.93583,133.53888 q -8.14,20 -16.28,40 -7.38,18.22 -14.71,36.47 c -5.39,13.4 -10.21,27.06 -16.37,40.1 -4.5,9.53 -5.39,21 -14.51,28.2 -3,2.06 -6.37,1.32 -9.65,1.17 a 14.62,14.62 0 0 0 6.52,-7.92 c 6.32,-15.91 12.59,-31.85 19,-47.7 11.35,-27.9 23.06,-55.66 34,-83.73 1.52,-3.91 6.19,-8.24 2.27,-13.43 4.51,0.52 6.31,4.83 9.73,6.84 z" class="cls-31"/>
  <path style="fill:#be0180" id="path76" d="m 95.995834,72.148882 a 4.41,4.41 0 0 1 3.84,-3.64 c 12.139996,-1.95 24.119996,-5.14 36.669996,-2.15 10.33,2.46 12.33,0.64 16.11,-9 5.32,-13.51 11.17,-26.82 16.87,-40.18 2,-4.64 4.68,-9.2799999 -1.93,-12.5399999 5.68,0 11,1.64 16.24,3.61 a 4.91,4.91 0 0 0 4.87,3.1599999 c 0.54,0 1.07,0 1.61,0.09 0.17,5.86 -4.53,9.58 -6.41,14.6 -5.06,13.56 -10.86,26.83 -16.15,40.31 -1.66,4.24 -4.48,5.77 -8.74,5.36 -12.46,-2.27 -24.89,-4.85 -37.67,-4.4 a 76.51,76.51 0 0 0 -25.309996,4.78 z" class="cls-32"/>
  <path style="fill:#f02251" id="path78" d="m 470.36583,208.49888 1.71,-0.18 c 4.88,0.95 5.28,4.54 5.26,8.58 -0.06,16.14 -0.09,32.29 0,48.43 0,6.66 -2.94,10.08 -9.66,10 -4.56,-0.08 -9.12,-0.31 -13.68,-0.47 -9.8,-0.91 -7.64,-6.17 -5,-12.47 7.33,-17.89 14.26,-35.92 21.37,-53.89 z" class="cls-33"/>
  <path style="fill:#f03231" id="path80" d="m 583.14583,123.85888 c -3.89,-5.74 1.21,-10.16 3,-14.35 7.44,-17.049998 14.28,-34.269998 20.08,-51.939998 1.74,-5.33 5.76,-9.68 6.89,-15.41 0.93,-4.71 6.49,-1.65 8.67,-4.58 3.4,-0.65 6.26,0.17 8.33,3.09 a 25.32,25.32 0 0 0 -2.64,1.83 c -4.27,3.81 -1.8,9.66 -4.51,14.25 -7.2,12.18 -10.54,26.11 -16.49,38.89 -2.27,4.869998 -4.64,9.659998 -5.86,14.999998 -0.89,3.88 0,5.6 4.21,5 1.86,-0.26 3.76,-0.2 5.64,-0.29 2.64,0.84 6,-1 8,2 -12.44,-1.45 -24.57,-1.09 -35.32,6.51 z" class="cls-34"/>
  <path style="fill:#de0192" id="path82" d="m 195.22583,126.72888 c 3.92,5.19 -0.75,9.52 -2.27,13.43 -10.92,28.07 -22.63,55.83 -34,83.73 -6.45,15.85 -12.72,31.79 -19,47.7 a 14.62,14.62 0 0 1 -6.52,7.92 l -6.57,0.15 a 10.51,10.51 0 0 0 5.31,-6.23 c 10.8,-31.37 23.45,-62 36.67,-92.42 6.31,-14.5 11.15,-29.63 16.92,-44.38 1.56,-4 4.1,-7.58 6.19,-11.35 a 3,3 0 0 1 3.27,1.45 z" class="cls-35"/>
  <path style="fill:#eb038e" id="path84" d="m 299.38583,6.7288821 c 0.23,9.8599999 -5.81,17.7199999 -8.83,26.5099999 -4.67,13.65 -10.9,26.78 -16.49,40.12 -0.84,2 -1.79,3.94 -4,4.81 -0.13,-21.41 -0.23,-42.81 -0.42,-64.22 0,-3.68 1.31,-6.2499999 4.76,-7.6399999 z" class="cls-36"/>
  <path style="fill:#c60187" id="path86" d="m 115.03583,175.93888 c 11.39,3.14 15.32,-2.23 19.72,-12.63 5.65,-13.36 8.91,-27.7 16.36,-40.34 3.52,-6 3.12,-10.7 -5.54,-11.21 -1.4,-0.08 -2.72,-1.6 -4.08,-2.46 a 129,129 0 0 1 29.28,7.85 c -3.19,6.44 -7.41,12.35 -9.09,19.55 a 53.22,53.22 0 0 1 -4.41,12.07 c -5.89,11.45 -9.71,23.7 -14.34,35.63 z" class="cls-37"/>
  <path style="fill:#f14413" id="path88" d="m 685.21583,65.188882 c -6,9.3 -8.93,20 -13.21,30 -7.76,18.229998 -15.15,36.609998 -22.69,54.929998 -2.1,-6.38 -5.27,-12.26 -8.54,-18.08 1.56,-1.82 3.71,-3.4 4.59,-5.5 8,-18.93 16.23,-37.759998 23.18,-57.059998 2.11,-5.88 4.85,-8.42 10.32,-9.28 3.08,0.46 4.9,2.49 6.35,4.99 z" class="cls-38"/>
  <path style="fill:#f01e56" id="path90" d="m 470.36583,208.49888 c -7.11,18 -14,36 -21.4,53.86 -2.6,6.3 -4.76,11.56 5,12.47 a 47.66,47.66 0 0 1 -14.65,0 c -2.93,-2.53 -6.47,-0.87 -9.69,-1.42 0,-3.9 1.64,-7.33 3,-10.83 l 21.39,-54.07 z" class="cls-39"/>
  <path style="fill:#f36100" id="path92" d="m 784.62583,6.7688821 h 14.66 c -9.73,24.7899999 -19.35,49.6199999 -29.29,74.3299999 -1.29,3.21 -1.77,7.69 -6.56,8.46 a 351.19,351.19 0 0 1 0,-37.42 11.31,11.31 0 0 0 5.72,-6.52 q 7.79,-19.41 15.47,-38.8499999 z" class="cls-40"/>
  <path style="fill:#be027f" id="path94" d="m 58.265834,273.50888 c 3.87,0.41 6.49,-0.83 8.24,-4.69 7.6,-16.8 14.07,-34 20.62,-51.25 1.7,-4.46 -2.61,-5.22 -4.31,-7.6 a 9.08,9.08 0 0 1 6.57,1.42 c 4.41,3.05 9.76,2.14 14.579996,3.45 v 0.06 c -1.24,4.09 -2,8.44 -3.82,12.24 -7.749996,16 -13.389996,32.69 -18.999996,49.45 l -5.05,-0.12 c -3.05,-2.59 -6.64,-1 -10,-1.25 -2.7,0.04 -5.42,-0.14 -7.83,-1.71 z" class="cls-41"/>
  <path style="fill:#cd018c" id="path96" d="m 142.93583,184.39888 c 4.63,-11.93 8.45,-24.18 14.34,-35.63 a 53.22,53.22 0 0 0 4.41,-12.07 c 1.68,-7.2 5.9,-13.11 9.09,-19.55 4,-1 6.22,3.16 9.77,3.53 1.6,2.42 0.37,4.81 -0.49,6.92 -6.63,16.29 -13.47,32.49 -20.14,48.76 a 88.25,88.25 0 0 0 -3.5,10.64 c -0.79,3 -1.65,5.27 -5.37,3.5 z" class="cls-42"/>
  <path style="fill:#f02153" id="path98" d="m 519.02583,124.72888 c 0,7.84 -5.42,13.61 -8,20.45 -5,13.15 -9.51,26.58 -16.38,39 -5.82,-1 -8.09,-4.94 -8.16,-10.33 -0.13,-10 0,-20 0,-30 0,-7.61 4.16,-11.38 11.46,-11.93 a 39.7,39.7 0 0 1 8.92,0 c 6.13,0.95 10.28,-1.12 12.16,-7.19 z" class="cls-43"/>
  <path style="fill:#cd018d" id="path100" d="m 142.79583,209.86888 c 5.11,1.25 3.46,4.09 2,7.36 q -13.14,30 -26,60.05 a 7.68,7.68 0 0 0 -0.16,2.42 h -11.4 c 3.65,-18.41 12.8,-34.83 19.06,-52.3 4.6,-12.84 5.08,-12.67 -9.32,-12.44 l -13,-0.06 v 0 c 0,-0.54 0,-1.08 0,-1.61 l 24,-0.13 c 3.42,-0.32 7.15,1.49 10.15,-1.55 1.43,-1.07 2.74,-2.27 4.67,-1.74 z" class="cls-44"/>
  <path style="fill:#fdb905" id="path102" d="m 949.14583,17.998882 c -4.18,13.51 -10.17,26.35 -15.13,39.56 a 253.53,253.53 0 0 1 -11.71,27.2 c -1.18,2.28 -2.58,2.3 -4.53,1.69 a 65.74,65.74 0 0 0 -12.81,-9.82 c 3,-1.31 7.6,3.78 9.2,-1.16 1.31,-4.08 4.09,-7.73 4.82,-11.44 2.56,-12.93 9.59,-23.85 14.42,-35.73 4.28,-10.52 3.43,-13.73 -5.44,-16.76 -1.33,-0.12 -2.57,-0.42 -3.22,-1.7699999 8.86,0.4799999 16.77,3.8799999 24.4,8.2299999 z" class="cls-45"/>
  <path style="fill:#ce028e" id="path104" d="m 213.06583,19.688882 c 13.07,4.25 13.14,4.38 8.18,16.36 q -8.86,21.39 -17.77,42.77 c -3.41,8.17 -7,9.23 -14.93,4.55 5.5,-22.25 16.97,-42.21 24.52,-63.68 z" class="cls-46"/>
  <path style="fill:#c70187" id="path106" d="m 116.97583,214.95888 c 14.4,-0.23 13.92,-0.4 9.32,12.44 -6.26,17.47 -15.41,33.89 -19.06,52.3 h -3.32 c -4.919996,-3.61 -11.359996,1.08 -16.219996,-3 2.27,0.06 4.49,-0.16 5.32,-2.71 2.11,-6.43 6,-12 8.669996,-18.2 5.69,-13.39 10.09,-27.25 15.29,-40.83 z" class="cls-47"/>
  <path style="fill:#f1362b" id="path108" d="m 610.45583,115.33888 c -1.88,0.09 -3.78,0 -5.64,0.29 -4.19,0.58 -5.1,-1.14 -4.21,-5 1.22,-5.3 3.59,-10.09 5.86,-14.999998 5.95,-12.78 9.29,-26.71 16.49,-38.89 2.71,-4.59 0.24,-10.44 4.51,-14.25 a 25.32,25.32 0 0 1 2.64,-1.83 c 4.64,2.94 4,7.68 4.41,12.2 0.51,5.17 -2.15,10.82 2.15,15.45 -5.82,-0.93 -8.41,3 -10.21,7.33 -5.5,13.17 -10.69,26.449998 -16,39.699998 z" class="cls-48"/>
  <path style="fill:#f03035" id="path110" d="m 525.66583,247.57888 c 9.82,-17.65 14.49,-37.46 23.12,-55.55 5.42,-11.35 7,-24.56 16.14,-34.12 l 3.63,17.75 c -6,2.37 -5.91,8.33 -8.07,13.09 -9.94,21.84 -18.17,44.35 -26.6,66.79 -3.62,-1.74 -6.03,-4.73 -8.22,-7.96 z" class="cls-49"/>
  <path style="fill:#f0332f" id="path112" d="m 533.88583,255.53888 c 8.43,-22.44 16.66,-45 26.6,-66.79 2.16,-4.76 2.11,-10.72 8.07,-13.09 l 7.68,11.54 c -3.43,0.09 -6.32,2.43 -6.85,4.94 -1.37,6.47 -5.22,11.7 -7.53,17.64 -5.5,14.15 -9,29.09 -17,42.25 -1.64,2.71 0.08,3.27 2.22,3.6 -4.4,3.77 -8.81,3.71 -13.19,-0.09 z" class="cls-50"/>
  <path style="fill:#f13e1d" id="path114" d="m 615.29583,200.33888 c -13.15,3.48 -12.42,16.64 -17.38,25.63 -5.82,10.52 -8,22.73 -14.2,33.27 -2.51,4.29 -0.53,9.57 -1,14.37 -3.79,-7.4 -1.17,-15.24 -1.6,-22.87 -0.23,-0.76 -0.26,-2 -0.71,-2.2 -7.25,-2.76 -6.84,-7 -2.73,-12.31 1.44,-1.87 2.84,-4.24 3,-6.5 0.67,-7.63 5.74,-13.6 7.33,-21 0.94,-4.39 3.67,-9.16 9.88,-8.79 z" class="cls-51"/>
  <path style="fill:#f14018" id="path116" d="m 678.86583,60.238882 c -5.47,0.86 -8.21,3.4 -10.32,9.28 -7,19.3 -15.22,38.129998 -23.18,57.059998 -0.88,2.1 -3,3.68 -4.59,5.5 l -6.15,-6.15 c -0.15,-1.82 -1.48,-3.44 -0.56,-5.48 6.84,-15.25 12,-31.219998 20.22,-45.869998 3.86,-4 7.57,-8.21 11.63,-12 3.69,-3.5 7.95,-5.41 12.95,-2.34 z" class="cls-52"/>
  <path style="fill:#c80188" id="path118" d="m 213.06583,19.688882 c -7.55,21.47 -19,41.43 -24.52,63.68 -5.36,-1.37 -10.14,-4 -14.95,-6.65 3.79,-0.25 4.22,-3.66 5.81,-6.05 3.53,-5.32 2.84,-12.17 6,-17.39 7.35,-12.23 9.84,-26.44 16.58,-38.86 4.55,-0.08 7.25,3.79 11.08,5.27 z" class="cls-53"/>
  <path style="fill:#f02745" id="path120" d="m 574.58583,71.658882 c 1,6.07 -2.24,10.92 -4.62,16 -9.17,19.539998 -15.67,40.149998 -24.56,59.849998 -5.64,12.5 -11.91,25.1 -15.13,38.68 -1.37,5.78 -6.71,9.93 -6.4,16.32 -1.86,-1.34 -3.59,-2.76 -3.06,-5.44 1.35,-8.14 5.11,-15.41 7.83,-23.05 5.12,-14.36 10.66,-28.66 16.65,-42.53 7.75,-18 13.55,-36.739998 22.46,-54.239998 1.75,-3.44 3.45,-5.06 6.83,-5.59 z" class="cls-54"/>
  <path style="fill:#fcb205" id="path122" d="m 771.74583,274.89888 1.51,-1.46 h 39.07 c 5.6,0.13 12.09,1.38 14.06,-5.91 a 201.39,201.39 0 0 1 11.93,-31.72 c 3.07,-6.69 5.68,-13.37 6.5,-20.71 0.4,-3.55 -1.22,-7.8 3.34,-10 1.82,0.07 3.78,-0.26 4.91,1.74 -5.21,-0.1 -6.67,2.41 -6.58,7.55 0.33,17 0.05,34.09 0.13,51.13 0,5.8 -2.36,9.68 -8.33,9.7 -22.14,0.06 -44.36,-0.19 -66.54,-0.32 z" class="cls-55"/>
  <path style="fill:#fba801" id="path124" d="m 924.70583,9.7688821 c 0.65,1.3499999 1.89,1.6499999 3.22,1.7699999 -0.18,1.86 0.22,4.05 -0.64,5.51 -8.75,15 -13.85,31.39 -19.29,47.71 -1.28,3.84 -3.44,8.25 -7.91,10.22 -17.66,-2.77 -35.43,-1.23 -53.15,-1.44 2.51,-3.59 6.28,-1.1 9.36,-1.95 h 27.68 c 4.07,-0.69 9.69,2.49 11.31,-4.39 2.5,-10.61 8,-20.11 11.37,-30.38 3.18,-9.6 10,-18 9.89,-28.6899999 a 12.79,12.79 0 0 1 8.16,1.64 z" class="cls-56"/>
  <path style="fill:#c40285" id="path126" d="m 201.96583,14.418882 c -6.74,12.42 -9.23,26.63 -16.58,38.86 -3.14,5.22 -2.45,12.07 -6,17.39 -1.59,2.39 -2,5.8 -5.81,6.05 l -14.62,-4.93 c 4.26,0.41 7.08,-1.12 8.74,-5.36 5.29,-13.48 11.09,-26.75 16.15,-40.31 1.88,-5 6.58,-8.74 6.41,-14.6 3.81,1.3 7.39,3.47 11.66,3 z" class="cls-57"/>
  <path style="fill:#f02155" id="path128" d="m 547.50583,61.678882 c -9,-1.1 -9.62,7.24 -11.39,12 -3,8 -5.91,16.05 -9.28,24 -1.9,4.439998 -6.14,9.069998 -1.55,14.769998 1.45,1.8 -0.79,3.89 -3,4.77 2.28,-4 -0.22,-6.27 -2.79,-8.89 -16.42,-16.729998 -16.38,-16.999998 0.1,-33.449998 4.23,-4.21 8.26,-8.65 12.75,-12.55 4.68,-4.14 9.9,-5.65 15.16,-0.65 z" class="cls-58"/>
  <path style="fill:#f02745" id="path130" d="m 574.58583,71.658882 c -3.38,0.53 -5.08,2.15 -6.83,5.59 -8.91,17.5 -14.71,36.279998 -22.46,54.239998 -6,13.87 -11.53,28.17 -16.65,42.53 -2.72,7.64 -6.48,14.91 -7.83,23.05 a 17.27,17.27 0 0 1 -3.42,-9.41 c 5.37,-16.39 11.7,-32.42 18.37,-48.33 6.67,-15.91 13.27,-31.73 19.23,-47.839998 2.19,-5.93 5.55,-11.08 8.18,-16.69 3.43,-2.47 6.92,-4.82 11.41,-4.81 z" class="cls-54"/>
  <path style="fill:#f13629" id="path132" d="m 547.14583,255.62888 c -2.14,-0.33 -3.86,-0.89 -2.22,-3.6 8,-13.16 11.46,-28.1 17,-42.25 2.31,-5.94 6.16,-11.17 7.53,-17.64 0.53,-2.51 3.42,-4.85 6.85,-4.94 l 9.94,8.07 c -7.5,1 -9.29,7.66 -11.31,12.86 -3.27,8.44 -5.29,17.33 -9.89,25.31 -1.48,2.57 -3.74,5.43 -1.78,8.89 -6.95,2.6 -9.73,10.14 -16.12,13.3 z" class="cls-59"/>
  <path style="fill:#fcaf02" id="path134" d="m 853.06583,206.82888 c -1.13,-2 -3.09,-1.67 -4.91,-1.74 l 26.06,-65.18 h 9.77 c 0.9,5.69 -2.6,9.93 -4.32,14.87 -6,17.1 -14.24,33.22 -20.12,50.32 -1.37,0 -2.6,0.37 -3.26,1.75 z" class="cls-60"/>
  <path style="fill:#f35e02" id="path136" d="m 677.36583,257.40888 c -1.88,-2.52 -1,-4.81 0.11,-7.46 6,-13.7 11.68,-27.51 17.49,-41.29 a 2.85,2.85 0 0 1 0.72,0.36 c 15.73,14.23 16,17.42 1,31.92 -6.06,5.85 -10.45,13.86 -19.32,16.47 z" class="cls-61"/>
  <path style="fill:#f13a23" id="path138" d="m 563.19583,242.33888 c -2,-3.46 0.3,-6.32 1.78,-8.89 4.6,-8 6.62,-16.87 9.89,-25.31 2,-5.2 3.81,-11.9 11.31,-12.86 l 11.71,4.71 c -6.21,-0.37 -8.94,4.4 -9.88,8.79 -1.59,7.35 -6.66,13.32 -7.33,21 -0.2,2.26 -1.6,4.63 -3,6.5 -4.11,5.35 -4.52,9.55 2.73,12.31 0.45,0.17 0.48,1.44 0.71,2.2 -5.78,-3.33 -12.64,-4.22 -17.92,-8.45 z" class="cls-62"/>
  <path style="fill:#f13d1f" id="path140" d="m 654.28583,74.578882 c -8.2,14.65 -13.38,30.619998 -20.22,45.869998 -0.92,2 0.41,3.66 0.56,5.48 l -7.94,-5.41 c -2.5,-3.1 -3.66,-6.18 -1.87,-10.33 3.81,-8.77 7.09,-17.769998 10.66,-26.639998 4.55,-11.31 4.58,-11.3 16.1,-8.8 z" class="cls-63"/>
  <path style="fill:#fa9d00" id="path142" d="m 916.54583,8.1288821 c 0.11,10.7299999 -6.71,19.0899999 -9.89,28.6899999 -3.4,10.27 -8.87,19.77 -11.37,30.38 -1.62,6.88 -7.24,3.7 -11.31,4.39 5.18,-20.36 15.87,-38.61 22.49,-58.45 1.13,-3.3599999 0.65,-4.6799999 -1.31,-6.5799999 3.93,-0.45 7.68,0.42 11.39,1.57 z" class="cls-64"/>
  <path style="fill:#f13924" id="path144" d="m 651.57583,74.748882 c -11.52,-2.5 -11.55,-2.51 -16.1,8.8 -3.57,8.87 -6.85,17.869998 -10.66,26.639998 -1.79,4.15 -0.63,7.23 1.87,10.33 l -8.19,-3.14 c -2.09,-3 -5.4,-1.21 -8,-2 5.31,-13.24 10.5,-26.519998 16,-39.679998 1.8,-4.29 4.39,-8.26 10.21,-7.33 5.44,1.02 10.51,2.83 14.87,6.38 z" class="cls-65"/>
  <path style="fill:#f35b00" id="path146" d="m 784.62583,6.7688821 q -7.73,19.4299999 -15.47,38.8499999 a 11.31,11.31 0 0 1 -5.72,6.52 c -0.14,-12.83 -0.23,-25.66 -0.44,-38.48 a 7.4,7.4 0 0 1 4.25,-7.1099999 z" class="cls-66"/>
  <path style="fill:#f99500" id="path148" d="m 905.14583,6.5588821 c 2,1.9 2.44,3.22 1.31,6.5799999 -6.62,19.84 -17.31,38.09 -22.49,58.45 h -8.14 c 1.1,-10.81 6.7,-20.15 10.67,-29.87 4.78,-11.72 9.87,-23.3 13.77,-35.3499999 z" class="cls-67"/>
  <path style="fill:#f36105" id="path150" d="m 698.50583,186.26888 c 0.11,-0.24 0.23,-0.7 0.34,-0.7 17.21,0.39 17.18,-15.15 22.21,-25.19 3.14,-6.27 8.47,-12.57 6.72,-20.71 1.73,12 0.94,24.18 0.46,36.23 -0.28,6.76 -5.78,9.09 -12.07,9.47 -5.88,0.35 -11.86,-1.03 -17.66,0.9 z" class="cls-68"/>
  <path style="fill:#cd018d" id="path152" d="m 87.695834,276.72888 c 4.86,4 11.3,-0.66 16.219996,3 -9.929996,0.5 -19.779996,0.27 -29.349996,-2.9 a 10.63,10.63 0 0 0 1.57,-0.31 l 5.05,0.12 z" class="cls-44"/>
  <path style="fill:#f02153" id="path154" d="m 494.61583,184.07888 c 7.11,0.55 14.41,-1.84 21.36,1.35 -7.09,-0.9 -14.39,1.39 -21.36,-1.35 z" class="cls-43"/>
  <path style="fill:#f35e02" id="path156" d="m 694.78583,208.47888 c -6.21,-3.93 -6.17,-6.33 0.18,-13.12 -0.36,4.37 -5.93,8.67 -0.18,13.12 z" class="cls-61"/>
  <path style="fill:#c70187" id="path158" d="m 104.00583,213.23888 c 0,0.53 0,1.07 0,1.61 -4.819996,-1.32 -10.169996,-0.41 -14.579996,-3.46 4.9,0.12 9.84,0.19 14.579996,1.85 z" class="cls-47"/>
  <path style="fill:#c80188" id="path160" d="m 201.93583,14.498882 c -4.27,0.49 -7.85,-1.68 -11.66,-3 -0.54,-0.05 -1.07,-0.08 -1.61,-0.09 0,-0.55 0,-1.11 0,-1.6699999 a 28.31,28.31 0 0 1 13.27,4.7599999 z" class="cls-53"/>
  <path style="fill:#f35e02" id="path162" d="m 667.62583,255.48888 9.75,1.85 c -3.79,2.23 -6.91,0.9 -9.75,-1.85 z" class="cls-61"/>
  <path style="fill:#d60191" id="path164" d="m 138.14583,211.55888 c -3,3 -6.73,1.23 -10.15,1.55 3.26,-1.57 6.72,-1.64 10.15,-1.55 z" class="cls-26"/>
  <path style="fill:#c20183" id="path166" d="m 76.145834,276.46888 a 10.63,10.63 0 0 1 -1.57,0.31 c -2.91,0.06 -5.78,-0.12 -8.41,-1.56 3.33,0.28 6.92,-1.34 9.98,1.25 z" class="cls-69"/>
  <path style="fill:#c40285" id="path168" d="m 188.68583,9.7588821 c 0,0.5599999 0,1.1199999 0,1.6699999 a 4.91,4.91 0 0 1 -4.87,-3.1599999 5.93,5.93 0 0 1 4.87,1.49 z" class="cls-57"/>
  <path style="fill:#fdb804" id="path170" d="m 883.98583,139.89888 4.37,-0.15 c 6.85,-0.82 9.12,2.14 7,8.57 -2.23,6.62 -4.37,13.28 -6.91,19.79 -3.88,9.91 -8.85,19.47 -11.91,29.61 -3.06,10.14 -10.47,6.91 -16.95,7.37 5.88,-17.1 14.17,-33.22 20.12,-50.32 1.68,-4.94 5.18,-9.18 4.28,-14.87 z" class="cls-70"/>
  <path style="fill:#f88a00" id="path172" d="m 784.65583,273.42888 h -11.4 c 1.55,-11.7 7.86,-21.73 11.7,-32.63 5.42,-15.34 12.59,-30 18.1,-45.38 6.62,-18.44 15.06,-36.22 22.52,-54.37 4.4,-10.69 8.73,-21.44 12.5,-32.36 1.9,-5.5 6.07,-9.949998 6.75,-15.899998 q 0,14.669998 0,29.339998 c -2.32,11.39 -8.9,21.07 -12.82,31.87 -7.34,20.23 -16.11,39.94 -24.09,60 -7.88,19.73 -15.51,39.6 -23.26,59.43 z" class="cls-71"/>
  <path style="fill:#f99700" id="path174" d="m 844.83583,122.13888 q 0,-14.67 0,-29.339998 c 1.18,-6.42 -2.15,-13.32 2,-19.42 q -0.13,30.239998 -0.29,60.499998 c 0,2.2 0.07,4.31 1.76,6 -3.46,-0.1 -3.44,-2.56 -3.45,-5 0.03,-4.28 0,-8.54 -0.02,-12.74 z" class="cls-72"/>
  <path style="fill:#ef1171" id="path176" d="m 366.14583,208.50888 c 0.6,8.18 -3.74,15 -6.45,22.21 -4.93,13 -10.57,25.8 -15.83,38.72 a 16,16 0 0 0 -0.52,4 c -17.82,0.17 -17.73,0.21 -12.3,-16.1 4.6,-13.8 11.93,-26.48 15.82,-40.58 2.85,-10.3 11.51,-8.65 19.28,-8.25 z" class="cls-73"/>
  <path style="fill:#f01c5a" id="path178" d="m 454.08583,208.50888 -21.39,54.07 c -1.39,3.5 -3.07,6.93 -3,10.83 -1.89,0 -3.78,0 -5.67,0 -11.6,0 -13,-1.85 -7.59,-12.28 7,-13.66 12.23,-28.09 17.28,-42.45 3.06,-8.69 7.18,-11.61 15.55,-10.39 a 43.42,43.42 0 0 0 4.82,0.22 z" class="cls-74"/>
  <path style="fill:#c20183" id="path180" d="m 87.695834,276.72888 -6.51,-0.14 c 5.61,-16.76 11.25,-33.5 18.999996,-49.45 1.85,-3.8 2.58,-8.15 3.82,-12.24 l 13,0.06 c -5.2,13.58 -9.6,27.44 -15.29,40.86 -2.649996,6.22 -6.559996,11.77 -8.669996,18.2 -0.9,2.55 -3.08,2.77 -5.35,2.71 z" class="cls-69"/>
  <path style="fill:#fcb103" id="path182" d="m 904.92583,76.628882 -4.84,-1.65 c 4.47,-2 6.63,-6.38 7.91,-10.22 5.44,-16.32 10.54,-32.72 19.29,-47.71 0.86,-1.46 0.46,-3.65 0.64,-5.51 8.87,3 9.72,6.24 5.44,16.76 -4.83,11.88 -11.86,22.8 -14.42,35.73 -0.73,3.71 -3.51,7.36 -4.82,11.44 -1.6,4.94 -6.16,-0.13 -9.2,1.16 z" class="cls-75"/>
  <path style="fill:#f88f00" id="path184" d="m 844.83583,122.13888 c 0,4.23 0,8.46 0.06,12.69 0,2.47 0,4.93 3.45,5 h -0.09 c 0.38,7.79 -5.59,13.16 -7.63,20.07 -5.89,19.88 -15.43,38.35 -22.72,57.71 -7,18.68 -15.51,36.83 -21.85,55.81 h -11.4 c 7.75,-19.83 15.38,-39.7 23.27,-59.47 8,-20 16.75,-39.72 24.09,-60 3.92,-10.74 10.5,-20.42 12.82,-31.81 z" class="cls-76"/>
  <path style="fill:#fba700" id="path186" d="m 864.44583,139.90888 h 9.77 l -26.07,65.18 c -4.56,2.17 -2.94,6.42 -3.34,10 -0.82,7.34 -3.43,14 -6.5,20.71 a 201.39,201.39 0 0 0 -11.93,31.72 c -2,7.29 -8.46,6 -14.06,5.91 5.46,-21 15.57,-40.32 23.5,-60.4 7.87,-19.92 16.58,-39.54 23.81,-59.73 1.61,-4.48 6.05,-7.96 4.82,-13.39 z" class="cls-77"/>
  <path style="fill:#fa9f00" id="path188" d="m 864.44583,139.90888 c 1.23,5.46 -3.21,8.91 -4.81,13.36 -7.23,20.19 -15.94,39.81 -23.81,59.73 -7.93,20.08 -18,39.36 -23.5,60.4 h -8.18 c 5,-20.62 15.4,-39.22 22.72,-59 7.32,-19.78 16.1,-38.82 23.58,-58.46 1.92,-5 5.6,-10 4.19,-16.06 z" class="cls-78"/>
  <path style="fill:#f99700" id="path190" d="m 854.67583,139.90888 c 1.41,6.06 -2.27,11 -4.19,16.06 -7.48,19.64 -16.28,38.77 -23.58,58.46 -7.3,19.69 -17.67,38.36 -22.72,59 h -8.13 c 6.34,-19 14.81,-37.13 21.85,-55.81 7.29,-19.36 16.83,-37.83 22.72,-57.71 2,-6.91 8,-12.28 7.63,-20.07 z" class="cls-72"/> 
</svg>