<?xml version="1.0" encoding="UTF-8" standalone="no"?>
<svg xmlns="http://www.w3.org/2000/svg" xmlns:xlink="http://www.w3.org/1999/xlink" style="isolation:isolate" viewBox="0 0 1800 1325" width="1800pt" height="1325pt"><defs><clipPath id="_clipPath_Tuc2HJ6KbvRI4phqV8IXLwBwKIunQUcW"><rect width="1800" height="1325"/></clipPath></defs><g clip-path="url(#_clipPath_Tuc2HJ6KbvRI4phqV8IXLwBwKIunQUcW)"><path d=" M 430.135 622.166 C 428.588 623.59 426.923 624.908 425.515 626.45 C 419.692 632.841 420.806 640.921 428.578 644.843 C 433.789 647.444 439.287 649.438 444.961 650.786 C 452.33 652.552 459.157 656.27 466.88 656.641 C 468.328 660.105 467.136 663.413 465.806 666.448 C 462.959 672.937 459.659 679.133 457.167 685.857 C 452.635 698.015 447.414 709.91 442.479 721.913 C 422.953 718.732 403.723 714.106 385.676 706.163 C 360.486 695.088 343.118 677.152 340.645 648.473 C 337.897 616.623 349.275 591.008 376.218 572.819 C 396.906 558.826 420.549 553.723 445.069 552.239 C 463.728 551.107 482.347 551.81 500.631 556.308 C 507.143 559.49 504.473 564.017 502.532 568.545 C 496.917 581.582 491.154 594.57 485.913 607.753 C 482.189 617.14 480.219 618.916 470.043 616.535 C 457.679 613.608 445.877 616.73 433.918 618.633 C 432.006 618.851 430.467 620.288 430.135 622.166 Z " fill="rgb(186,1,123)"/><path d=" M 198.244 686.589 C 224.183 701.392 249.018 715.755 274.001 729.69 C 278.621 732.266 280.178 735.086 280.06 740.268 C 279.656 756.915 279.725 773.582 279.863 790.239 C 279.863 795.206 279.074 796.484 274.228 793.537 Q 189.014 741.692 103.602 690.17 C 98.923 687.34 98.677 685.915 103.602 682.919 Q 188.748 631.729 273.686 580.255 C 275.213 579.338 276.7 577.327 278.611 578.303 C 281.035 579.503 279.725 582.099 279.744 584.031 C 279.892 600.425 279.685 616.828 280.069 633.212 C 280.188 638.159 278.424 640.755 274.159 643.136 C 249.215 657.256 224.39 671.62 198.244 686.589 L 198.244 686.589 Z " fill="rgb(255,255,255)"/><path d=" M 1521.525 794.435 C 1521.525 775.211 1521.525 755.734 1521.525 736.267 C 1521.525 732.364 1524.647 731.612 1527.041 730.236 Q 1562.063 710.213 1597.163 690.355 L 1603.645 686.686 C 1596.316 682.422 1590.001 678.714 1583.647 675.074 C 1564.93 664.34 1546.281 653.518 1527.426 643.038 C 1523.209 640.696 1521.367 638.159 1521.456 633.222 C 1521.781 615.081 1521.584 596.931 1521.584 577.288 C 1533.632 584.539 1544.468 591.028 1555.305 597.566 C 1601.99 625.864 1648.627 654.162 1695.43 682.246 C 1701.528 685.905 1701.518 687.32 1695.43 691.028 Q 1611.27 741.722 1527.376 792.825 C 1525.849 793.683 1524.579 795.391 1521.525 794.435 L 1521.525 794.435 Z " fill="rgb(255,255,255)"/><path d=" M 1366.277 818.42 C 1360.938 818.42 1355.589 818.488 1350.24 818.42 C 1342.417 818.303 1341.373 816.781 1343.964 809.316 Q 1369.459 737.106 1395.034 664.896 C 1410.658 620.741 1426.44 576.644 1441.749 532.382 C 1443.788 526.527 1446.418 524.722 1452.457 525.034 C 1462.584 525.57 1472.761 525.151 1482.917 525.19 C 1490.877 525.19 1492.414 527.385 1489.813 534.841 Q 1448.093 652.699 1406.343 770.537 C 1401.417 784.501 1396.324 798.426 1391.645 812.497 C 1390.167 816.927 1388.167 819.025 1383.153 818.576 C 1377.538 818.04 1371.893 818.42 1366.277 818.42 Z " fill="rgb(255,255,255)"/><path d=" M 1270.601 569.326 C 1299.515 580.147 1317.632 600.913 1324.784 630.177 C 1339.777 691.155 1303.377 742.258 1239.077 751.773 C 1219.158 754.7 1199.14 754.163 1179.112 753.597 C 1179.762 752.251 1180.974 751.938 1182.324 751.89 C 1188.707 751.441 1196.017 754.544 1199.022 744.698 C 1202.026 734.852 1206.903 725.474 1210.754 715.804 C 1213.257 709.452 1215.365 702.953 1217.562 696.493 C 1219.69 690.219 1217.453 687.33 1210.666 688.13 C 1212.715 687.662 1214.754 687.057 1216.833 686.735 C 1236.25 683.749 1245.766 672.049 1244.702 652.669 C 1244.367 646.688 1242.062 641.409 1239.609 636.081 C 1241.579 636.676 1242.909 636.656 1244.072 634.432 C 1248.436 625.814 1252.288 616.952 1255.608 607.89 C 1260.543 595.028 1266.444 582.509 1270.601 569.326 Z " fill="rgb(254,192,6)"/><path d=" M 605.883 557.948 C 610.72 555.674 615.852 556.972 620.817 556.972 C 637.89 556.777 654.952 556.874 672.044 556.913 C 681.147 556.913 683.57 559.207 683.531 567.96 C 683.531 577.454 683.275 586.939 683.127 596.434 C 678.94 606.289 674.605 616.096 670.596 626.02 C 661.021 649.723 652.223 673.747 641.929 697.137 C 632.264 719.073 624.196 741.634 614.345 763.492 C 610.552 771.981 608.542 781.525 601.617 788.502 L 601.617 710.623 C 608.769 703.733 610.769 694.151 614.424 685.574 C 626.57 657.012 638.067 628.167 649.78 599.429 C 654.647 587.485 659.454 575.522 664.34 563.588 C 666.114 559.285 664.528 557.997 660.144 558.104 C 650.292 558.348 640.441 558.28 630.521 558.328 L 605.883 557.948 Z " fill="rgb(237,8,132)"/><path d=" M 392.966 818.654 C 373.506 815.146 354.954 807.806 338.409 797.07 C 335.365 795.118 334.863 793.342 336.439 789.956 C 343.788 774.118 350.851 758.154 357.944 742.2 C 360.22 737.067 364.249 734.032 369.224 737.057 C 384.188 746.171 400.581 751.548 417.151 756.652 C 418.825 758.974 423.062 759.716 421.397 764.068 C 414.944 780.861 408.59 797.684 401.083 814.078 C 399.359 817.844 396.788 819.054 392.966 818.654 L 392.966 818.654 Z " fill="rgb(186,1,123)"/><path d=" M 601.607 788.434 C 608.503 781.457 610.542 771.913 614.335 763.424 C 624.127 741.575 632.235 719.015 641.919 697.069 C 652.213 673.649 661.011 649.654 670.586 625.952 C 674.596 616.028 678.93 606.221 683.117 596.365 Q 684.211 630.411 683.117 664.457 C 675.433 657.627 675.965 667.072 674.99 669.336 C 667.71 686.296 661.198 703.577 654.302 720.703 C 642.273 750.553 630.068 780.334 618.088 810.204 C 616.877 813.229 614.867 816.566 617.625 819.962 C 602.484 821.367 601.203 820.284 601.252 805.803 C 601.262 799.997 601.479 794.22 601.607 788.434 L 601.607 788.434 Z " fill="rgb(238,11,127)"/><path d=" M 630.501 558.328 C 640.352 558.28 650.204 558.328 660.124 558.104 C 664.508 557.997 666.094 559.285 664.321 563.588 C 659.395 575.522 654.627 587.485 649.76 599.429 C 638.037 628.167 626.551 657.002 614.404 685.574 C 610.759 694.151 608.759 703.733 601.597 710.623 L 601.597 628.04 C 603.784 627.191 604.72 625.298 605.538 623.346 C 611.045 610.329 617.182 597.517 621.783 584.197 C 624.777 575.62 630.728 567.95 630.501 558.328 L 630.501 558.328 Z " fill="rgb(236,5,139)"/><path d=" M 515.053 812.458 C 503.035 818.967 490.001 821.943 476.505 823.368 C 485.489 816.371 486.356 805.149 490.799 795.85 C 496.868 783.164 501.636 769.796 506.926 756.72 Q 514.167 738.921 521.417 721.132 Q 529.417 701.616 537.455 682.1 C 547.06 686.852 553.73 694.395 558.508 703.743 C 558.508 707.198 555.454 709.188 554.38 712.145 C 542.125 745.888 526.067 778.197 515.053 812.458 L 515.053 812.458 Z " fill="rgb(234,1,144)"/><path d=" M 1095.839 820.011 C 1090.026 820.586 1087.455 817.483 1087.317 812.204 C 1087.189 807.472 1087.524 802.719 1087.652 797.977 C 1090.736 796.708 1091.484 793.693 1092.696 791.146 C 1098.853 778.1 1103.424 764.37 1109.197 751.207 C 1121.157 723.981 1131.363 696.083 1143.135 668.79 C 1153.843 643.965 1164.246 619.024 1173.782 593.711 C 1178.225 581.943 1184.461 570.809 1187.141 558.387 L 1204.125 558.387 C 1196.243 580.323 1184.678 599.839 1179.132 621.649 C 1176.097 622.478 1172.384 620.048 1169.911 623.551 L 1169.852 623.395 C 1165.714 629.348 1168.995 636.081 1167.881 642.345 C 1167.212 648.2 1163.104 652.494 1161.232 657.861 C 1157.518 668.517 1153.252 679.007 1148.918 689.438 C 1141.569 707.149 1133.254 724.499 1126.732 742.493 C 1121.304 757.5 1114.241 771.767 1108.902 786.775 C 1105.119 797.411 1098.902 807.198 1097.375 818.615 L 1095.839 820.011 Z " fill="rgb(247,132,0)"/><path d=" M 1010.595 615.374 C 1015.399 619.037 1019.704 623.301 1023.402 628.06 C 1021.494 628.076 1019.766 629.182 1018.969 630.899 C 1011.511 644.278 1007.255 658.993 1001.66 673.093 C 996.537 685.915 990.971 698.591 986.036 711.501 C 978.362 731.544 969.288 751.07 961.289 771.025 C 954.955 786.755 949.389 802.797 941.981 818.098 C 940.907 820.333 939.863 822.411 941.715 824.685 L 925.608 824.685 C 924.839 823.26 922.101 823.055 923.362 820.352 C 931.509 802.788 937.626 784.413 945.823 766.849 C 949.202 759.608 952.718 752.026 952.827 743.654 C 969.791 733.144 977.455 718.136 975.229 698.337 C 982.657 680.46 989.937 662.525 997.581 644.736 C 1001.798 634.871 1004.665 624.449 1010.595 615.374 L 1010.595 615.374 Z " fill="rgb(241,72,13)"/><path d=" M 617.625 819.962 C 614.867 816.605 616.877 813.268 618.088 810.204 C 630.068 780.334 642.273 750.553 654.302 720.703 C 661.198 703.577 667.7 686.296 674.99 669.336 C 675.975 667.072 675.433 657.627 683.117 664.457 Q 684.201 697.801 683.117 731.144 C 679.965 726.031 683.659 719.795 680.634 714.331 C 678.069 715.941 676.182 718.421 675.325 721.308 C 664.941 751.109 650.696 779.427 640.431 809.296 C 638.225 815.707 637.476 818.752 644.884 819.923 C 635.815 820.698 626.696 820.711 617.625 819.962 L 617.625 819.962 Z " fill="rgb(238,13,122)"/><path d=" M 941.675 824.636 C 939.823 822.362 940.867 820.284 941.941 818.049 C 949.349 802.749 954.915 786.706 961.25 770.976 C 969.269 751.06 978.322 731.534 985.996 711.452 C 990.922 698.542 996.498 685.866 1001.621 673.044 C 1007.255 658.954 1011.541 644.238 1018.998 630.86 C 1019.796 629.143 1021.523 628.037 1023.431 628.021 C 1035.499 638.12 1036.051 642.902 1024.722 653.304 C 1018.959 658.602 1015.205 663.374 1020.289 670.868 C 1017.014 672.691 1014.578 675.698 1013.491 679.26 C 1007.994 697.449 999.158 714.389 992.518 732.129 C 985.977 749.694 978.805 766.966 971.83 784.335 C 970.687 787.165 969.86 789.487 974.106 790.073 C 962.383 792.883 959.053 800.075 960.235 811.785 C 961.269 822.011 955.26 825.368 941.675 824.636 L 941.675 824.636 Z " fill="rgb(241,77,8)"/><path d=" M 1187.131 558.367 C 1184.461 570.78 1178.265 581.914 1173.782 593.682 C 1164.246 618.955 1153.843 643.936 1143.135 668.761 C 1131.363 696.083 1121.157 723.952 1109.197 751.177 C 1103.424 764.341 1098.853 778.071 1092.696 791.117 C 1091.484 793.683 1090.726 796.699 1087.652 797.948 C 1087.007 787.901 1087.007 777.823 1087.652 767.776 C 1091.337 766.01 1092.726 762.653 1094.134 759.14 Q 1103.129 736.521 1112.438 714.077 C 1116.645 703.88 1121.807 693.927 1125.531 683.71 C 1136.022 655.002 1148.75 627.211 1159.596 598.658 C 1164.729 585.134 1170.433 571.824 1175.91 558.416 L 1187.131 558.367 Z " fill="rgb(246,125,0)"/><path d=" M 1023.688 733.525 C 1022.87 736.618 1022.2 739.76 1020.2 742.395 C 1013.945 749.021 1013.905 751.363 1020.023 755.198 L 1020.2 755.373 C 1014.476 768.82 1008.842 782.296 1002.97 795.664 C 1001.827 798.25 1001 800.485 1002.862 802.944 L 1002.862 802.876 L 993.257 801.07 C 988.666 798.143 985.11 794.24 981.859 790.005 C 984.607 788.297 986.962 786.316 988.124 783.115 C 998.961 753.226 1011.511 724.04 1023.993 694.805 C 1025.727 690.736 1030.948 685.886 1025.185 680.763 C 1030.751 680.656 1036.317 680.373 1041.883 680.47 C 1047.055 680.568 1051.104 682.597 1052.512 688.052 C 1054.236 695.995 1048.986 702.143 1045.892 708.261 C 1040.967 718.019 1040.967 733.222 1024.013 732.842 C 1023.914 732.842 1023.796 733.291 1023.688 733.525 L 1023.688 733.525 Z " fill="rgb(242,86,1)"/><path d=" M 846.876 673.474 C 847.004 670.713 848.138 668.092 850.068 666.097 C 852.264 665.238 854.471 663.169 853.023 661.442 C 848.501 655.88 852.678 651.362 854.55 647.029 C 857.87 639.311 860.737 631.475 863.692 623.61 C 865.436 618.975 866.037 610.837 874.913 611.9 C 881.021 615.033 883.858 622.029 890.35 624.703 C 887.759 630.177 884.439 635.202 882.291 640.989 C 876.381 656.709 869.898 672.215 863.347 687.672 C 856.796 703.128 850.54 718.839 845.25 734.832 C 844.777 734.11 844.265 733.379 843.851 732.656 C 836.955 729.544 829.813 731.876 822.809 731.339 L 822.809 731.417 C 829.577 719.317 834 706.212 838.945 693.361 C 841.536 686.754 846.876 681.124 846.876 673.474 L 846.876 673.474 Z " fill="rgb(240,35,76)"/><path d=" M 901.61 620.058 C 907.097 618.282 908.506 614.359 907.816 609.07 C 907.575 606.187 907.575 603.289 907.816 600.405 C 908.161 592.423 912.161 588.364 920.189 588.12 C 924.682 587.983 929.193 588.315 933.696 588.432 C 925.48 589.945 922.997 597.624 921.48 603.206 C 916.14 622.859 906.358 640.657 898.822 659.354 C 889.956 681.397 881.602 703.636 871.691 725.309 C 864.992 739.946 859.219 755.188 853.407 770.274 C 851.191 776.041 847.595 781.925 848.56 788.707 C 847.867 788.328 847.208 787.89 846.59 787.399 C 831.744 773.27 831.724 771.025 845.94 756.7 C 848.117 754.505 851.003 752.797 851.585 749.372 C 851.279 743.137 856.51 739.087 857.89 733.447 C 861.062 720.195 867.238 707.9 872.795 695.703 C 881.552 676.479 887.956 656.368 896.989 637.3 C 899.334 632.343 902.556 627.611 901.541 621.688 L 901.61 620.058 Z " fill="rgb(240,42,63)"/><path d=" M 848.58 788.707 C 847.595 781.876 851.21 776.021 853.427 770.274 C 859.239 755.188 865.012 739.965 871.711 725.309 C 881.621 703.636 890.025 681.397 898.842 659.354 C 906.329 640.657 916.111 622.859 921.5 603.206 C 923.017 597.624 925.499 589.945 933.715 588.432 L 948.147 588.432 C 946 591.291 940.523 588.305 939.606 592.901 C 938.493 598.493 934.533 602.737 932.819 607.938 C 927.105 625.181 920.367 641.984 913.037 658.622 C 911.235 662.711 906.21 667.024 910.082 672.625 C 899.324 681.173 893.64 692.395 892.182 705.851 C 883.168 715.18 881.621 728.07 876.282 739.146 C 867.78 756.798 863.18 776.129 853.506 793.352 C 851.378 792.404 849.64 790.765 848.58 788.707 L 848.58 788.707 Z " fill="rgb(240,45,57)"/><path d=" M 1175.91 558.367 C 1170.453 571.775 1164.729 585.085 1159.596 598.61 C 1148.76 627.162 1136.022 654.953 1125.531 683.661 C 1121.807 693.878 1116.664 703.831 1112.438 714.028 Q 1103.129 736.521 1094.134 759.159 C 1092.726 762.672 1091.337 765.99 1087.652 767.795 C 1087.007 758.276 1087.007 748.724 1087.652 739.204 C 1093.208 737.545 1093.632 732.149 1095.395 728.07 C 1102.794 710.993 1109.818 693.751 1116.881 676.538 C 1123.56 660.291 1130.506 644.131 1136.653 627.679 C 1145.391 604.328 1154.897 581.299 1164.68 558.397 L 1175.91 558.367 Z " fill="rgb(246,120,0)"/><path d=" M 515.053 812.458 C 526.067 778.197 542.125 745.888 554.409 712.125 C 555.483 709.198 558.517 707.178 558.537 703.724 C 574.122 728.704 568.497 768.849 546.006 791.898 C 537.189 800.924 527.161 808.252 515.053 812.458 Z " fill="rgb(236,4,141)"/><path d=" M 1164.68 558.377 C 1154.897 581.299 1145.391 604.328 1136.653 627.66 C 1130.506 644.112 1123.56 660.271 1116.881 676.518 C 1109.818 693.731 1102.794 710.974 1095.395 728.051 C 1093.632 732.129 1093.208 737.526 1087.652 739.185 C 1087.002 729.138 1087.002 719.06 1087.652 709.013 C 1094.479 704.612 1096.055 697.108 1098.567 690.306 C 1109.729 660.056 1123.422 630.782 1134.889 600.717 C 1140.308 586.49 1147.509 572.985 1151.853 558.358 L 1164.68 558.377 Z " fill="rgb(245,115,0)"/><path d=" M 1151.853 558.377 C 1147.509 573.014 1140.308 586.51 1134.889 600.737 C 1123.422 630.841 1109.729 660.076 1098.567 690.326 C 1096.055 697.157 1094.479 704.631 1087.652 709.032 C 1086.997 697.927 1086.997 686.794 1087.652 675.689 C 1090.072 674.526 1091.956 672.496 1092.923 670.01 C 1097.464 659.364 1102.272 648.825 1106.498 638.071 C 1115.788 614.408 1124.742 590.608 1135.214 567.423 C 1136.544 564.495 1137.786 561.656 1137.411 558.377 L 1151.853 558.377 Z " fill="rgb(245,109,0)"/><path d=" M 644.864 819.933 C 637.427 818.762 638.205 815.717 640.412 809.306 C 650.716 779.456 664.922 751.158 675.305 721.318 C 676.162 718.431 678.049 715.951 680.615 714.341 C 683.639 719.805 679.945 726.05 683.097 731.154 C 683.245 733.242 683.491 735.33 683.511 737.428 C 683.669 753.617 683.649 753.548 700.436 753.636 C 720.887 753.734 741.319 753.958 761.77 754.124 C 756.638 756.222 751.229 754.417 746.008 755.217 L 696.269 755.217 C 688.604 754.827 680.073 753.265 677.275 763.238 C 673.443 776.997 666.222 789.37 661.69 802.837 C 656.341 818.752 656.252 818.713 673.808 818.547 C 675.965 818.82 678.379 817.923 680.152 819.933 C 668.402 820.689 656.614 820.689 644.864 819.933 L 644.864 819.933 Z " fill="rgb(239,15,117)"/><path d=" M 1025.195 680.763 C 1030.958 685.886 1025.737 690.736 1024.003 694.805 C 1011.521 724.079 998.971 753.226 988.134 783.115 C 986.972 786.316 984.617 788.297 981.869 790.005 C 979.248 788.424 976.657 788.053 974.096 790.122 C 969.879 789.536 970.677 787.194 971.82 784.384 C 978.805 767.015 985.977 749.714 992.508 732.178 C 999.148 714.409 1007.984 697.498 1013.482 679.309 C 1014.568 675.747 1017.004 672.74 1020.279 670.917 C 1022.486 673.923 1021.51 678.48 1025.195 680.763 L 1025.195 680.763 Z " fill="rgb(242,81,4)"/><path d=" M 696.269 755.227 L 721.882 755.227 C 721.981 758.769 720.463 761.901 719.193 765.063 C 712.72 781.193 706.287 797.343 699.49 813.356 C 698.239 816.283 698.347 818.186 700.928 819.942 C 693.994 820.694 686.997 820.694 680.063 819.942 C 678.29 817.932 675.876 818.83 673.719 818.557 C 673.723 817.24 673.895 815.928 674.231 814.654 C 679.413 802.046 684.969 789.585 689.826 776.87 C 692.594 769.883 696.87 763.209 696.269 755.227 L 696.269 755.227 Z " fill="rgb(239,20,108)"/><path d=" M 701.027 819.933 C 698.446 818.176 698.337 816.322 699.588 813.346 C 706.346 797.333 712.779 781.144 719.291 765.053 C 720.562 761.892 722.079 758.759 721.981 755.217 L 746.047 755.217 C 746.154 758.101 745.542 760.967 744.264 763.56 C 738.038 778.266 731.773 792.971 725.931 807.833 C 722.276 817.152 722.591 817.278 731.536 819.942 C 721.381 820.707 711.182 820.704 701.027 819.933 L 701.027 819.933 Z " fill="rgb(240,23,101)"/><path d=" M 1137.411 558.377 C 1137.786 561.656 1136.544 564.486 1135.214 567.423 C 1124.742 590.608 1115.788 614.408 1106.498 638.071 C 1102.272 648.805 1097.464 659.364 1092.923 670.01 C 1091.956 672.496 1090.072 674.526 1087.652 675.689 C 1086.997 663.519 1086.997 651.324 1087.652 639.155 C 1092.371 638.403 1092.844 634.032 1094.115 630.899 C 1103.907 606.787 1113.384 582.558 1122.969 558.367 L 1137.411 558.377 Z " fill="rgb(244,103,0)"/><path d=" M 476.239 756.554 C 486.248 749.723 487.076 747.772 484.366 737.653 C 488.031 739.38 488.878 737.126 489.657 734.237 C 490.583 730.708 491.734 727.24 493.105 723.855 C 499.675 707.978 506.414 692.17 512.945 676.274 C 513.792 674.215 515.004 671.883 513.428 669.522 C 518.019 668.946 520.422 673.718 524.648 674.01 C 522.59 677.689 520.087 681.202 518.551 685.086 C 512.866 699.44 508.108 714.243 501.882 728.392 C 488.859 758.076 476.397 787.965 465.757 818.576 C 464.915 821.22 463.028 823.413 460.526 824.656 L 452.438 824.656 C 452.364 823.865 452.417 823.068 452.596 822.294 Q 465.353 792.961 478.209 763.697 C 479.648 760.545 481.273 757.774 476.239 756.554 L 476.239 756.554 Z " fill="rgb(214,1,145)"/><path d=" M 1137.411 558.377 L 1108.527 558.377 L 1091.415 558.162 C 1092.755 556.396 1094.716 556.757 1096.538 556.767 Q 1155.961 556.884 1215.394 557.07 C 1217.766 557.218 1220.126 557.521 1222.458 557.977 C 1218.616 569.736 1213.592 581.035 1208.893 592.472 C 1204.952 601.957 1199.465 611.071 1198.381 621.619 L 1179.132 621.619 C 1184.678 599.81 1196.234 580.294 1204.125 558.358 L 1137.411 558.358 L 1137.411 558.377 Z " fill="rgb(248,140,0)"/><path d=" M 952.827 743.605 C 952.699 751.977 949.202 759.559 945.823 766.8 C 937.626 784.364 931.509 802.749 923.362 820.303 C 922.101 823.006 924.839 823.231 925.608 824.636 C 919.332 825.163 912.87 826.168 909.58 818.781 C 910.082 814.097 908.131 808.945 910.565 804.759 C 916.653 794.474 918.82 782.559 924.554 772.294 C 929.479 763.511 928.721 750.68 941.675 747.284 L 952.827 743.605 Z " fill="rgb(241,67,21)"/><path d=" M 731.497 819.942 C 722.552 817.278 722.237 817.152 725.892 807.833 C 731.733 792.971 737.999 778.266 744.225 763.56 C 745.502 760.967 746.115 758.101 746.008 755.217 C 751.229 754.417 756.638 756.193 761.77 754.124 C 774.734 753.88 787.738 752.075 800.624 755.041 L 798.939 755.217 L 782.901 755.217 C 781.307 755.25 779.712 755.195 778.123 755.051 C 769.878 753.861 765.819 756.71 762.804 765.19 C 757.879 779.202 752.687 793.283 745.781 806.613 C 740.501 816.791 741.841 818.606 753.259 818.596 C 755.12 818.596 756.982 818.596 758.844 818.596 C 762.016 819.133 765.504 817.513 768.39 819.981 C 756.104 820.734 743.782 820.721 731.497 819.942 L 731.497 819.942 Z " fill="rgb(240,26,95)"/><path d=" M 442.479 721.884 C 447.404 709.881 452.635 697.986 457.167 685.827 C 459.659 679.153 462.959 672.908 465.806 666.419 C 467.136 663.384 468.328 660.076 466.88 656.612 L 474.958 658.388 C 476.298 659.227 477.599 660.71 478.978 660.788 C 487.509 661.286 487.903 665.901 484.435 671.727 C 477.096 684.061 473.885 698.074 468.319 711.091 C 463.984 721.239 460.112 726.48 448.892 723.416 C 446.645 723.577 444.404 723.042 442.479 721.884 L 442.479 721.884 Z " fill="rgb(192,1,129)"/><path d=" M 537.455 682.071 Q 529.436 701.587 521.417 721.103 Q 514.147 738.882 506.926 756.691 C 501.616 769.766 496.868 783.096 490.799 795.82 C 486.366 805.12 485.489 816.312 476.505 823.338 C 473.55 825.348 470.23 824.626 466.998 824.48 C 470.012 822.757 472.293 820.012 473.422 816.752 C 479.648 801.226 485.824 785.672 492.139 770.206 C 503.32 742.98 514.856 715.892 525.634 688.501 C 527.131 684.686 531.732 680.46 527.87 675.396 C 532.313 675.903 534.086 680.109 537.455 682.071 L 537.455 682.071 Z " fill="rgb(227,1,145)"/><path d=" M 430.135 622.166 C 430.459 620.281 432 618.834 433.918 618.614 C 445.877 616.711 457.679 613.598 470.043 616.516 C 480.219 618.916 482.189 617.14 485.913 607.734 C 491.154 594.55 496.917 581.562 502.532 568.526 C 504.503 563.998 507.143 559.47 500.631 556.289 C 506.226 556.289 511.467 557.889 516.63 559.812 C 517.378 561.766 519.32 563.014 521.427 562.895 C 521.959 562.895 522.481 562.895 523.013 562.983 C 523.181 568.701 518.551 572.331 516.698 577.23 C 511.714 590.462 506 603.411 500.789 616.565 C 499.153 620.702 496.375 622.195 492.178 621.795 C 479.904 619.58 467.659 617.062 455.069 617.501 C 446.551 617.649 438.12 619.226 430.135 622.166 L 430.135 622.166 Z " fill="rgb(190,1,128)"/><path d=" M 798.939 755.217 L 800.624 755.041 C 805.431 755.968 805.825 759.472 805.806 763.414 C 805.746 779.163 805.717 794.923 805.806 810.672 C 805.806 817.171 802.909 820.508 796.289 820.43 C 791.797 820.352 787.305 820.128 782.813 819.972 C 773.158 819.084 775.286 813.951 777.887 807.803 C 785.108 790.346 791.935 772.752 798.939 755.217 L 798.939 755.217 Z " fill="rgb(240,34,81)"/><path d=" M 910.042 672.625 C 906.21 667.024 911.235 662.711 912.998 658.622 C 920.327 641.984 927.066 625.181 932.779 607.938 C 934.494 602.737 938.454 598.493 939.567 592.901 C 940.483 588.305 945.96 591.291 948.108 588.432 C 951.458 587.798 954.275 588.598 956.314 591.447 C 955.41 591.987 954.541 592.584 953.713 593.233 C 949.507 596.951 951.94 602.659 949.271 607.138 C 942.178 619.024 938.887 632.617 933.026 645.087 C 930.789 649.84 928.455 654.514 927.253 659.725 C 926.376 663.511 927.253 665.189 931.4 664.604 C 933.233 664.35 935.104 664.408 936.956 664.321 C 939.557 665.14 942.867 663.345 944.837 666.272 C 932.582 664.857 920.633 665.209 910.042 672.625 L 910.042 672.625 Z " fill="rgb(240,50,49)"/><path d=" M 527.89 675.425 C 531.751 680.49 527.151 684.715 525.653 688.53 C 514.896 715.921 503.36 743.01 492.159 770.235 C 485.805 785.701 479.628 801.256 473.441 816.781 C 472.313 820.041 470.031 822.786 467.018 824.509 L 460.546 824.656 C 463.047 823.413 464.934 821.22 465.777 818.576 C 476.416 787.965 488.878 758.076 501.902 728.392 C 508.118 714.243 512.886 699.479 518.57 685.086 C 520.107 681.183 522.609 677.689 524.668 674.01 C 525.939 673.727 527.248 674.302 527.89 675.425 L 527.89 675.425 Z " fill="rgb(222,1,146)"/><path d=" M 630.501 558.328 C 630.728 567.95 624.777 575.62 621.802 584.197 C 617.202 597.517 611.064 610.329 605.557 623.346 C 604.73 625.298 603.794 627.191 601.617 628.04 C 601.489 607.148 601.39 586.266 601.203 565.374 C 601.203 561.783 602.494 559.275 605.892 557.919 L 630.501 558.328 Z " fill="rgb(235,3,142)"/><path d=" M 448.892 723.445 C 460.112 726.509 463.984 721.269 468.319 711.12 C 473.885 698.084 477.096 684.09 484.435 671.756 C 487.903 665.901 487.509 661.315 478.978 660.817 C 477.599 660.739 476.298 659.256 474.958 658.417 C 484.844 659.839 494.526 662.41 503.803 666.077 C 500.66 672.361 496.503 678.128 494.848 685.154 C 493.886 689.24 492.427 693.194 490.504 696.932 C 484.701 708.105 480.938 720.059 476.377 731.7 L 448.892 723.445 Z " fill="rgb(198,1,135)"/><path d=" M 1010.595 615.374 C 1004.684 624.449 1001.798 634.89 997.581 644.648 C 989.937 662.437 982.657 680.373 975.229 698.249 C 973.16 692.024 970.037 686.286 966.816 680.607 C 968.353 678.831 970.471 677.289 971.338 675.24 C 979.219 656.768 987.326 638.393 994.173 619.56 C 996.252 613.823 998.951 611.344 1004.339 610.505 C 1007.374 610.954 1009.167 612.935 1010.595 615.374 L 1010.595 615.374 Z " fill="rgb(241,68,19)"/><path d=" M 798.939 755.217 C 791.935 772.782 785.147 790.346 777.857 807.774 C 775.296 813.922 773.168 819.054 782.783 819.942 C 778.001 820.679 773.133 820.679 768.351 819.942 C 765.464 817.474 761.977 819.093 758.805 818.557 C 758.805 814.751 760.42 811.404 761.76 807.989 L 782.832 755.227 L 798.939 755.217 Z " fill="rgb(240,30,86)"/><path d=" M 1108.527 558.367 L 1122.969 558.367 C 1113.384 582.558 1103.907 606.787 1094.115 630.899 C 1092.844 634.032 1092.371 638.403 1087.652 639.155 C 1086.997 626.992 1086.997 614.803 1087.652 602.64 C 1090.309 601.345 1092.337 599.056 1093.287 596.278 Q 1100.961 577.337 1108.527 558.367 L 1108.527 558.367 Z " fill="rgb(243,97,0)"/><path d=" M 392.966 818.654 C 396.778 819.054 399.359 817.844 401.083 814.078 C 408.57 797.684 414.944 780.9 421.397 764.068 C 423.071 759.716 418.825 758.974 417.151 756.652 C 419.408 756.276 421.724 756.772 423.623 758.037 C 427.968 761.013 433.238 760.125 437.986 761.404 L 437.986 761.462 C 436.765 765.453 436.016 769.698 434.223 773.406 C 426.588 789.019 421.032 805.305 415.506 821.66 L 410.531 821.543 C 407.526 819.015 403.989 820.567 400.679 820.323 C 398.019 820.362 395.34 820.186 392.966 818.654 Z " fill="rgb(190,2,127)"/><path d=" M 476.377 731.7 C 480.938 720.059 484.701 708.105 490.504 696.932 C 492.427 693.194 493.886 689.24 494.848 685.154 C 496.503 678.128 500.66 672.361 503.803 666.077 C 507.744 665.101 509.931 669.161 513.428 669.522 C 515.004 671.883 513.792 674.215 512.945 676.274 C 506.414 692.17 499.675 707.978 493.105 723.855 C 491.734 727.24 490.583 730.708 489.657 734.237 C 488.878 737.165 488.031 739.38 484.366 737.653 L 476.377 731.7 Z " fill="rgb(205,1,140)"/><path d=" M 846.876 673.474 C 846.876 681.124 841.536 686.754 838.995 693.429 C 834.069 706.261 829.626 719.366 822.858 731.485 C 817.125 730.51 814.888 726.665 814.82 721.405 C 814.691 711.647 814.82 701.889 814.82 692.131 C 814.82 684.705 818.918 681.026 826.109 680.49 C 829.029 680.163 831.977 680.163 834.897 680.49 C 840.935 681.417 845.024 679.397 846.876 673.474 L 846.876 673.474 Z " fill="rgb(240,33,83)"/><path d=" M 476.239 756.554 C 481.273 757.774 479.648 760.545 478.209 763.736 Q 465.265 793.01 452.596 822.333 C 452.417 823.107 452.364 823.904 452.438 824.695 L 441.208 824.695 C 444.803 806.73 453.817 790.707 459.984 773.66 C 464.516 761.13 464.989 761.296 450.803 761.521 L 437.996 761.462 L 437.996 761.462 C 437.996 760.935 437.996 760.408 437.996 759.891 L 461.639 759.764 C 465.009 759.452 468.683 761.218 471.638 758.252 C 473.047 757.208 474.338 756.037 476.239 756.554 Z " fill="rgb(205,1,141)"/><path d=" M 1270.601 569.326 C 1266.483 582.509 1260.583 595.038 1255.696 607.929 C 1252.376 616.991 1248.524 625.854 1244.16 634.471 C 1242.998 636.695 1241.619 636.715 1239.698 636.12 C 1235.905 632.424 1231.666 629.206 1227.078 626.537 C 1230.034 625.259 1234.565 630.226 1236.141 625.405 C 1237.432 621.424 1240.171 617.862 1240.89 614.242 C 1243.412 601.625 1250.337 590.969 1255.095 579.377 C 1259.312 569.111 1258.474 565.979 1249.736 563.022 C 1248.426 562.905 1247.204 562.612 1246.564 561.295 C 1255.292 561.763 1263.085 565.081 1270.601 569.326 L 1270.601 569.326 Z " fill="rgb(253,185,5)"/><path d=" M 545.464 570.975 C 558.34 575.122 558.409 575.249 553.523 586.939 Q 544.794 607.812 536.017 628.674 C 532.658 636.647 529.121 637.681 521.309 633.114 C 526.727 611.403 538.027 591.925 545.464 570.975 Z " fill="rgb(206,2,142)"/><path d=" M 450.803 761.521 C 464.989 761.296 464.516 761.13 459.984 773.66 C 453.817 790.707 444.803 806.73 441.208 824.695 L 437.937 824.695 C 433.09 821.172 426.746 825.748 421.958 821.767 C 424.194 821.826 426.381 821.611 427.199 819.123 C 429.278 812.848 433.11 807.413 435.74 801.363 C 441.346 788.297 445.68 774.772 450.803 761.521 L 450.803 761.521 Z " fill="rgb(199,1,135)"/><path d=" M 936.946 664.311 C 935.094 664.399 933.223 664.311 931.39 664.594 C 927.263 665.16 926.366 663.481 927.243 659.715 C 928.445 654.543 930.78 649.869 933.016 645.078 C 938.877 632.607 942.168 619.014 949.261 607.129 C 951.93 602.65 949.497 596.941 953.704 593.223 C 954.532 592.574 955.4 591.978 956.304 591.438 C 960.875 594.306 960.245 598.932 960.649 603.342 C 961.151 608.387 958.531 613.901 962.767 618.419 C 957.033 617.511 954.482 621.346 952.709 625.571 C 947.29 638.423 942.178 651.381 936.946 664.311 L 936.946 664.311 Z " fill="rgb(241,54,43)"/><path d=" M 853.417 793.352 C 863.091 776.129 867.692 756.798 876.193 739.146 C 881.533 728.07 883.089 715.18 892.093 705.851 L 895.669 723.172 C 889.759 725.484 889.847 731.3 887.719 735.945 C 877.927 757.257 869.82 779.222 861.515 801.119 C 857.949 799.421 855.574 796.504 853.417 793.352 L 853.417 793.352 Z " fill="rgb(240,48,53)"/><path d=" M 861.515 801.119 C 869.82 779.222 877.927 757.208 887.719 735.945 C 889.847 731.3 889.798 725.484 895.669 723.172 L 903.235 734.432 C 899.856 734.52 897.009 736.804 896.487 739.253 C 895.137 745.566 891.345 750.67 889.069 756.466 C 883.651 770.274 880.203 784.852 872.322 797.694 C 870.706 800.338 872.401 800.885 874.509 801.207 C 870.174 804.886 865.83 804.827 861.515 801.119 L 861.515 801.119 Z " fill="rgb(240,51,47)"/><path d=" M 941.715 747.255 C 928.76 750.65 929.479 763.492 924.593 772.264 C 918.859 782.53 916.712 794.445 910.604 804.73 C 908.131 808.916 910.082 814.068 909.619 818.752 C 905.885 811.531 908.466 803.881 908.043 796.435 C 907.816 795.694 907.787 794.484 907.343 794.288 C 900.201 791.595 900.605 787.458 904.654 782.276 C 906.072 780.451 907.452 778.139 907.609 775.934 C 908.269 768.488 913.264 762.663 914.83 755.442 C 915.756 751.158 918.446 746.503 924.563 746.864 L 941.715 747.255 Z " fill="rgb(241,62,29)"/><path d=" M 1004.339 610.544 C 998.951 611.383 996.252 613.862 994.173 619.599 C 987.277 638.432 979.179 656.807 971.338 675.279 C 970.471 677.328 968.382 678.87 966.816 680.646 L 960.757 674.645 C 960.609 672.869 959.299 671.288 960.206 669.297 C 966.944 654.416 972.027 638.833 980.125 624.537 C 983.927 620.634 987.582 616.526 991.582 612.827 C 995.217 609.412 999.414 607.548 1004.339 610.544 L 1004.339 610.544 Z " fill="rgb(241,64,24)"/><path d=" M 545.464 570.975 C 538.027 591.925 526.747 611.403 521.309 633.114 C 516.029 631.777 511.32 629.211 506.581 626.625 C 510.315 626.381 510.738 623.054 512.305 620.722 C 515.782 615.53 515.103 608.846 518.216 603.752 C 525.456 591.818 527.909 577.952 534.549 565.832 C 539.031 565.754 541.691 569.531 545.464 570.975 L 545.464 570.975 Z " fill="rgb(200,1,136)"/><path d=" M 901.61 621.688 C 902.595 627.611 899.403 632.343 897.058 637.3 C 888.025 656.368 881.621 676.479 872.864 695.703 C 867.307 707.9 861.131 720.195 857.959 733.447 C 856.609 739.087 851.348 743.137 851.654 749.372 C 849.821 748.064 848.117 746.679 848.639 744.064 C 849.969 736.121 853.673 729.026 856.353 721.571 C 861.397 707.559 866.854 693.605 872.755 680.07 C 880.39 662.506 886.104 644.219 894.881 627.142 C 896.605 623.786 898.28 622.205 901.61 621.688 L 901.61 621.688 Z " fill="rgb(240,39,69)"/><path d=" M 1095.839 820.011 L 1097.326 818.586 L 1135.815 818.586 C 1141.332 818.713 1147.726 819.933 1149.666 812.819 C 1152.699 802.193 1156.63 791.839 1161.419 781.866 C 1164.443 775.338 1167.015 768.82 1167.822 761.657 C 1168.216 758.193 1166.62 754.046 1171.113 751.899 C 1172.906 751.968 1174.837 751.646 1175.95 753.597 C 1170.817 753.5 1169.379 755.949 1169.468 760.965 C 1169.793 777.553 1169.517 794.23 1169.596 810.858 C 1169.596 816.517 1167.271 820.303 1161.389 820.323 C 1139.579 820.382 1117.689 820.138 1095.839 820.011 L 1095.839 820.011 Z " fill="rgb(252,178,5)"/><path d=" M 1246.525 561.295 C 1247.165 562.612 1248.387 562.905 1249.697 563.022 C 1249.519 564.837 1249.914 566.974 1249.066 568.399 C 1240.446 583.036 1235.422 599.029 1230.063 614.954 C 1228.802 618.702 1226.674 623.005 1222.271 624.927 C 1204.873 622.224 1187.367 623.727 1169.911 623.522 C 1172.384 620.019 1176.097 622.449 1179.132 621.619 L 1206.4 621.619 C 1210.41 620.946 1215.946 624.049 1217.542 617.335 C 1220.005 606.982 1225.423 597.712 1228.743 587.69 C 1231.876 578.323 1238.594 570.126 1238.486 559.694 C 1241.271 559.325 1244.1 559.889 1246.525 561.295 L 1246.525 561.295 Z " fill="rgb(251,168,1)"/><path d=" M 534.529 565.832 C 527.89 577.952 525.437 591.818 518.196 603.752 C 515.103 608.846 515.782 615.53 512.285 620.722 C 510.719 623.054 510.315 626.381 506.561 626.625 L 492.159 621.814 C 496.355 622.214 499.134 620.722 500.769 616.584 C 505.98 603.43 511.694 590.481 516.679 577.249 C 518.531 572.37 523.161 568.721 522.993 563.002 C 526.747 564.271 530.274 566.389 534.48 565.93 L 534.529 565.832 Z " fill="rgb(196,2,133)"/><path d=" M 874.932 611.949 C 866.066 610.876 865.455 619.014 863.712 623.659 C 860.756 631.465 857.89 639.32 854.57 647.078 C 852.698 651.411 848.521 655.929 853.043 661.491 C 854.471 663.247 852.264 665.287 850.087 666.145 C 852.333 662.242 849.871 660.027 847.339 657.47 C 831.163 641.145 831.202 640.882 847.437 624.83 C 851.604 620.722 855.574 616.389 859.998 612.583 C 864.608 608.543 869.751 607.07 874.932 611.949 L 874.932 611.949 Z " fill="rgb(240,33,85)"/><path d=" M 901.61 621.688 C 898.28 622.205 896.605 623.786 894.881 627.142 C 886.104 644.219 880.39 662.545 872.755 680.07 C 866.844 693.605 861.397 707.559 856.353 721.571 C 853.673 729.026 849.969 736.121 848.639 744.064 C 846.625 741.4 845.453 738.204 845.27 734.881 C 850.56 718.888 856.796 703.246 863.367 687.72 C 869.938 672.195 876.44 656.758 882.311 641.038 C 884.468 635.251 887.779 630.226 890.369 624.752 C 893.748 622.341 897.187 620.048 901.61 620.058 L 901.61 621.688 Z " fill="rgb(240,39,69)"/><path d=" M 874.578 801.207 C 872.47 800.885 870.775 800.338 872.391 797.694 C 880.272 784.852 883.68 770.274 889.138 756.466 C 891.414 750.67 895.206 745.566 896.556 739.253 C 897.078 736.804 899.925 734.52 903.304 734.432 L 913.096 742.307 C 905.708 743.283 903.945 749.782 901.955 754.856 C 898.733 763.092 896.743 771.767 892.212 779.554 C 890.754 782.062 888.527 784.852 890.458 788.229 C 883.611 790.766 880.873 798.123 874.578 801.207 L 874.578 801.207 Z " fill="rgb(241,54,41)"/><path d=" M 1175.95 753.587 C 1174.837 751.636 1172.906 751.958 1171.113 751.89 L 1196.785 688.286 L 1206.41 688.286 C 1207.297 693.839 1203.849 697.976 1202.154 702.797 C 1196.243 719.483 1188.126 735.213 1182.333 751.899 C 1180.984 751.899 1179.772 752.26 1179.122 753.607 L 1175.95 753.587 Z " fill="rgb(252,175,2)"/><path d=" M 1002.862 802.944 C 1001.01 800.485 1001.877 798.25 1002.97 795.664 C 1008.881 782.296 1014.476 768.82 1020.2 755.373 C 1020.452 755.457 1020.691 755.575 1020.909 755.725 C 1036.406 769.61 1036.672 772.723 1021.895 786.872 C 1015.925 792.581 1011.6 800.397 1002.862 802.944 L 1002.862 802.944 Z " fill="rgb(243,94,2)"/><path d=" M 890.389 788.238 C 888.419 784.862 890.685 782.071 892.143 779.564 C 896.674 771.757 898.664 763.102 901.886 754.866 C 903.856 749.792 905.639 743.254 913.027 742.317 L 924.563 746.913 C 918.446 746.552 915.756 751.207 914.83 755.49 C 913.264 762.663 908.269 768.488 907.609 775.982 C 907.412 778.188 906.033 780.5 904.654 782.325 C 900.605 787.546 900.201 791.644 907.343 794.337 C 907.787 794.503 907.816 795.742 908.043 796.484 C 902.349 793.235 895.591 792.366 890.389 788.238 L 890.389 788.238 Z " fill="rgb(241,58,35)"/><path d=" M 980.125 624.537 C 972.047 638.833 966.944 654.416 960.206 669.297 C 959.299 671.249 960.609 672.869 960.757 674.645 L 952.935 669.366 C 950.472 666.341 949.33 663.335 951.093 659.285 C 954.846 650.728 958.078 641.945 961.595 633.29 C 966.077 622.254 966.106 622.263 977.455 624.703 L 980.125 624.537 Z " fill="rgb(241,61,31)"/><path d=" M 1238.486 559.694 C 1238.594 570.165 1231.876 578.323 1228.743 587.69 C 1225.394 597.712 1220.005 606.982 1217.542 617.335 C 1215.946 624.049 1210.41 620.946 1206.4 621.619 C 1211.503 601.752 1222.034 583.943 1228.556 564.583 C 1229.669 561.305 1229.196 560.017 1227.265 558.162 C 1231.137 557.723 1234.831 558.572 1238.486 559.694 L 1238.486 559.694 Z " fill="rgb(250,157,0)"/><path d=" M 977.455 624.703 C 966.106 622.263 966.077 622.254 961.595 633.29 C 958.078 641.945 954.846 650.728 951.093 659.285 C 949.33 663.335 950.472 666.341 952.935 669.366 L 944.867 666.301 C 942.808 663.374 939.547 665.121 936.986 664.35 C 942.217 651.43 947.33 638.471 952.748 625.63 C 954.521 621.444 957.073 617.57 962.806 618.477 C 968.165 619.472 973.16 621.239 977.455 624.703 L 977.455 624.703 Z " fill="rgb(241,57,36)"/><path d=" M 1108.527 558.367 Q 1100.912 577.327 1093.287 596.278 C 1092.337 599.056 1090.309 601.345 1087.652 602.64 C 1087.514 590.12 1087.426 577.601 1087.219 565.091 C 1087.055 562.148 1088.712 559.403 1091.406 558.153 L 1108.527 558.367 Z " fill="rgb(243,91,0)"/><path d=" M 1227.255 558.162 C 1229.226 560.017 1229.659 561.305 1228.546 564.583 C 1222.024 583.943 1211.493 601.752 1206.39 621.619 L 1198.371 621.619 C 1199.455 611.071 1204.972 601.957 1208.883 592.472 C 1213.592 581.035 1218.606 569.736 1222.448 557.977 L 1227.255 558.162 Z " fill="rgb(249,149,0)"/><path d=" M 1023.688 733.525 C 1023.796 733.291 1023.914 732.842 1024.022 732.842 C 1040.977 733.222 1040.947 718.058 1045.902 708.261 C 1048.996 702.143 1054.246 695.995 1052.522 688.052 C 1054.227 699.762 1053.448 711.647 1052.976 723.406 C 1052.7 730.002 1047.281 732.276 1041.085 732.647 C 1035.292 732.988 1029.401 731.642 1023.688 733.525 L 1023.688 733.525 Z " fill="rgb(243,97,5)"/><path d=" M 421.958 821.796 C 426.746 825.7 433.09 821.152 437.937 824.724 C 428.155 825.212 418.451 824.987 409.023 821.894 C 409.546 821.832 410.063 821.731 410.57 821.592 L 415.545 821.709 L 421.958 821.796 Z " fill="rgb(205,1,141)"/><path d=" M 822.829 731.388 C 829.833 731.925 837.024 729.592 843.871 732.705 C 836.887 731.827 829.695 734.062 822.829 731.388 L 822.829 731.388 Z " fill="rgb(240,33,83)"/><path d=" M 1020.023 755.198 C 1013.905 751.363 1013.945 749.021 1020.2 742.395 C 1019.845 746.659 1014.358 750.855 1020.023 755.198 Z " fill="rgb(243,94,2)"/><path d=" M 438.026 759.842 C 438.026 760.36 438.026 760.887 438.026 761.413 C 433.277 760.125 428.007 761.013 423.662 758.037 C 428.49 758.154 433.356 758.223 438.026 759.842 Z " fill="rgb(199,1,135)"/><path d=" M 534.5 565.91 C 530.293 566.389 526.767 564.271 523.013 562.983 C 522.481 562.934 521.959 562.905 521.427 562.895 C 521.427 562.358 521.427 561.812 521.427 561.266 C 526.11 561.697 530.607 563.295 534.5 565.91 Z " fill="rgb(200,1,136)"/><path d=" M 993.267 801.07 L 1002.872 802.876 C 999.138 805.052 996.064 803.754 993.267 801.07 L 993.267 801.07 Z " fill="rgb(243,94,2)"/><path d=" M 471.658 758.203 C 468.703 761.13 465.028 759.403 461.659 759.716 C 464.871 758.184 468.279 758.115 471.658 758.203 Z " fill="rgb(214,1,145)"/><path d=" M 410.58 821.543 C 410.073 821.682 409.556 821.783 409.033 821.845 C 406.167 821.904 403.339 821.728 400.748 820.323 C 404.029 820.596 407.565 819.015 410.58 821.543 L 410.58 821.543 Z " fill="rgb(194,1,131)"/><path d=" M 521.447 561.285 C 521.447 561.832 521.447 562.378 521.447 562.915 C 519.34 563.034 517.398 561.786 516.649 559.831 C 518.388 559.576 520.15 560.11 521.447 561.285 Z " fill="rgb(196,2,133)"/><path d=" M 1206.41 688.277 L 1210.715 688.13 C 1217.463 687.33 1219.699 690.219 1217.611 696.493 C 1215.414 702.953 1213.306 709.452 1210.804 715.804 C 1206.981 725.474 1202.085 734.803 1199.071 744.698 C 1196.056 754.593 1188.756 751.441 1182.373 751.89 C 1188.165 735.203 1196.332 719.473 1202.194 702.787 C 1203.849 697.966 1207.297 693.829 1206.41 688.277 L 1206.41 688.277 Z " fill="rgb(253,184,4)"/><path d=" M 1108.557 818.576 L 1097.326 818.576 C 1098.853 807.159 1105.069 797.372 1108.852 786.736 C 1114.192 771.767 1121.255 757.461 1126.683 742.454 C 1133.205 724.46 1141.519 707.11 1148.868 689.399 C 1153.203 678.967 1157.469 668.478 1161.183 657.822 C 1163.054 652.455 1167.162 648.112 1167.832 642.306 Q 1167.832 656.621 1167.832 670.937 C 1165.547 682.051 1159.065 691.497 1155.203 702.036 C 1147.972 721.776 1139.332 741.009 1131.471 760.584 C 1123.708 779.837 1116.192 799.226 1108.557 818.576 Z " fill="rgb(248,138,0)"/><path d=" M 1167.842 670.946 Q 1167.842 656.631 1167.842 642.316 C 1169.005 636.051 1165.724 629.318 1169.812 623.366 Q 1169.684 652.874 1169.527 682.402 C 1169.527 684.549 1169.596 686.608 1171.26 688.257 C 1167.852 688.16 1167.872 685.759 1167.862 683.378 C 1167.891 679.202 1167.862 675.045 1167.842 670.946 L 1167.842 670.946 Z " fill="rgb(249,151,0)"/><path d=" M 696.269 755.227 C 696.86 763.209 692.584 769.864 689.914 776.9 C 685.058 789.585 679.502 802.075 674.32 814.683 C 673.983 815.957 673.811 817.269 673.808 818.586 C 656.252 818.752 656.341 818.791 661.69 802.876 C 666.222 789.409 673.443 777.036 677.275 763.277 C 680.083 753.226 688.614 754.837 696.269 755.227 L 696.269 755.227 Z " fill="rgb(239,17,113)"/><path d=" M 782.901 755.227 L 761.829 807.989 C 760.46 811.404 758.805 814.751 758.874 818.557 C 757.012 818.557 755.15 818.557 753.288 818.557 C 741.861 818.557 740.481 816.752 745.811 806.574 C 752.707 793.244 757.859 779.163 762.834 765.151 C 765.849 756.671 769.907 753.822 778.153 755.012 C 779.73 755.171 781.316 755.243 782.901 755.227 L 782.901 755.227 Z " fill="rgb(240,28,90)"/><path d=" M 421.958 821.796 L 415.545 821.66 C 421.072 805.305 426.628 788.97 434.263 773.406 C 436.085 769.698 436.804 765.453 438.026 761.462 L 450.832 761.521 C 445.71 774.772 441.375 788.297 435.77 801.392 C 433.159 807.462 429.307 812.878 427.229 819.152 C 426.342 821.64 424.194 821.855 421.958 821.796 L 421.958 821.796 Z " fill="rgb(194,1,131)"/><path d=" M 1227.039 626.537 L 1222.271 624.927 C 1226.674 622.976 1228.802 618.702 1230.063 614.954 C 1235.422 599.029 1240.446 583.026 1249.066 568.399 C 1249.914 566.974 1249.519 564.837 1249.697 563.022 C 1258.435 565.949 1259.272 569.111 1255.056 579.377 C 1250.298 590.969 1243.372 601.625 1240.85 614.242 C 1240.131 617.862 1237.393 621.424 1236.102 625.405 C 1234.526 630.226 1230.034 625.279 1227.039 626.537 L 1227.039 626.537 Z " fill="rgb(252,177,3)"/><path d=" M 1167.842 670.946 C 1167.842 675.074 1167.842 679.202 1167.901 683.329 C 1167.901 685.74 1167.901 688.14 1171.3 688.208 L 1171.211 688.208 C 1171.586 695.81 1165.704 701.05 1163.695 707.793 C 1157.892 727.192 1148.494 745.215 1141.312 764.107 C 1134.416 782.335 1126.033 800.046 1119.787 818.567 L 1108.557 818.567 C 1116.192 799.216 1123.708 779.827 1131.481 760.535 C 1139.362 741.019 1147.982 721.776 1155.213 701.987 C 1159.074 691.507 1165.557 682.061 1167.842 670.946 Z " fill="rgb(248,143,0)"/><path d=" M 1187.161 688.286 L 1196.785 688.286 L 1171.103 751.89 C 1166.611 754.007 1168.207 758.154 1167.813 761.648 C 1167.005 768.81 1164.434 775.309 1161.409 781.857 C 1156.621 791.829 1152.689 802.183 1149.657 812.809 C 1147.686 819.923 1141.322 818.664 1135.806 818.576 C 1141.184 798.084 1151.144 779.232 1158.956 759.638 C 1166.709 740.199 1175.29 721.054 1182.412 701.353 C 1183.998 696.981 1188.372 693.585 1187.161 688.286 L 1187.161 688.286 Z " fill="rgb(251,167,0)"/><path d=" M 1187.161 688.286 C 1188.372 693.614 1183.998 696.981 1182.422 701.323 C 1175.3 721.025 1166.719 740.17 1158.966 759.608 C 1151.154 779.202 1141.234 798.016 1135.815 818.547 L 1127.757 818.547 C 1132.683 798.426 1142.928 780.276 1150.139 760.974 C 1157.35 741.673 1166 723.093 1173.369 703.929 C 1175.26 699.05 1178.885 694.171 1177.496 688.257 L 1187.161 688.286 Z " fill="rgb(250,159,0)"/><path d=" M 1177.536 688.286 C 1178.925 694.2 1175.3 699.02 1173.408 703.958 C 1166.039 723.123 1157.37 741.79 1150.179 761.004 C 1142.987 780.217 1132.771 798.436 1127.796 818.576 L 1119.787 818.576 C 1126.033 800.036 1134.377 782.345 1141.312 764.116 C 1148.494 745.225 1157.892 727.202 1163.695 707.803 C 1165.665 701.06 1171.576 695.82 1171.211 688.218 L 1177.536 688.286 Z " fill="rgb(249,151,0)"/></g></svg>