<svg xmlns="http://www.w3.org/2000/svg" viewBox="0 0 640 480" style="isolation:isolate"><defs/><defs><clipPath id="a"><path d="M0 0h640v480H0z"/></clipPath></defs><g clip-path="url(#a)"><ellipse cx="319.22999999999996" cy="347.4822622139852" fill="#F5F5F5" rx="224.22999999999996" ry="124.14999999999998" vector-effect="non-scaling-stroke"/><g fill="#E6E6E6"><path d="M521 328.3l-125 72.2c-1 .5-2.2.5-3.3 0l-180.2-104a1 1 0 010-2l125-72.2c1-.5 2.3-.5 3.3 0l180.3 104a1 1 0 010 2z"/><ellipse cx="230.59999999999997" cy="397.51226221398514" rx="75.08" ry="43.349999999999966" vector-effect="non-scaling-stroke"/><ellipse cx="322.02" cy="347.25226221398515" rx="59.10000000000002" ry="34.120000000000005" vector-effect="non-scaling-stroke"/><ellipse cx="453.4599999999999" cy="392.9922622139853" rx="37.10000000000002" ry="21.420000000000016" vector-effect="non-scaling-stroke"/></g><path fill="#37474F" d="M398.8 271.5v111c0 .8-.5 1.5-1.1 2l-2.4 1.3c-.7.4-1.5.4-2.3 0l-2.3-1.4c-.7-.4-1.1-1.1-1.1-2v-111c0-.6.4-1 1-.6l2.4 1.4c.8.4 1.6.4 2.3 0l2.4-1.4c.6-.3 1 0 1 .7z"/><path fill="#455A64" d="M393 385.7l-2.3-1.3c-.7-.5-1.1-1.2-1.1-2v-111c0-.6.4-1 1-.6l2.4 1.4c.7.4 1.1 1.1 1.2 2v111c0 .6-.5 1-1.1.5z"/><path fill="#37474F" d="M500.3 212.8v111c0 .8-.5 1.5-1.1 2l-2.4 1.3c-.7.4-1.5.4-2.2 0l-2.4-1.4c-.7-.4-1.1-1.1-1.1-1.9v-111c0-.7.5-1 1-.6l2.5 1.4c.7.3 1.5.3 2.2 0l2.4-1.4c.6-.4 1.1 0 1.1.6z"/><path fill="#455A64" d="M494.6 327.1l-2.4-1.4c-.7-.4-1.1-1.1-1.1-1.9v-111c0-.7.5-1 1-.6l2.5 1.4c.6.4 1 1.1 1 2v110.9c0 .6-.4 1-1 .6z"/><path fill="#37474F" d="M262 192.6v111c0 .8-.4 1.5-1 2l-2.4 1.3c-.7.4-1.6.4-2.3 0l-2.3-1.4c-.7-.4-1.1-1.1-1.2-2v-111c0-.6.5-1 1.2-.5l2.4 1.3c.7.4 1.5.4 2.2 0l2.4-1.3c.6-.4 1-.1 1 .6z"/><path fill="#455A64" d="M256.4 306.9l-2.4-1.4c-.7-.4-1-1.2-1.1-2v-111c0-.7.5-1 1-.6l2.5 1.4c.6.5 1 1.2 1 2v110.9c0 .7-.4 1-1 .7z"/><path fill="#EA4345" d="M522.4 220.7v-.8c-.1-1.4-.8-2.7-2-3.5L341.4 113a4.5 4.5 0 00-4.1 0l-110.1 63.6c-1.2.8-2 2.1-2 3.6v.8c0 1.5.8 2.8 2 3.6l179 103.2c1.3.7 2.8.7 4 0l110.2-63.6c1.2-.8 1.9-2.1 2-3.6z"/><path d="M522.4 220.7v-.8c-.1-1.4-.8-2.7-2-3.5L341.4 113a4.5 4.5 0 00-4.1 0l-110.1 63.6c-1.2.8-2 2.1-2 3.6v.8c0 1.5.8 2.8 2 3.6l179 103.2c1.3.7 2.8.7 4 0l110.2-63.6c1.2-.8 1.9-2.1 2-3.6z" opacity="0.6000000000000001"/><path fill="#EA4345" d="M408.2 282.8v5.6c.7 0 1.4-.2 2-.5l110.2-63.6c1.2-.8 1.9-2.1 2-3.6v-.8c-.1-1.2-.7-2.4-1.7-3.2.7.6.6 1.5-.4 2l-110 63.7c-.7.3-1.4.5-2.1.4z"/><path d="M408.2 282.8v5.6c.7 0 1.4-.2 2-.5l110.2-63.6c1.2-.8 1.9-2.1 2-3.6v-.8c-.1-1.2-.7-2.4-1.7-3.2.7.6.6 1.5-.4 2l-110 63.7c-.7.3-1.4.5-2.1.4z" opacity="0.5"/><path fill="#EA4345" d="M520.4 218.7l-110.2 63.7c-1.3.6-2.8.6-4 0L227.1 179a1.2 1.2 0 010-2.3l110-63.7c1.3-.6 2.9-.6 4.1 0l179 103.3a1.2 1.2 0 010 2.3z"/><path d="M520.4 218.7l-110.2 63.7c-1.3.6-2.8.6-4 0L227.1 179a1.2 1.2 0 010-2.3l110-63.7c1.3-.6 2.9-.6 4.1 0l179 103.3a1.2 1.2 0 010 2.3z" opacity="0.4"/><g><path d="M394.7 217.4l-26.1 15c-1 .5-2 .5-3 0l-77-44.4a.9.9 0 010-1.7l26-15c1-.5 2-.5 3 0l77 44.4a.9.9 0 010 1.7z" opacity="0.15"/><path fill="#263238" d="M290.1 183.7c0-.4.3-.7.6-.9l24.6-14.1c.9-.5 2-.5 2.9 0l74.8 43.2c.3.2.6.5.6.9v2.5c0 .4-.3.7-.6.9l-24.5 14.1c-1 .5-2 .5-3 0l-74.8-43.2a1 1 0 01-.6-.8v-2.6z"/><path fill="#37474F" d="M368.5 227.7l24.5-14.1a.9.9 0 000-1.7l-74.8-43.2c-1-.5-2-.5-3 0l-24.4 14.1a.9.9 0 000 1.7l74.8 43.2c.9.5 2 .5 2.9 0z"/><path fill="#263238" d="M367.1 228v2.7c.5 0 1-.2 1.4-.4l24.5-14.1c.3-.2.6-.5.6-.9v-2.5c0 .3-.3.7-.6.8l-24.5 14a3 3 0 01-1.4.4z"/><path fill="#EA4345" d="M294.7 183.8l2.4-1.4 3.3 2-2.4 1.4-3.3-2zm3.8-2.1l2.4-1.4 2.6 1.4-2.4 1.4-2.6-1.5zm.8 4.8l2.4-1.4 2.6 1.5-2.4 1.4-2.6-1.4v-.1zm3-7l2.4-1.4 4.2 2.4-2.5 1.5-4.1-2.4v-.1zm0 4.4l2.5-1.4 2 1.2-2.4 1.4-2-1.2zm.9 4.9l2.4-1.4 2.6 1.5-2.5 1.4-2.6-1.5zm2.5-3l2.4-1.3 2 1.2-2.4 1.4-2-1.2zm.4-8.5l2.4-1.4 3.3 1.9-2.4 1.4-3.3-2v.1zm1 13.7l2.4-1.4 18.7 10.8-2.5 1.5-18.6-10.8zm.7-8.3l2.4-1.4 2 1.2-2.4 1.4-2.1-1.2zm1.3 5.1l2.4-1.4 2 1.2-2.4 1.5-2-1.2zm.8-12.7l2.4-1.4 2 1.2-2.4 1.5-2-1.3zm.8 4.9l2.4-1.4 2 1.2-2.4 1.3-2-1.2zm.4 4.6l2.4-1.4 2 1.2-2.4 1.4-2-1.1zm1.3 5.2l2.5-1.4 2 1.2-2.5 1.4-2-1.2zm.8-12.7l2.4-1.4 2.1 1.2-2.4 1.4-2-1.2zm.8 4.8l2.4-1.4 2.1 1.2-2.4 1.4-2-1.1zm.5 4.7l2.4-1.4 2 1.1-2.4 1.5-2-1.2zm0-14.1l2.4-1.4 2.6 1.5-2.5 1.4-2.5-1.5zm1.3 19.2l2.4-1.4 2 1.2-2.4 1.5-2-1.2zm.8-12.7l2.4-1.4 2 1.2-2.4 1.3-2-1.2v.1zm.8 4.9l2.4-1.4 2 1.1-2.4 1.5-2-1.3zm.4 4.6l2.5-1.4 2 1.2-2.4 1.4-2-1.2zm1.4 5.2l2.4-1.4 2 1.1-2.5 1.5-2-1.2zm.6-18.1l2.5-1.4 2 1.1-2.4 1.5-2-1.2zm.1 5.3l2.5-1.4 2 1.2-2.4 1.4-2-1.2zm.9 4.9l2.4-1.4 2 1.2-2.4 1.4-2-1.2zm.4 4.6l2.4-1.4 2 1.2-2.4 1.5-2-1.2zm1.3 5.2l2.5-1.5 2 1.2-2.5 1.5-2-1.2zm.7-18.1l2.4-1.4 2 1.2-2.4 1.4-2-1.2zm.1 5.4l2.4-1.4 2 1.2-2.3 1.3-2-1.1zm.8 4.8l2.4-1.4 2 1.2-2.4 1.5-2-1.2zm.5 4.7l2.4-1.4 2 1.2-2.4 1.4-2-1.2zm1.3 5.1l2.4-1.4 2 1.2-2.4 1.5-2-1.2zm.7-18l2.4-1.5 2 1.2-2.4 1.5-2-1.2zm0 5.3l2.5-1.4 2 1.2-2.4 1.5-2-1.2zm.4 17.8l2.5-1.4 2.6 1.5-2.5 1.4-2.6-1.5zm.5-13l2.4-1.3 2 1.2-2.4 1.4-2-1.2zm.4 4.7l2.5-1.4 2 1.1-2.5 1.5-2-1.2zm1.4 5.2l2.4-1.4 2 1.2-2.4 1.4-2-1.2zm.6-18.1l2.4-1.4 2 1.1-2.4 1.5-2-1.2zm.1 5.4l2.5-1.4 2 1.2-2.4 1.4-2-1.2zm.8 4.8l2.5-1.4 2 1.2-2.5 1.4-2-1.1zm.1 13.2l2.5-1.4 2.5 1.5-2.4 1.5-2.6-1.5zm.4-8.5l2.4-1.4 2 1.1-2.3 1.4-2-1.2h-.1zm1.3 5.1l2.4-1.4 2 1.2-2.4 1.5-2-1.2zm.8-12.7l2.4-1.4 2 1.2-2.4 1.4-2-1.2zm.8 4.9l2.4-1.4 2 1.1-2.4 1.5-2-1.2zm.4 4.6l2.5-1.4 2 1.2-2.4 1.4-2-1.3zm.1-14l2.5-1.4 2 1.2-2.4 1.4-2-1.3zm.1 22.9l2.4-1.4 2.6 1.5-2.4 1.3-2.6-1.5v.1zm1.2-3.7l2.4-1.4 2 1.2-2.4 1.4-2-1.2zm.8-12.7l2.4-1.4 2 1.2-2.4 1.4-2-1.2zm.8 4.8l2.4-1.4 2 1.2-2.4 1.5-2-1.2zm.4 4.7l2.4-1.4 2 1.2-2.4 1.4-2-1.3zm.1-14l2.4-1.4 2 1.2-2.4 1.4-2-1.2zm.6 23.2l2.4-1.4 3.3 1.9-2.4 1.4-3.3-1.9zm.6-4l2.4-1.4 6.5 3.7-2.4 1.5-6.4-4v.2zm.8-12.7l2.4-1.4 2 1.2-2.4 1.4-2-1.2zm.8 4.8l2.4-1.4 2 1-2.4 1.5-2-1.2v.1zm.5 4.7l2.4-1.4 2 1.2-2.4 1.2-2-1.2v.2zm0-14l2.5-1.4 2 1.2-2.4 1.4-2-1.2zm2 6.4l2.5-1.4 2 1.2-2.4 1.5-2-1.2zm.6 17.9l2.4-1.4 2 1.2-2.4 1.4-2-1.1v-.1zm.3-13l2.4-1.4 2 1.2-2.3 1.2-2-1.2-.1.2zm.4 4.6l2.4-1.4 2 1.1.5.2c.2 0 .4 0 .6-.2l3.2-1.8 2.4 1.4-6.2 3.6-5-2.8h.1zm.1-14l2.4-1.4 2 1.2-2.3 1.2-2-1.2v.2zm2 6.5l2.4-1.4 2 1.2-2.3 1.5-2-1.2zm.6 17.9l2.4-1.4 2 1.2-2.4 1.4-2-1.2zm.2-13l2.4-1.4 2 1.2-2.4 1.4-2-1.2zm2-8.6l2.4-1.4 2 1.2-2.4 1.5-2-1.2zm.6 5.7l2.4-1.4 2 1.2-2.4 1.4-2-1.2zm.5 17.8l2.4-1.4 2 1.2-2.4 1.5-2-1.2zm.4-4.1l2.5-1.4 2 1.2-2.4 1.4-2-1.4v.2zm1.9-17.4l2.4-1.4 2 1.2-2.4 1.4-2-1.2zm.5 5.6l2.4-1.4 3.7 2.1-2.5 1.5-3.6-2.1zm1.3 18.3l2.4-1.4 5.4 3.1-2.4 1.5-5.4-3.2zm.6-12.8l2.4-1.4 2 1.2-2.4 1.4-2-1.2zm1-9.2l2.4-1.4 2 1.2-2.4 1.2-2-1.2v.2zm2.2 19.8l2.4-1.4 2 1.2-2.4 1.4-2-1.2zm.1-8.7l2.5-1.4 2 1.2-2.5 1.4-2-1.1zm.5-4.1l2.4-1.4 2 1.2-2.4 1.4-2-1.2zm.5-5l2.4-1.4 2 1.2-2.4 1.4-2-1.2zm1.8 23.9l2.4-1.4 2 1.2-2.4 1.4-2-1.2zm.4-4.1l2.5-1.4 2 1.2-2.5 1.4-2-1.2zm.2-8.7l2.4-1.4 2 1.2-2.4 1.4-2-1.2zm.3 4.5l2.4-1.4 2 1.2-2.4 1.5-2-1.2zm.1-8.6l2.5-1.4 2 1.1-2.4 1.5-2-1.2zm1.3-4.6l2.4-1.4 2 1.1-2.3 1.2-2-1.2-.1.3zm1 23.4l6.3-3.6 2 1.2-6.2 3.7-2-1.2zm.5-4.1l2.4-1.4 2 1.2-2.3 1.2-2-1.2-.1.2zm.4-4.1l2.5-1.4 2 1.2-2.4 1.4-2-1.5v.3zm.2-8.7l2.4-1.4 2 1.2-2.4 1.4-2-1.2zm.3 4.5l2.4-1.4 2 1.2-2.4 1.5-2-1.2zm1-9.1l2.4-1.4 2 1.2-2.4 1.4-2-1.2zm2 15.2l2.4-1.4 2 1.2-2.4 1.4-2-1.4v.2zm.4-4.1l2.4-1.4 2 1.2-2.4 1.1-2-1.2v.3zm.4-4.2l2.4-1.4 2 1.2-2.4 1.5-2-1.2zm.5-5l2.4-1.4 2.1 1.2-2.4 1.5-2-1.2zm2 15.3l6.2-3.6 2 1.1-6.2 3.7-2-1.2zm.4-4.2l2.4-1.4 2 1.2-2.4 1.5-2-1.2zm.5-4.1l2.4-1.4 2 1.2-2.4 1.1-2-1.1v.2zm2.2-5.2l1-.6 2 1.2-1 .7-2-1.2zm1.1 7.1l2.4-1.4 2 1.2-2.4 1.5-2-1.2zm2.2-5.1l1-.6 2.1 1.1-1 .7-2-1.2zm1.2 7l2.4-1.3 2 1.2-2.4 1.4-2-1.2zm2.2-5.1l1-.6 2 1.2-1 .6-2-1.1v-.1zm3.3 2l1-.7 2.1 1.2-1 .7-2-1.2z"/></g><g><path d="M455 220.3l22.9-13.3-114.8-66.2-23 13.2L455 220.3z" opacity="0.15"/><path fill="#E6E6E6" d="M390 198.7l-16.4-9.5c-1.7-1-2.6-2.2-2.6-3.5v-2.3l15.5-8.7c1-.6 1.5-1.7 1.6-2.8v-20.2l28.6 16.5v20.2c0 1.1-.7 2.2-1.6 2.8l-12.9 7.5c-3.8 2-8.4 2-12.2 0z"/><path fill="#E0E0E0" d="M409.8 192v2.2l5.3-3c1-.6 1.5-1.6 1.6-2.8v-20.2l-5.4-3.1-.4 4.2 3.8 2.2v15.8c0 1.1-.6 2.2-1.6 2.8l-3.3 1.9z"/><path fill="#F5F5F5" d="M414.7 187.3c0 1.1-.6 2.2-1.6 2.8l-10.9 6.3c-3.8 2-8.4 2-12.2 0l-16.4-9.4c-3.4-2-3.4-5.1 0-7.1l10.9-6.4c1-.6 1.5-1.6 1.6-2.8V155l28.6 16.6v15.8z"/><path fill="#EBEBEB" d="M381.2 175.5l3.3-2c1-.6 1.5-1.6 1.6-2.8V155l28.6 16.6v15.8c0 1.1-.6 2.2-1.6 2.8l-3.3 1.9-28.6-16.5zM371 183.4v2.3c0 1.3.9 2.6 2.6 3.5l16.4 9.5c1.8 1 3.8 1.5 5.8 1.5v-2.3c-2 0-4-.5-5.8-1.5l-16.4-9.4c-1.7-1-2.6-2.3-2.6-3.6z"/><path fill="#455A64" d="M460.7 209c-1.3.7-2.7.6-4 0L346.1 145c-1.2-.8-2-2-2-3.5v-97a3.8 3.8 0 015.8-3.3l110.7 63.9c1.2.8 2 2 2 3.5v96.9c0 1.4-.8 2.7-2 3.5z"/><path fill="#37474F" d="M456.7 209L346.1 145c-1.2-.8-2-2-2-3.5v-97c0-1.2.9-1.8 2-1.1l110.6 63.9c1.2.8 2 2 2 3.5v96.9c0 1.3-.8 1.8-2 1.2z"/><path fill="#E0E0E0" d="M457 209.4a3.8 3.8 0 005.6-3.6V195l-3.8 2.2v11c0 1.1-.8 1.7-1.8 1.3z"/><path fill="#FFF" d="M458.8 197.1v11c0 1.2-1 1.8-2 1.1L346 145.3c-1.1-.8-1.9-2-2-3.5v-11l114.8 66.3z"/><path fill="#EA4345" d="M455 188.9v-76.7c-.1-.9-.6-1.7-1.3-2.1L349.1 49.6c-.7-.3-1.3 0-1.3.7V127c0 .9.5 1.7 1.3 2.1l104.6 60.5c.7.4 1.3 0 1.3-.7z"/><path fill="#FFF" d="M455 188.9v-76.7c-.1-.9-.6-1.7-1.3-2.1L349.1 49.6c-.7-.3-1.3 0-1.3.7V127c0 .9.5 1.7 1.3 2.1l104.6 60.5c.7.4 1.3 0 1.3-.7z" opacity="0.5"/><path fill="#455A64" d="M401.4 168.2c1.1.7 1.8 2 1.9 3.3 0 1.2-.9 1.7-2 1.1-1-.7-1.8-2-1.9-3.3 0-1.2 1-1.7 2-1.1z"/><path fill="#263238" d="M458.2 108.9c.3.6.5 1.3.6 2v86.2l3.8-2.2v-86.2c0-.7-.2-1.4-.6-2l-3.8 2.2z"/></g><g><path fill="#455A64" d="M362.1 24.7v-.2-.2l.1-.2V24l.2-.1v-.1l.3-.1c.4-.2.9-.1 1.3.1L493 98.4c1.2.7 2 2 2 3.4v93.9c0 .5-.3 1-.7 1.1l-.1.1H494h-.2l-.7-.1-1.7-1L364 122.1c-1.2-.7-2-2-2-3.3v-94-.2z"/><path fill="#EA4345" d="M362.8 23.6c.4-.2.9-.1 1.3.2l129.1 74.5c1.2.8 2 2 2 3.4v6.4l2.5-1.4v-6.4c0-1.3-.8-2.6-2-3.3L366.6 22.4c-.5-.3-1-.4-1.5-.2-.3.3-2 1.2-2.4 1.4z"/><path fill="#EA4345" d="M362.1 24.9c0-1.2.9-1.7 2-1.1l129.1 74.5c1.2.8 2 2 2 3.4v6.4l-133-76.8v-6.4z"/><g opacity=".5"><path fill="#FFF" d="M364 23.8l129.2 74.5c.6.4 1 .9 1.4 1.5l2.5-1.5a4 4 0 00-1.4-1.4L366.6 22.4c-.5-.3-1-.4-1.5-.2-.3.3-2 1.2-2.3 1.4.4-.2.9-.1 1.3.2z" opacity="0.5"/></g><path d="M497.7 106.6v-6.3a4 4 0 00-.6-2l-2.5 1.4c.4.6.6 1.3.6 2v6.4l2.5-1.5z" opacity="0.15"/><path fill="#455A64" d="M490.8 99.7a3 3 0 011 2.3c0 1-.4 1.4-1 1a3 3 0 01-1.1-2.3c0-1 .5-1.4 1-1zM486.8 97.4c.7.5 1.1 1.4 1.1 2.3 0 1-.5 1.4-1 1a2.9 2.9 0 01-1.2-2.3c0-1 .5-1.4 1.1-1zM482.9 95.1a3 3 0 011 2.4c0 .9-.4 1.4-1 1a3 3 0 01-1.1-2.3c0-1 .4-1.5 1-1z"/><path fill="#263238" d="M494.5 196.8l2.1-1.2a2 2 0 001-1.5v-87.5l-2.5 1.5v87.5c0 .5-.2.9-.6 1.1v.1z" opacity="0.9"/><g><path fill="#EA4345" d="M401.7 64.6l27.2 15.7c.4.2.7.6.7 1.1 0 .4-.3.6-.7.4L401.7 66c-.4-.3-.7-.7-.7-1.2 0-.4.3-.6.7-.3z"/><path fill="#E6E6E6" d="M412 94.6l10.4 6c.4.2.6.6.7 1 0 .5-.4.7-.7.4L412 96.1c-.4-.2-.7-.7-.7-1.1 0-.5.3-.6.7-.4zM412 100.6l10.4 6c.4.2.6.6.7 1.1 0 .4-.4.6-.7.4l-10.3-6c-.4-.2-.7-.7-.7-1.1 0-.5.3-.6.7-.4z"/><path fill="#EA4345" d="M431.6 81.8l54.5 31.4c.4.3.7.7.7 1.2 0 .4-.3.5-.7.3l-54.5-31.4c-.4-.2-.7-.7-.7-1.1 0-.5.3-.6.7-.4zM412.3 136.7l16.6 9.6c.4.3.7.7.7 1.2 0 .4-.3.6-.7.3l-16.6-9.6c-.4-.2-.6-.6-.7-1.1 0-.4.3-.6.7-.4zM431.6 147.9l54.5 31.4c.4.3.7.7.7 1.2 0 .4-.3.6-.7.3l-54.5-31.4c-.4-.3-.7-.7-.7-1.2 0-.4.3-.5.7-.3zM401.7 70.6l13.7 7.9c.4.2.6.6.7 1.1 0 .4-.4.6-.7.4L401.7 72c-.4-.2-.7-.7-.7-1.1 0-.5.3-.6.7-.4z"/><path fill="#FFF" d="M401.7 70.6l13.7 7.9c.4.2.6.6.7 1.1 0 .4-.4.6-.7.4L401.7 72c-.4-.2-.7-.7-.7-1.1 0-.5.3-.6.7-.4z" opacity="0.6000000000000001"/><path fill="#EA4345" d="M401.7 76.6l6.4 3.7c.4.2.7.7.7 1.1 0 .4-.3.6-.7.4l-6.4-3.7c-.4-.2-.7-.7-.7-1.1 0-.5.3-.6.7-.4z"/><path fill="#FFF" d="M401.7 76.6l6.4 3.7c.4.2.7.7.7 1.1 0 .4-.3.6-.7.4l-6.4-3.7c-.4-.2-.7-.7-.7-1.1 0-.5.3-.6.7-.4z" opacity="0.6000000000000001"/><path fill="#EA4345" d="M401.7 88.6l6.4 3.7c.4.2.7.7.7 1.2 0 .4-.3.5-.7.3l-6.4-3.7c-.4-.3-.7-.7-.7-1.2 0-.4.3-.5.7-.3z"/><path fill="#FFF" d="M401.7 88.6l6.4 3.7c.4.2.7.7.7 1.2 0 .4-.3.5-.7.3l-6.4-3.7c-.4-.3-.7-.7-.7-1.2 0-.4.3-.5.7-.3z" opacity="0.6000000000000001"/><path fill="#EA4345" d="M401.7 94.6l6.4 3.7c.4.3.7.7.7 1.2 0 .4-.3.5-.7.3l-6.4-3.7c-.4-.2-.7-.7-.7-1.1 0-.5.3-.6.7-.4z"/><path fill="#FFF" d="M401.7 94.6l6.4 3.7c.4.3.7.7.7 1.2 0 .4-.3.5-.7.3l-6.4-3.7c-.4-.2-.7-.7-.7-1.1 0-.5.3-.6.7-.4z" opacity="0.6000000000000001"/><path fill="#EA4345" d="M418 80l8.3 4.8c.4.2.7.7.7 1.1 0 .5-.3.6-.7.4l-8.2-4.8c-.4-.2-.7-.7-.7-1.1 0-.4.3-.6.7-.4z"/><path fill="#FFF" d="M418 80l8.3 4.8c.4.2.7.7.7 1.1 0 .5-.3.6-.7.4l-8.2-4.8c-.4-.2-.7-.7-.7-1.1 0-.4.3-.6.7-.4z" opacity="0.6000000000000001"/><path fill="#FFF" d="M430.8 123.5l55.3 31.8c.4.3.7.7.7 1.2 0 .4-.3.5-.7.3L430.8 125c-.4-.3-.7-.7-.7-1.2 0-.4.3-.6.7-.3zM477.9 144.5l8.2 4.8c.4.2.7.7.7 1.1 0 .5-.3.6-.7.4L478 146c-.4-.2-.7-.7-.7-1.1 0-.4.3-.6.7-.4zM419.9 111.1l55.3 31.9c.4.2.7.7.7 1.1 0 .4-.3.6-.7.4L420 112.6c-.4-.2-.7-.7-.7-1.1 0-.4.3-.6.7-.4z"/><path fill="#EA4345" d="M412 82.6l13.8 7.9c.4.2.7.6.7 1.1 0 .4-.3.6-.7.4L412.1 84c-.4-.2-.7-.7-.7-1.1 0-.5.3-.6.7-.4z"/><path fill="#FFF" d="M412 82.6l13.8 7.9c.4.2.7.6.7 1.1 0 .4-.3.6-.7.4L412.1 84c-.4-.2-.7-.7-.7-1.1 0-.5.3-.6.7-.4z" opacity="0.6000000000000001"/><path fill="#EA4345" d="M428.5 92l57.2 33.1c.4.3.7.7.7 1.2 0 .4-.3.6-.7.3l-57.2-33c-.4-.3-.7-.8-.7-1.2 0-.4.3-.6.7-.4z"/><path fill="#FFF" d="M428.5 92l57.2 33.1c.4.3.7.7.7 1.2 0 .4-.3.6-.7.3l-57.2-33c-.4-.3-.7-.8-.7-1.2 0-.4.3-.6.7-.4z" opacity="0.6000000000000001"/><path fill="#E6E6E6" d="M412 118.8l74 42.7c.5.2.7.6.8 1.1 0 .4-.3.6-.7.4l-74-42.7c-.4-.3-.7-.7-.7-1.2 0-.4.3-.6.7-.3z"/><path fill="#EA4345" d="M401.7 112.8l6.4 3.7c.4.2.7.6.7 1.1 0 .4-.3.6-.7.4l-6.4-3.7c-.4-.3-.7-.7-.7-1.2 0-.4.3-.6.7-.3z"/><path fill="#FFF" d="M401.7 112.8l6.4 3.7c.4.2.7.6.7 1.1 0 .4-.3.6-.7.4l-6.4-3.7c-.4-.3-.7-.7-.7-1.2 0-.4.3-.6.7-.3z" opacity="0.6000000000000001"/><path fill="#E6E6E6" d="M412 124.8l74 42.7c.5.2.7.6.8 1.1 0 .4-.3.6-.7.4l-74-42.7c-.4-.3-.7-.7-.7-1.2 0-.4.3-.6.7-.3z"/><path fill="#EA4345" d="M401.7 118.8l6.4 3.7c.4.2.7.6.7 1.1 0 .4-.3.6-.7.4l-6.4-3.7c-.4-.3-.7-.7-.7-1.2 0-.4.3-.6.7-.3z"/><path fill="#FFF" d="M401.7 118.8l6.4 3.7c.4.2.7.6.7 1.1 0 .4-.3.6-.7.4l-6.4-3.7c-.4-.3-.7-.7-.7-1.2 0-.4.3-.6.7-.3z" opacity="0.6000000000000001"/><path fill="#E6E6E6" d="M412 130.8l74 42.7c.5.2.7.7.8 1.1 0 .4-.3.6-.7.4l-74-42.7c-.4-.3-.7-.7-.7-1.2 0-.4.3-.5.7-.3z"/><path fill="#EA4345" d="M401.7 124.8l6.4 3.7c.4.2.7.6.7 1.1 0 .4-.3.6-.7.4l-6.4-3.7c-.4-.3-.7-.7-.7-1.2 0-.4.3-.6.7-.3z"/><path fill="#FFF" d="M401.7 124.8l6.4 3.7c.4.2.7.6.7 1.1 0 .4-.3.6-.7.4l-6.4-3.7c-.4-.3-.7-.7-.7-1.2 0-.4.3-.6.7-.3z" opacity="0.6000000000000001"/><g opacity=".6000000000000001"><path fill="#FFF" d="M391.7 58.5l3.8 2.2c.4.3.6.7.6 1.2v1.4c0 .4-.3.6-.7.4l-3.7-2.2c-.4-.3-.7-.7-.7-1.2V59c0-.4.3-.6.7-.4zM391.7 64.6l3.8 2.2c.4.2.6.7.6 1.2v1.4c0 .4-.3.6-.7.4l-3.7-2.2c-.4-.3-.7-.7-.7-1.2V65c0-.4.3-.6.7-.4zM391.7 70.7l3.8 2.1c.4.3.6.8.6 1.2v1.4c0 .5-.3.6-.7.4l-3.7-2.2c-.4-.2-.7-.7-.7-1.1V71c0-.5.3-.6.7-.4zM391.7 76.7l3.8 2.2c.4.3.6.7.6 1.2v1.4c0 .4-.3.6-.7.4l-3.7-2.2c-.4-.3-.7-.7-.7-1.2v-1.4c0-.4.3-.6.7-.4zM391.7 82.8l3.8 2.2c.4.2.6.7.6 1.2v1.3c0 .5-.3.7-.7.4l-3.7-2.1c-.4-.3-.7-.7-.7-1.2v-1.4c0-.4.3-.6.7-.4zM391.7 88.9l3.8 2.1c.4.3.6.7.6 1.2v1.4c0 .5-.3.6-.7.4l-3.7-2.2c-.4-.2-.7-.7-.7-1.2v-1.3c0-.5.3-.7.7-.4zM391.7 95l3.8 2.1c.4.3.6.7.6 1.2v1.4c0 .4-.3.6-.7.4l-3.7-2.2c-.4-.3-.7-.7-.7-1.2v-1.4c0-.4.3-.6.7-.4zM391.7 101l3.8 2.2c.4.2.6.7.6 1.2v1.3c0 .5-.3.7-.7.4l-3.7-2.1c-.4-.3-.7-.7-.7-1.2v-1.4c0-.4.3-.6.7-.4zM391.7 107l3.8 2.2c.4.3.6.7.6 1.2v1.4c0 .4-.3.6-.7.4l-3.7-2.2c-.4-.2-.7-.7-.7-1.2v-1.3c0-.5.3-.7.7-.4zM391.7 113.1l3.8 2.2c.4.3.6.7.6 1.2v1.4c0 .4-.3.6-.7.4l-3.7-2.2c-.4-.2-.7-.7-.7-1.2v-1.4c0-.4.3-.6.7-.4zM391.7 119.2l3.8 2.2c.4.2.6.7.6 1.2v1.3c0 .5-.3.7-.7.4l-3.7-2.2c-.4-.2-.7-.7-.7-1.2v-1.3c0-.5.3-.6.7-.4zM391.7 125.3l3.8 2.1c.4.3.6.7.6 1.2v1.4c0 .4-.3.6-.7.4l-3.7-2.2c-.4-.2-.7-.7-.7-1.2v-1.4c0-.4.3-.6.7-.3z" opacity="0.6000000000000001"/></g><path fill="#37474F" d="M366.6 38.8L387 50.6a3 3 0 011.4 2.4v23.5c0 1-.6 1.3-1.3.8l-20.5-11.7a3 3 0 01-1.3-2.4V39.6c0-.8.6-1.2 1.3-.8z"/><path fill="#EA4345" d="M368.5 62.2l2 1c.3.3.6.8.6 1.2 0 .4-.3.6-.7.4l-1.9-1.1c-.4-.3-.6-.7-.6-1.2 0-.4.3-.5.6-.3z"/><path fill="#FFF" d="M368.5 62.2l2 1c.3.3.6.8.6 1.2 0 .4-.3.6-.7.4l-1.9-1.1c-.4-.3-.6-.7-.6-1.2 0-.4.3-.5.6-.3z" opacity="0.6000000000000001"/><path fill="#EA4345" d="M368.5 42.9l2 1c.3.3.6.8.6 1.2 0 .5-.3.6-.7.4l-1.9-1.1c-.4-.3-.6-.7-.6-1.2 0-.4.3-.5.6-.3z"/><path fill="#FFF" d="M368.5 42.9l2 1c.3.3.6.8.6 1.2 0 .5-.3.6-.7.4l-1.9-1.1c-.4-.3-.6-.7-.6-1.2 0-.4.3-.5.6-.3z" opacity="0.6000000000000001"/><path fill="#EA4345" d="M371.2 48.3l1.9 1c.4.3.6.7.6 1.2 0 .4-.3.6-.6.4l-2-1.1c-.3-.3-.6-.7-.6-1.2 0-.4.3-.5.7-.3z"/><path fill="#FFF" d="M371.2 48.3l1.9 1c.4.3.6.7.6 1.2 0 .4-.3.6-.6.4l-2-1.1c-.3-.3-.6-.7-.6-1.2 0-.4.3-.5.7-.3z" opacity="0.6000000000000001"/><path fill="#EA4345" d="M371.2 52.1l1.9 1.1c.4.3.6.7.6 1.2 0 .4-.3.5-.6.3l-2-1c-.3-.3-.6-.7-.6-1.2 0-.4.3-.6.7-.4z"/><path fill="#FFF" d="M371.2 52.1l1.9 1.1c.4.3.6.7.6 1.2 0 .4-.3.5-.6.3l-2-1c-.3-.3-.6-.7-.6-1.2 0-.4.3-.6.7-.4z" opacity="0.6000000000000001"/><path fill="#EA4345" d="M368.5 54.5l2 1c.3.3.6.7.6 1.2 0 .4-.3.6-.7.4l-1.9-1.1c-.4-.3-.6-.7-.6-1.2 0-.4.3-.6.6-.3z"/><path fill="#FFF" d="M368.5 54.5l2 1c.3.3.6.7.6 1.2 0 .4-.3.6-.7.4l-1.9-1.1c-.4-.3-.6-.7-.6-1.2 0-.4.3-.6.6-.3z" opacity="0.6000000000000001"/><path fill="#EA4345" d="M371.2 59.8L373 61c.4.3.6.7.6 1.2 0 .4-.3.6-.6.3l-2-1c-.3-.3-.6-.7-.6-1.2 0-.4.3-.6.7-.4z"/><path fill="#FFF" d="M371.2 59.8L373 61c.4.3.6.7.6 1.2 0 .4-.3.6-.6.3l-2-1c-.3-.3-.6-.7-.6-1.2 0-.4.3-.6.7-.4z" opacity="0.6000000000000001"/><path fill="#EA4345" d="M373.7 45.9l11.4 6.6c.5.2.7.7.8 1.1 0 .5-.4.6-.8.4l-11.4-6.6c-.4-.3-.7-.7-.7-1.2 0-.4.3-.6.7-.3z"/><path fill="#FFF" d="M373.7 45.9l11.4 6.6c.5.2.7.7.8 1.1 0 .5-.4.6-.8.4l-11.4-6.6c-.4-.3-.7-.7-.7-1.2 0-.4.3-.6.7-.3z" opacity="0.8"/><path fill="#EA4345" d="M373.7 65.1l11.4 6.7c.5.2.7.6.8 1.1 0 .4-.4.6-.8.4l-11.4-6.7c-.4-.2-.7-.7-.7-1.1 0-.4.3-.6.7-.4z"/><path fill="#FFF" d="M373.7 65.1l11.4 6.7c.5.2.7.6.8 1.1 0 .4-.4.6-.8.4l-11.4-6.7c-.4-.2-.7-.7-.7-1.1 0-.4.3-.6.7-.4z" opacity="0.8"/><path fill="#EA4345" d="M376.4 51.2l8.8 5.1c.4.3.7.7.7 1.2 0 .4-.3.6-.7.4l-8.8-5.2c-.4-.2-.7-.6-.7-1.1 0-.4.2-.6.7-.4z"/><path fill="#FFF" d="M376.4 51.2l8.8 5.1c.4.3.7.7.7 1.2 0 .4-.3.6-.7.4l-8.8-5.2c-.4-.2-.7-.6-.7-1.1 0-.4.2-.6.7-.4z" opacity="0.8"/><path fill="#EA4345" d="M376.4 55.1l8.8 5.1c.4.3.7.7.7 1.2 0 .4-.3.6-.7.3l-8.8-5.1c-.4-.2-.7-.7-.7-1.1 0-.5.2-.6.7-.4z"/><path fill="#FFF" d="M376.4 55.1l8.8 5.1c.4.3.7.7.7 1.2 0 .4-.3.6-.7.3l-8.8-5.1c-.4-.2-.7-.7-.7-1.1 0-.5.2-.6.7-.4z" opacity="0.8"/><path fill="#EA4345" d="M373.7 57.4l11.4 6.7c.5.2.7.6.8 1.1 0 .4-.4.6-.8.4l-11.4-6.7c-.4-.2-.7-.6-.7-1.1 0-.4.3-.6.7-.4z"/><path fill="#FFF" d="M373.7 57.4l11.4 6.7c.5.2.7.6.8 1.1 0 .4-.4.6-.8.4l-11.4-6.7c-.4-.2-.7-.6-.7-1.1 0-.4.3-.6.7-.4z" opacity="0.8"/><path fill="#EA4345" d="M376.4 62.8l8.8 5.1c.4.3.7.7.7 1.2 0 .4-.3.5-.7.3l-8.8-5c-.4-.3-.7-.8-.7-1.2 0-.4.2-.6.7-.4z"/><path fill="#FFF" d="M376.4 62.8l8.8 5.1c.4.3.7.7.7 1.2 0 .4-.3.5-.7.3l-8.8-5c-.4-.3-.7-.8-.7-1.2 0-.4.2-.6.7-.4z" opacity="0.8"/><path fill="#37474F" d="M366.6 70L387 81.8a3 3 0 011.4 2.3v46.6c0 .8-.6 1.2-1.3.8l-20.5-11.8a3 3 0 01-1.3-2.4V70.8c0-.9.6-1.2 1.3-.8z"/><path fill="#EA4345" d="M368.5 74l2 1.1c.3.3.6.7.6 1.2 0 .4-.3.5-.7.3l-1.9-1c-.4-.3-.6-.7-.6-1.2 0-.4.3-.6.6-.4z"/><path fill="#FFF" d="M368.5 74l2 1.1c.3.3.6.7.6 1.2 0 .4-.3.5-.7.3l-1.9-1c-.4-.3-.6-.7-.6-1.2 0-.4.3-.6.6-.4z" opacity="0.6000000000000001"/><path fill="#EA4345" d="M371.2 79.4l1.9 1.1c.4.3.6.7.6 1.2 0 .4-.3.5-.6.3l-2-1c-.3-.3-.6-.8-.6-1.2 0-.4.3-.6.7-.4z"/><path fill="#FFF" d="M371.2 79.4l1.9 1.1c.4.3.6.7.6 1.2 0 .4-.3.5-.6.3l-2-1c-.3-.3-.6-.8-.6-1.2 0-.4.3-.6.7-.4z" opacity="0.6000000000000001"/><path fill="#EA4345" d="M371.2 83.3l1.9 1c.4.3.6.7.6 1.2 0 .4-.3.6-.6.4l-2-1.1c-.3-.3-.6-.7-.6-1.2 0-.4.3-.6.7-.3z"/><path fill="#FFF" d="M371.2 83.3l1.9 1c.4.3.6.7.6 1.2 0 .4-.3.6-.6.4l-2-1.1c-.3-.3-.6-.7-.6-1.2 0-.4.3-.6.7-.3z" opacity="0.6000000000000001"/><path fill="#EA4345" d="M368.5 85.6l2 1.1c.3.3.6.7.6 1.2 0 .4-.3.5-.7.3l-1.9-1c-.4-.3-.6-.8-.6-1.2 0-.4.3-.6.6-.4z"/><path fill="#FFF" d="M368.5 85.6l2 1.1c.3.3.6.7.6 1.2 0 .4-.3.5-.7.3l-1.9-1c-.4-.3-.6-.8-.6-1.2 0-.4.3-.6.6-.4z" opacity="0.6000000000000001"/><path fill="#EA4345" d="M373.7 77l11.4 6.6c.5.3.7.7.8 1.2 0 .4-.4.6-.8.3l-11.4-6.6c-.4-.2-.7-.7-.7-1.1 0-.4.3-.6.7-.4z"/><path fill="#FFF" d="M373.7 77l11.4 6.6c.5.3.7.7.8 1.2 0 .4-.4.6-.8.3l-11.4-6.6c-.4-.2-.7-.7-.7-1.1 0-.4.3-.6.7-.4z" opacity="0.8"/><path fill="#EA4345" d="M376.4 82.4l8.8 5.1c.4.2.7.7.7 1.2 0 .4-.3.5-.7.3l-8.8-5.1c-.4-.3-.7-.7-.7-1.2 0-.4.2-.5.7-.3z"/><path fill="#FFF" d="M376.4 82.4l8.8 5.1c.4.2.7.7.7 1.2 0 .4-.3.5-.7.3l-8.8-5.1c-.4-.3-.7-.7-.7-1.2 0-.4.2-.5.7-.3z" opacity="0.8"/><path fill="#EA4345" d="M376.4 86.3l8.8 5c.4.3.7.7.7 1.2 0 .4-.3.6-.7.4l-8.8-5.1c-.4-.3-.7-.7-.7-1.2 0-.4.2-.6.7-.3z"/><path fill="#FFF" d="M376.4 86.3l8.8 5c.4.3.7.7.7 1.2 0 .4-.3.6-.7.4l-8.8-5.1c-.4-.3-.7-.7-.7-1.2 0-.4.2-.6.7-.3z" opacity="0.8"/><path fill="#EA4345" d="M373.7 88.6l11.4 6.6c.5.3.7.7.8 1.2 0 .4-.4.5-.8.3l-11.4-6.6c-.4-.2-.7-.7-.7-1.1 0-.5.3-.6.7-.4z"/><path fill="#FFF" d="M373.7 88.6l11.4 6.6c.5.3.7.7.8 1.2 0 .4-.4.5-.8.3l-11.4-6.6c-.4-.2-.7-.7-.7-1.1 0-.5.3-.6.7-.4z" opacity="0.8"/><path fill="#EA4345" d="M371.2 91l1.9 1.1c.4.3.6.7.6 1.2 0 .4-.3.5-.6.3l-2-1c-.3-.3-.6-.8-.6-1.2 0-.4.3-.6.7-.4z"/><path fill="#FFF" d="M371.2 91l1.9 1.1c.4.3.6.7.6 1.2 0 .4-.3.5-.6.3l-2-1c-.3-.3-.6-.8-.6-1.2 0-.4.3-.6.7-.4z" opacity="0.6000000000000001"/><path fill="#EA4345" d="M371.2 94.9l1.9 1c.4.3.6.7.6 1.2 0 .4-.3.6-.6.4l-2-1.1c-.3-.3-.6-.7-.6-1.2 0-.4.3-.6.7-.3z"/><path fill="#FFF" d="M371.2 94.9l1.9 1c.4.3.6.7.6 1.2 0 .4-.3.6-.6.4l-2-1.1c-.3-.3-.6-.7-.6-1.2 0-.4.3-.6.7-.3z" opacity="0.6000000000000001"/><path fill="#EA4345" d="M376.4 94l8.8 5c.4.3.7.8.7 1.2 0 .5-.3.6-.7.4l-8.8-5.1c-.4-.3-.7-.7-.7-1.2 0-.4.2-.5.7-.3z"/><path fill="#FFF" d="M376.4 94l8.8 5c.4.3.7.8.7 1.2 0 .5-.3.6-.7.4l-8.8-5.1c-.4-.3-.7-.7-.7-1.2 0-.4.2-.5.7-.3z" opacity="0.8"/><path fill="#EA4345" d="M376.4 97.8l8.8 5.2c.4.2.7.6.7 1.1 0 .4-.3.6-.7.4l-8.8-5.2c-.4-.2-.7-.6-.7-1.1 0-.4.2-.6.7-.4z"/><path fill="#FFF" d="M376.4 97.8l8.8 5.2c.4.2.7.6.7 1.1 0 .4-.3.6-.7.4l-8.8-5.2c-.4-.2-.7-.6-.7-1.1 0-.4.2-.6.7-.4z" opacity="0.8"/><path fill="#EA4345" d="M368.5 105l2 1c.3.3.6.7.6 1.2 0 .4-.3.6-.7.3l-1.9-1c-.4-.3-.6-.7-.6-1.2 0-.4.3-.6.6-.3z"/><path fill="#FFF" d="M368.5 105l2 1c.3.3.6.7.6 1.2 0 .4-.3.6-.7.3l-1.9-1c-.4-.3-.6-.7-.6-1.2 0-.4.3-.6.6-.3z" opacity="0.6000000000000001"/><path fill="#EA4345" d="M373.7 108l11.4 6.6c.5.2.7.6.8 1.1 0 .4-.4.6-.8.4l-11.4-6.7c-.4-.2-.7-.6-.7-1.1 0-.4.3-.6.7-.4z"/><path fill="#FFF" d="M373.7 108l11.4 6.6c.5.2.7.6.8 1.1 0 .4-.4.6-.8.4l-11.4-6.7c-.4-.2-.7-.6-.7-1.1 0-.4.3-.6.7-.4z" opacity="0.8"/><path fill="#EA4345" d="M371.2 110.4l1.9 1c.4.3.6.7.6 1.2 0 .4-.3.6-.6.3l-2-1c-.3-.3-.6-.7-.6-1.2 0-.4.3-.6.7-.3z"/><path fill="#FFF" d="M371.2 110.4l1.9 1c.4.3.6.7.6 1.2 0 .4-.3.6-.6.3l-2-1c-.3-.3-.6-.7-.6-1.2 0-.4.3-.6.7-.3z" opacity="0.6000000000000001"/><path fill="#EA4345" d="M371.2 114.2l1.9 1c.4.3.6.8.6 1.2 0 .5-.3.6-.6.4l-2-1.1c-.3-.3-.6-.7-.6-1.1 0-.5.3-.6.7-.4z"/><path fill="#FFF" d="M371.2 114.2l1.9 1c.4.3.6.8.6 1.2 0 .5-.3.6-.6.4l-2-1.1c-.3-.3-.6-.7-.6-1.1 0-.5.3-.6.7-.4z" opacity="0.6000000000000001"/><path fill="#EA4345" d="M376.4 113.3l8.8 5.1c.4.3.7.7.7 1.2 0 .4-.3.6-.7.3l-8.8-5c-.4-.3-.7-.8-.7-1.2 0-.4.2-.6.7-.4z"/><path fill="#FFF" d="M376.4 113.3l8.8 5.1c.4.3.7.7.7 1.2 0 .4-.3.6-.7.3l-8.8-5c-.4-.3-.7-.8-.7-1.2 0-.4.2-.6.7-.4z" opacity="0.8"/><path fill="#EA4345" d="M376.4 117.2l8.8 5c.4.3.7.8.7 1.2 0 .5-.3.6-.7.4l-8.8-5.1c-.4-.3-.7-.7-.7-1.2 0-.4.2-.5.7-.3z"/><path fill="#FFF" d="M376.4 117.2l8.8 5c.4.3.7.8.7 1.2 0 .5-.3.6-.7.4l-8.8-5.1c-.4-.3-.7-.7-.7-1.2 0-.4.2-.5.7-.3z" opacity="0.8"/><path fill="#EA4345" d="M371.2 98.7l1.9 1c.4.3.6.8.6 1.2 0 .4-.3.6-.6.4l-2-1.1c-.3-.3-.6-.7-.6-1.2 0-.4.3-.5.7-.3z"/><path fill="#FFF" d="M371.2 98.7l1.9 1c.4.3.6.8.6 1.2 0 .4-.3.6-.6.4l-2-1.1c-.3-.3-.6-.7-.6-1.2 0-.4.3-.5.7-.3z" opacity="0.6000000000000001"/><path fill="#EA4345" d="M368.5 101l2 1.1c.3.3.6.7.6 1.2 0 .4-.3.6-.7.3l-1.9-1c-.4-.3-.6-.7-.6-1.2 0-.4.3-.6.6-.4z"/><path fill="#FFF" d="M368.5 101l2 1.1c.3.3.6.7.6 1.2 0 .4-.3.6-.7.3l-1.9-1c-.4-.3-.6-.7-.6-1.2 0-.4.3-.6.6-.4z" opacity="0.6000000000000001"/><path fill="#EA4345" d="M376.4 101.7l8.8 5c.4.3.7.8.7 1.2 0 .4-.3.6-.7.4l-8.8-5.1c-.4-.3-.7-.7-.7-1.2 0-.4.2-.5.7-.3z"/><path fill="#FFF" d="M376.4 101.7l8.8 5c.4.3.7.8.7 1.2 0 .4-.3.6-.7.4l-8.8-5.1c-.4-.3-.7-.7-.7-1.2 0-.4.2-.5.7-.3z" opacity="0.8"/><path fill="#EA4345" d="M373.7 104l11.4 6.6c.5.3.7.7.8 1.2 0 .4-.4.6-.8.3l-11.4-6.6c-.4-.2-.7-.7-.7-1.1 0-.4.3-.6.7-.4z"/><path fill="#FFF" d="M373.7 104l11.4 6.6c.5.3.7.7.8 1.2 0 .4-.4.6-.8.3l-11.4-6.6c-.4-.2-.7-.7-.7-1.1 0-.4.3-.6.7-.4z" opacity="0.8"/><path fill="#EA4345" d="M368.5 116.6l2 1c.3.3.6.8.6 1.2 0 .5-.3.6-.7.4l-1.9-1c-.4-.3-.6-.8-.6-1.2 0-.5.3-.6.6-.4z"/><path fill="#FFF" d="M368.5 116.6l2 1c.3.3.6.8.6 1.2 0 .5-.3.6-.7.4l-1.9-1c-.4-.3-.6-.8-.6-1.2 0-.5.3-.6.6-.4z" opacity="0.6000000000000001"/><path fill="#EA4345" d="M373.7 119.6l11.4 6.6c.5.2.7.7.8 1.2 0 .4-.4.5-.8.3l-11.4-6.6c-.4-.2-.7-.7-.7-1.1 0-.5.3-.6.7-.4z"/><path fill="#FFF" d="M373.7 119.6l11.4 6.6c.5.2.7.7.8 1.2 0 .4-.4.5-.8.3l-11.4-6.6c-.4-.2-.7-.7-.7-1.1 0-.5.3-.6.7-.4z" opacity="0.8"/></g></g><g><g opacity=".8"><path fill="#455A64" d="M480.1 135.4v76.4c.1 1.1.7 2.1 1.6 2.7l44 25.4.4.1h.5l.1-.1c.2-.1.3-.3.3-.4.2-.3.2-.6.2-.8v-76c0-1.2-.6-2.2-1.6-2.8l-43.9-25.3c-.3-.2-.7-.3-1-.1h-.2v.2l-.1.1-.1.2V135.3l-.2.1z" opacity="0.8"/></g><path fill="#EA4345" d="M480.7 134.4c.3-.2.7-.1 1 .1l44 25.3c.9.6 1.4 1.6 1.5 2.7v5.2l2.5-1.4V161c0-1-.6-2.1-1.6-2.7L484.3 133c-.4-.2-.8-.3-1.2 0-.3 0-2 1-2.4 1.3z"/><path fill="#EA4345" d="M480.2 135.4c0-1 .7-1.4 1.5-.9l44 25.3c.9.6 1.4 1.6 1.5 2.7v5.2l-47-27v-5.3z"/><g opacity=".5"><path fill="#FFF" d="M481.7 134.5l44 25.3c.4.3.8.7 1 1.2l2.6-1.5-1.1-1.1-44-25.3c-.3-.2-.7-.3-1 0l-2.5 1.3c.3-.1.7-.1 1 .1z" opacity="0.5"/></g><path d="M529.7 166.3V161c0-.5-.1-1-.4-1.6l-2.6 1.5c.3.4.5 1 .5 1.6v5.1l2.5-1.4z" opacity="0.15"/><path fill="#455A64" d="M524.9 162c.6.4 1 1 .9 1.8 0 .8-.4 1.2-.9.9-.6-.5-1-1.2-.9-2 0-.7.4-1 .9-.8zM521.7 160c.6.5.9 1.2.9 2 0 .7-.4 1.1-1 .8-.5-.4-.8-1.1-.8-1.9 0-.8.4-1.1.9-.8zM518.5 158.2c.5.5.9 1.2.9 2 0 .7-.4 1-1 .8-.5-.5-.8-1.2-.8-2 0-.7.4-1 .9-.8z"/><g opacity=".9"><path fill="#37474F" d="M526.6 239.9l.2-.1.5-.3.3-.2.4-.2.8-.5.2-.1.3-.2.2-.3.2-.9v-70.8l-2.5 1.4v70.8c0 .3 0 .6-.2.8 0 .2-.2.3-.3.5z" opacity="0.9"/></g><path fill="#EA4345" d="M483.8 149.4v-.2l1.2-1h.2v1.3h-.1l-.6.6.6 1.3V152.7l-1.2-2.4-.1-.3v-.6zM488 148.3v-.2h.2l.4.3.1.1v.2l-2 6.1v.1h-.2l-.4-.2-.1-.1v-.2l2-6.1zM491 154.1v.2l-1.2 1h-.2v-1-.2l.1-.2.6-.5-.6-1.3v-.2-1-.1l1.2 2.4.1.3v.6zM494.2 157.2V158.4c.1 0 .1.1 0 .2l-.6-.3v-.2-1c-.1 0-.1 0 0-.1l.6.2zM496 158.3V159.5c.1 0 .1 0 0 .1l-.6-.3v-.1l-.1-.2v-.9-.1h.1l.6.3zM497.8 159.3v1.3c.1 0 .1 0 0 0l-.6-.3v-.1l-.1-.2v-.9-.1h.1l.6.3zM484.3 156.3l26.3 15.2c.4.2.6.6.6 1 0 .3-.2.4-.6.2l-26.3-15.2c-.3-.2-.6-.5-.6-1 0-.3.3-.4.6-.2z"/><path fill="#E6E6E6" d="M492.7 175.8l26.4 15.3c.3.2.5.5.6.9 0 .3-.3.5-.6.3L492.7 177c-.3-.3-.5-.6-.5-1 0-.3.2-.4.5-.3zM492.7 185.6l12.7 7.3c.3.2.5.5.5 1 0 .3-.2.4-.5.2l-12.6-7.3c-.4-.2-.6-.5-.6-1 0-.3.2-.4.5-.2z"/><path fill="#EA4345" d="M512.8 172.8l10.5 6c.4.2.6.5.6.9 0 .3-.3.5-.6.3l-10.5-6c-.3-.2-.5-.6-.5-1 0-.3.2-.4.5-.2zM484.3 210l26.3 15.2c.4.2.6.6.6 1 0 .3-.2.4-.6.3l-26.3-15.3c-.3-.2-.6-.5-.6-1 0-.2.3-.4.6-.2zM512.8 226.5l10.5 6c.4.2.6.5.6 1 0 .3-.3.4-.6.2l-10.5-6c-.3-.2-.5-.5-.5-1 0-.3.2-.4.5-.2zM512.8 211.9l10.5 6c.4.2.6.5.6.9 0 .3-.3.5-.6.3l-10.5-6c-.3-.2-.5-.6-.5-1 0-.3.2-.4.5-.2zM512.8 216.8l10.5 6c.4.2.6.5.6.9 0 .3-.3.5-.6.3l-10.5-6c-.3-.2-.5-.6-.5-1 0-.3.2-.4.5-.2zM503.9 206.7l5.9 3.4c.3.2.5.5.5 1 0 .3-.2.4-.5.2l-6-3.4c-.3-.2-.5-.6-.5-1 0-.3.3-.4.6-.2zM484.3 161.2l15.4 8.9c.3.2.5.5.5.9 0 .3-.2.5-.5.3l-15.4-8.9c-.3-.2-.6-.5-.6-1 0-.3.3-.4.6-.2z"/><path fill="#FFF" d="M484.3 161.2l15.4 8.9c.3.2.5.5.5.9 0 .3-.2.5-.5.3l-15.4-8.9c-.3-.2-.6-.5-.6-1 0-.3.3-.4.6-.2z" opacity="0.6000000000000001"/><path fill="#EA4345" d="M484.3 166l5.2 3c.3.3.5.6.6 1 0 .3-.3.5-.6.3l-5.2-3c-.3-.2-.6-.6-.6-1 0-.3.3-.4.6-.2z"/><path fill="#FFF" d="M484.3 166l5.2 3c.3.3.5.6.6 1 0 .3-.3.5-.6.3l-5.2-3c-.3-.2-.6-.6-.6-1 0-.3.3-.4.6-.2z" opacity="0.6000000000000001"/><path fill="#EA4345" d="M484.3 171l5.2 3c.3.1.5.5.6.9 0 .3-.3.4-.6.3l-5.2-3c-.3-.2-.6-.6-.6-1 0-.3.3-.4.6-.3z"/><path fill="#FFF" d="M484.3 171l5.2 3c.3.1.5.5.6.9 0 .3-.3.4-.6.3l-5.2-3c-.3-.2-.6-.6-.6-1 0-.3.3-.4.6-.3z" opacity="0.6000000000000001"/><path fill="#EA4345" d="M484.3 175.8l5.2 3c.3.2.5.6.6 1 0 .3-.3.4-.6.3l-5.2-3c-.3-.3-.6-.6-.6-1 0-.3.3-.4.6-.3z"/><path fill="#FFF" d="M484.3 175.8l5.2 3c.3.2.5.6.6 1 0 .3-.3.4-.6.3l-5.2-3c-.3-.3-.6-.6-.6-1 0-.3.3-.4.6-.3z" opacity="0.6000000000000001"/><path fill="#EA4345" d="M492.7 180.7l15.4 8.9c.3.2.6.5.6 1 0 .3-.3.4-.6.2l-15.4-8.9c-.3-.2-.5-.5-.5-1 0-.2.2-.4.5-.2zM510.3 190.8l6.7 4c.3.1.5.5.5.9 0 .3-.2.4-.5.2l-6.7-3.8c-.3-.2-.5-.6-.6-1 0-.3.3-.4.6-.3z" opacity="0.6000000000000001"/><path fill="#FFF" d="M492.7 180.7l15.4 8.9c.3.2.6.5.6 1 0 .3-.3.4-.6.2l-15.4-8.9c-.3-.2-.5-.5-.5-1 0-.2.2-.4.5-.2zM510.3 190.8l6.7 4c.3.1.5.5.5.9 0 .3-.2.4-.5.2l-6.7-3.8c-.3-.2-.5-.6-.6-1 0-.3.3-.4.6-.3z" opacity="0.6000000000000001"/><path fill="#EA4345" d="M484.3 180.7l5.2 3c.3.2.5.6.6 1 0 .3-.3.4-.6.2l-5.2-3c-.3-.2-.6-.5-.6-.9 0-.3.3-.5.6-.3z"/><path fill="#FFF" d="M484.3 180.7l5.2 3c.3.2.5.6.6 1 0 .3-.3.4-.6.2l-5.2-3c-.3-.2-.6-.5-.6-.9 0-.3.3-.5.6-.3z" opacity="0.6000000000000001"/><path fill="#EA4345" d="M501.8 171.3l6.7 3.9c.4.2.6.5.6 1 0 .3-.3.4-.6.2l-6.7-3.9c-.3-.2-.5-.5-.5-.9 0-.3.2-.5.5-.3z"/><path fill="#FFF" d="M501.8 171.3l6.7 3.9c.4.2.6.5.6 1 0 .3-.3.4-.6.2l-6.7-3.9c-.3-.2-.5-.5-.5-.9 0-.3.2-.5.5-.3z" opacity="0.6000000000000001"/><path fill="#FFF" d="M499 194.1l15.5 8.9c.3.2.5.5.5 1 0 .3-.2.4-.5.2l-15.4-8.9c-.3-.2-.6-.5-.6-.9 0-.3.3-.4.6-.3zM508 204.1l15.4 9c.3.1.5.5.5.9 0 .3-.2.4-.5.3l-15.4-9c-.3-.1-.5-.5-.6-.9 0-.3.2-.4.6-.3zM516.6 204.3l6.8 3.8c.3.2.5.6.5 1 0 .3-.2.4-.5.2l-6.7-3.8c-.3-.2-.6-.6-.6-1 0-.3.3-.4.5-.2z"/><path fill="#E6E6E6" d="M516.6 223.6l6.7 3.9c.4.2.6.5.6 1 0 .3-.3.4-.6.2l-6.6-3.9c-.4-.2-.6-.5-.6-1 0-.2.3-.4.5-.2z"/><path fill="#EA4345" d="M492.7 171l15.4 8.8c.3.2.6.6.6 1 0 .3-.3.4-.6.2l-15.4-8.9c-.3-.2-.5-.5-.5-1 0-.2.2-.3.5-.2z"/><path fill="#FFF" d="M492.7 171l15.4 8.8c.3.2.6.6.6 1 0 .3-.3.4-.6.2l-15.4-8.9c-.3-.2-.5-.5-.5-1 0-.2.2-.3.5-.2z" opacity="0.6000000000000001"/><path fill="#EA4345" d="M510.3 181.1l6.7 3.9c.3.2.5.5.5 1 0 .3-.2.4-.5.2l-6.7-3.9c-.3-.2-.5-.5-.6-.9 0-.4.3-.5.6-.3z"/><path fill="#FFF" d="M510.3 181.1l6.7 3.9c.3.2.5.5.5 1 0 .3-.2.4-.5.2l-6.7-3.9c-.3-.2-.5-.5-.6-.9 0-.4.3-.5.6-.3z" opacity="0.6000000000000001"/></g><g><path d="M405.5 237l9.4 5.5c3.3 1.7 7.3 1.5 10.4-.6l15.6-11.3c2.7-2 2.6-5-.4-6.8l-4.7-2.7a12.8 12.8 0 00-11-.4l-19.1 10.4c-3.1 1.6-3.2 4.2-.2 6z" opacity="0.15"/><path fill="#37474F" d="M441.1 225.6l-10.7 8.4-8 6.3a7 7 0 01-2.5.6c-1.3 0-2.6-.2-3.8-.8l-8.4-4.9a6 6 0 01-1.8-8.5l.3-.4c1.6-2.2 4-3.7 6.8-4.3l4.3-.8c6.9-1.4 12.5-2.1 13.2-1.7l10.6 6.2z"/><path fill="#EA4345" d="M435.1 230.3l.6-.4-9.5-5.5 8.3-2.6-.8-.5-8.3 2.6-5.7-3.3-1 .2 16.4 9.5z"/><path fill="#263238" d="M423.4 239.7l7.5-5.4 10.2-7.4v-1.2c-.9-.3-5.3 1-10.6 3.1l-3.6 1.4a11.2 11.2 0 00-7 10.5v.2a7 7 0 002.5-.6l1-.6z"/></g><g><path fill="#EA4345" d="M442 390.6c-10.3-10.7-16.4-54.3-6.3-62.7h51.5c10.1 8.4 4 52-6.3 62.7l-.3.3-.4.4-.9.8-.3.2a17.6 17.6 0 01-2 1.5c-8.6 5-22.4 5-31 0l-1.3-.9-.8-.6-.3-.2a12 12 0 01-1.5-1.5z"/><g opacity=".5"><path fill="#FFF" d="M442 390.6c-10.3-10.7-16.4-54.3-6.3-62.7h51.5c10.1 8.4 4 52-6.3 62.7l-.3.3-.4.4-.9.8-.3.2a17.6 17.6 0 01-2 1.5c-8.6 5-22.4 5-31 0l-1.3-.9-.8-.6-.3-.2a12 12 0 01-1.5-1.5z" opacity="0.5"/></g><path fill="#EA4345" d="M482.8 324.4c11.7 6.9 11.7 18 0 24.9a46.6 46.6 0 01-42.6 0c-11.8-6.9-11.8-18 0-24.9a46.6 46.6 0 0142.6 0z"/><g opacity=".7000000000000001"><path fill="#FFF" d="M482.8 324.4c11.7 6.9 11.7 18 0 24.9a46.6 46.6 0 01-42.6 0c-11.8-6.9-11.8-18 0-24.9a46.6 46.6 0 0142.6 0z" opacity="0.7000000000000001"/></g><path fill="#EA4345" d="M477.1 327.7c8.6 5 8.6 13.2 0 18.3-8.6 5-22.6 5-31.3 0-8.6-5-8.6-13.2 0-18.3 8.7-5 22.7-5 31.3 0z"/><g opacity=".30000000000000004"><path d="M477.1 327.7c8.6 5 8.6 13.2 0 18.3-8.6 5-22.6 5-31.3 0-8.6-5-8.6-13.2 0-18.3 8.7-5 22.7-5 31.3 0z" opacity="0.30000000000000004"/></g><path fill="#F5F5F5" d="M445.8 336.4c8.7-5 22.7-5 31.3 0 2 1.1 3.9 2.8 5.2 4.8-1.3 2-3.1 3.6-5.2 4.8-8.6 5-22.6 5-31.3 0-2-1.2-3.8-2.8-5.1-4.8 1.3-2 3-3.7 5.1-4.8z"/><path fill="#EA4345" d="M457.3 314.4c-.7-1.2-1.1-2.4-1.4-3.8-.5-3.1.2-6.7 2.8-8.6 1-.8 2.3-1.4 2.7-2.6.2-.6.2-1.3 0-2-.4-2.7-1.3-5.5-.6-8a9 9 0 015-5.4 27 27 0 017.3-2c1.3 0 2.6-.5 3.8-1 1.5-.8 2-2.3 2.8-3.5 1-1.4 2.2-2.7 3.6-3.8 2.6-2.3 5.8-4.3 9.5-4.1 7.6.3 7.3 6.9 5.2 11.8-2.2 5-2.8 6.5 2 11.7 4.7 5.1 4.7 11.5-1 15-5.6 3.5-9.3 4-7 10.9 2 6 3.2 11.3-2.4 17.8a18.5 18.5 0 01-15 7c-2.4-.2-4.9-.8-7.2-1.7-1.8-.8-.6-2.2-1.2-3.9l-3.7-10.9a81 81 0 00-3-8.6l-2.3-4.3z"/><g opacity=".25"><path d="M457.3 314.4c-.7-1.2-1.1-2.4-1.4-3.8-.5-3.1.2-6.7 2.8-8.6 1-.8 2.3-1.4 2.7-2.6.2-.6.2-1.3 0-2-.4-2.7-1.3-5.5-.6-8a9 9 0 015-5.4 27 27 0 017.3-2c1.3 0 2.6-.5 3.8-1 1.5-.8 2-2.3 2.8-3.5 1-1.4 2.2-2.7 3.6-3.8 2.6-2.3 5.8-4.3 9.5-4.1 7.6.3 7.3 6.9 5.2 11.8-2.2 5-2.8 6.5 2 11.7 4.7 5.1 4.7 11.5-1 15-5.6 3.5-9.3 4-7 10.9 2 6 3.2 11.3-2.4 17.8a18.5 18.5 0 01-15 7c-2.4-.2-4.9-.8-7.2-1.7-1.8-.8-.6-2.2-1.2-3.9l-3.7-10.9a81 81 0 00-3-8.6l-2.3-4.3z" opacity="0.25"/></g><path fill="#FFF" d="M467.6 342.1c.2 0 .3-.3.3-.5-.3-37.4 20.3-59.8 20.5-60 .3-.2.3-.6 0-.8a.6.6 0 00-.8 0A93 93 0 00467 342l.4.1h.2z"/><path fill="#FFF" d="M473.6 307.3a84.2 84.2 0 0118.9-7.5.6.6 0 00.1-1 83.5 83.5 0 00-19.8 7.8l.1.5c.1.2.4.3.7.2zM475.6 302.1c.3-.1.5-.4.3-.7a43.6 43.6 0 00-6.5-10.6l-.4.1c-.3.2-.3.6-.1.8a42.9 42.9 0 016.3 10.4h.4z"/><path fill="#EA4345" d="M462.3 346.1c-5.3 1.7-11 1.9-16.4.6-9.5-2-15.2-10.8-15.2-10.8s10.2-4.1 16.1-4.5c-6-.9-12-.8-17.8.4 0 0-5.5-2-4.5-11.3 0 0 5.2-3.7 17-2.3 0 0-5.9-4.2-16.3-5.4-.8 0 .3-12 1.3-17.4 1-5.3 3-4.5 7.2-4 4.2.4 16.8 3.3 18.4 6.4 1.6 3 0 10.9 0 10.9a18 18 0 003.5-10.3s4.7 1.7 7.3 4c1.9 1.5 3.4 3.5 4.5 5.7a34.4 34.4 0 01-5.4 14.2s6.3-4 7.7-11.5a26 26 0 015 14.7 22.3 22.3 0 01-12.4 20.6z"/><path d="M462.3 346.1c-5.3 1.7-11 1.9-16.4.6-9.5-2-15.2-10.8-15.2-10.8s10.2-4.1 16.1-4.5c-6-.9-12-.8-17.8.4 0 0-5.5-2-4.5-11.3 0 0 5.2-3.7 17-2.3 0 0-5.9-4.2-16.3-5.4-.8 0 .3-12 1.3-17.4 1-5.3 3-4.5 7.2-4 4.2.4 16.8 3.3 18.4 6.4 1.6 3 0 10.9 0 10.9a18 18 0 003.5-10.3s4.7 1.7 7.3 4c1.9 1.5 3.4 3.5 4.5 5.7a34.4 34.4 0 01-5.4 14.2s6.3-4 7.7-11.5a26 26 0 015 14.7 22.3 22.3 0 01-12.4 20.6z" opacity="0.1"/><path fill="#FFF" d="M463.5 345.3a.5.5 0 01-.3-.4c-1.4-18-21.4-45.8-30.2-51.4a.6.6 0 01-.2-.7c.2-.3.5-.4.7-.2 9 5.7 29.3 34 30.8 52.2a.5.5 0 01-.5.5h-.3z"/></g><g><path fill="#FFA8A7" d="M282.9 334.1l-3.3-11.8s1.1 1 7.8-.7a38 38 0 007.3-3l1.9 8.4c1.8 3.3 7.7 1.8 14.2 1 1 0 2.2-.3 3.3-.5 3.6-.1 7 2 3.5 5-3.7 3-9.7 4-15.2 5-6.7 1.3-18.3 3.3-19.5-3.4z"/><path fill="#263238" d="M329.4 333.1c.4 1.1.6 2.4.5 3.6-.2 1.3-3.4 5.7-9 8.3-5.7 2.7-12.7 2.9-16 3.8-3.2 1-6.2 2.9-10 3.8-3.9 1-7.7 1.4-11.6-1.1-.7-1.1-1.4-3.6-1.2-3.9.7-.6 47.3-14.5 47.3-14.5z"/><path fill="#EA4345" d="M297.6 328.2c2.5 1.7 7.6.5 13.2-.1 5.2-.6 11.1-2.4 14.7-1.2 3.5 1.2 6.5 5.4 1.7 10.8a20.9 20.9 0 01-6.7 5.1c-6 2.2-11.3 2.3-15.2 3.3-5 1.2-7.7 3.4-12.3 4-6 .7-9.8-.9-10.9-2.5-1-1.6-2-14.5.6-14.2 0 0 1.1 4.2 10.9.1 4.3-1.8 4.2-4.4 4-5.3z"/><path d="M297.6 328.2c2.5 1.7 7.6.5 13.2-.1 5.2-.6 11.1-2.4 14.7-1.2 3.5 1.2 6.5 5.4 1.7 10.8a20.9 20.9 0 01-6.7 5.1c-6 2.2-11.3 2.3-15.2 3.3-5 1.2-7.7 3.4-12.3 4-6 .7-9.8-.9-10.9-2.5-1-1.6-2-14.5.6-14.2 0 0 1.1 4.2 10.9.1 4.3-1.8 4.2-4.4 4-5.3z" opacity="0.4"/><path fill="#FAFAFA" d="M314.2 335.1s-.5-5.4-4.6-6.9c-.7-.3-1.6-.2-2.2.3 0 0 3.8.6 5 7 0 0 .2.4 1 .2.3 0 .9-.1.8-.6zM304 329s0-.2 1-.4c.3-.1.7 0 1 .1 0 0 3 1.3 3.6 7 0 0 0 .7-1 .9a.8.8 0 01-1-.6s-.6-6-3.6-7zM300.8 329s.1-.3.8-.3c1 0 1.1.4 1.1.4s2.2 2.2 2.2 7c0 0 0 .7-1 .8-1 0-1-.8-1-.8s-.4-6-2.1-7z"/><path fill="#37474F" d="M278.7 255.3c5 14.8 18 65.5 18 65.5s-8.5 7.6-17.7 4.1L257 261.8l21.6-6.5z"/><path fill="#FFA8A7" d="M316.5 350.5c-1-1.5-4.8-11.8-4.8-11.8s4 2.3 10.7.7c3.5-.9 6.7-4.6 6.7-4.6l2.8 10c1.7 3.2 7.3 2.2 13.8 1.6l3.3-.4c3.6-.1 7 2 3.3 5-3.7 2.9-9.7 3.8-15.3 4.7-6.6 1-16.7.4-20.5-5.2z"/><path fill="#263238" d="M367 350.2c.4 1.2.6 2.6.4 3.9-.2 1.3-3.8 6-9.9 8.7-6.1 2.7-13.6 2.7-17.1 3.6-3.6 1-6.8 2.9-11 3.8-4.1 1-8.3 1.3-12.3-1.5-.8-1.2-1.5-4-1.3-4.2.7-.7 51.1-14.3 51.1-14.3z"/><path fill="#EA4345" d="M333 344l1.2.8 1.4.2c1 .2 2.2.2 3.3.1 2.7-.1 5.4-.5 8.2-.8 5.6-.5 12-2.3 15.8-.9 3.8 1.4 7.2 6 2 11.6a26 26 0 01-7.2 5.4c-6.3 2.7-12.8 2.2-17 3-5.4 1.3-8.4 3.6-13.4 4-6.4.6-10.4-1.1-11.5-2.9-.6-1 0-6-.8-10-.6-3.3-.5-5.6.8-5.5.2.5.5.9.9 1.2.4.5.9.9 1.4 1.2l2.4.8c1.5.4 3 .6 4.5.6.5 0 .9-.1 1.3-.4.3-.4.6-1 .7-1.5l.3-1.5c0-.3.1-.5.3-.8.1-.2.4-.5.7-.6 1-.4 1.8-1 2.5-1.9.4-.7.6-1.5.7-2.3l.1-.4c.2-.1.5 0 .7.2l.7.4z"/><path d="M333 344l1.2.8 1.4.2c1 .2 2.2.2 3.3.1 2.7-.1 5.4-.5 8.2-.8 5.6-.5 12-2.3 15.8-.9 3.8 1.4 7.2 6 2 11.6a26 26 0 01-7.2 5.4c-6.3 2.7-12.8 2.2-17 3-5.4 1.3-8.4 3.6-13.4 4-6.4.6-10.4-1.1-11.5-2.9-.6-1 0-6-.8-10-.6-3.3-.5-5.6.8-5.5.2.5.5.9.9 1.2.4.5.9.9 1.4 1.2l2.4.8c1.5.4 3 .6 4.5.6.5 0 .9-.1 1.3-.4.3-.4.6-1 .7-1.5l.3-1.5c0-.3.1-.5.3-.8.1-.2.4-.5.7-.6 1-.4 1.8-1 2.5-1.9.4-.7.6-1.5.7-2.3l.1-.4c.2-.1.5 0 .7.2l.7.4z" opacity="0.4"/><path fill="#FAFAFA" d="M350.6 352s-.5-6-4.8-7.6c-.7-.3-1.7-.2-2.4.3 0 0 4 .7 5.2 7.6 0 0 .2.4 1 .3.3 0 1-.2 1-.6zM339.8 345l1-.3c.3 0 .8 0 1.1.2 0 0 3.2 1.4 3.7 7.6 0 0 0 .7-1 .9a.9.9 0 01-1.2-.7s-.5-6.4-3.6-7.6zM336.3 345.1s.2-.3 1-.3c.9 0 1.1.4 1.1.4s2.2 2.4 2.1 7.5c0 0 .1.9-1 1-1.3 0-1-1-1-1s-.4-6.5-2.2-7.6z"/><path fill="#455A64" d="M313.2 272.7c3.9 11.9 13.7 45.7 18.2 63 0 0-8 7.3-18.5 6.7l-25-65.1 10-6.2 15.3 1.6zM230.6 435.1c.9 0 1.6-.7 1.6-1.6V328.9a1.6 1.6 0 00-3.2 0v104.6c0 1 .7 1.6 1.6 1.6zM165.9 397.1c.7 0 1.2-.4 1.5-1l32-81.2a1.6 1.6 0 10-3-1.1l-32 81c-.4.9 0 1.8.9 2.2l.6.1z"/><path fill="#455A64" d="M169.7 387.3c.5 0 1-.2 1.2-.5l59.7-63.1 59.6 62.9a1.6 1.6 0 002.3-2.3l-60.7-64.1c-.3-.3-.8-.5-1.2-.5-.4 0-.9.2-1.2.5l-60.8 64.4a1.6 1.6 0 001.1 2.7z"/><path fill="#455A64" d="M295.3 397.1l.6-.1c.8-.3 1.2-1.3 1-2.1l-32.1-81.2a1.6 1.6 0 10-3 1.2l32 81.2c.3.6.9 1 1.5 1z"/><path fill="#EA4345" d="M296 293c1.3-6.5-4-11.6-14.1-18.4-9.4-6.1-19-11.6-29.2-16.4-8.4-3.8-17-3.5-27.8 2-15 7.7-60 35-60 35s67.4 38 80.3 36.3c13-1.7 45.3-22.7 47.9-30.1 2.6-7.5 3-8.3 3-8.3z"/><g opacity=".4"><path d="M296 293c1.3-6.5-4-11.6-14.1-18.4-9.4-6.1-19-11.6-29.2-16.4-8.4-3.8-17-3.5-27.8 2-15 7.7-60 35-60 35s67.4 38 80.3 36.3c13-1.7 45.3-22.7 47.9-30.1 2.6-7.5 3-8.3 3-8.3z" opacity="0.4"/></g><path fill="#EA4345" d="M238.7 323.6c9.7 8.7 19.8 1.2 35.8-9.2 18-11.7 21.6-21.3 21.6-21.3s0 7.2-1.4 10.5c-1.3 3.4-4.2 7.2-17.3 16.2-13 9-22.5 13.5-31.2 15.2l-7-1"/><path d="M274.5 314.4c18-11.7 21.6-21.3 21.6-21.3s0 7.2-1.4 10.5c-1.3 3.4-4.2 7.2-17.3 16.2-13 9-22.5 13.5-31.2 15.2l-7-1-.5-10.4c9.7 8.7 19.8 1.2 35.8-9.2z" opacity="0.5"/><path fill="#EA4345" d="M168.4 384.3l-5 11.5a1.5 1.5 0 000 .5c0 .3.2.6.5.7a3 3 0 002.7.2c.3-.1.5-.3.6-.6v-.1l4.6-10.7-3.4-1.5zM293.1 384.8l4.3 11.2v.5c-.1.3-.4.6-.7.7-.8.4-1.7.4-2.6 0l-.5-.5v-.2l-3.9-10.5 3.4-1.2zM228.7 425.4v9.3c0 .3.3.6.6.7.8.5 1.8.5 2.6 0 .3-.1.5-.4.6-.7v-9.3a4 4 0 00-3.8 0z"/><path fill="#37474F" d="M192 253.8c3.7 4.5 38.6-5.5 48-6.8 14.8-2 27-3.5 32-2 5.1 1.7 7.2 4.3 8.8 10.3l2.7 10.8s-24.7 9.5-44.3 11.8c-19.5 2.3-47.3-24-47.3-24z"/><path fill="#455A64" d="M185.4 260.4c-3.9 14.7-7.4 31.9 1.6 41.3 6 6.3 36.3 22.7 55.8 16.2 19.3-6.3 59.1-36 63.1-39 4-2.8 7.7-5 7.3-6.2-5.4-17.8-13.3-19.2-27.8-16-17.8 4-57 19.9-57 19.9l-43-16.2z"/><path fill="#FFA8A7" d="M273.9 165.6l-13.4 15.2-21.8-10.3 15.2-21 20 16.1z"/><path fill="#F28F8F" d="M290.6 136.8s5.5 8 4.9 8.7l-4.5 1.6-.4-10.3z"/><path fill="#263238" d="M290.5 142a6.6 6.6 0 110-13.1 6.6 6.6 0 010 13.1zm0-12a5.4 5.4 0 105.4 5.5c0-3-2.4-5.4-5.4-5.4z"/><path fill="#FFA8A7" d="M275.3 114.8c10.8 2 14 6.7 15.4 23.8 1.5 17.8-.2 23.4-2.5 25.9-1.6 1.7-10.3 2.2-14.8 1-5.6-1.4-18.3-5.6-24.3-14.4-7.2-10.4-9.3-24.7-2-30.8 10.2-8.4 23.8-6.3 28.2-5.5z"/><path fill="#F28F8F" d="M273.9 165.6c4.6 1 11.7.5 13.8-.7a16 16 0 01-7.8-.3c-2.5-.7-5-1.8-7.2-3.2l1.2 4.2z"/><path fill="#263238" d="M292.7 121.8c-3 2-6.7 3-10.3 3.5.3 2.9-.6 5.8-1.5 8.5-.6 2-2.9 8-5.3 4.6-1.8-2.3-3.4-4.5-6.8-4-5.6 1-6.2 8.2-2.6 12.4 3.7 4.3 7 2.5 7 2.5s.4 7.7-3.6 13.2c0 0-6 3.7-14.6.9a35.3 35.3 0 01-16-13.8c-7.8-14.5-7.8-28.5 1.7-32.7.9-7 6.3-10.2 12.5-11.8 8.6-2.2 17.5 3.2 25.8-.4 1.7-.7 3.3-1.8 5.1-2.4 1-.5 2.1-.5 3.1 0 .7.6 1.2 1.4 1.3 2.3.6 1.7.5 3.5-.3 5a15 15 0 014-1.4c1.3-.3 2.7 0 3.9.9a5 5 0 011.5 3.4c.3 3.7-1.9 7.2-4.9 9.3z"/><path fill="#263238" d="M240.6 119.2l-6.6-3.6a3.7 3.7 0 116.6 3.6zM275.3 138l21-3.8.1 1-20.9 3.9z"/><path fill="#FFA8A7" d="M319.2 174.5c-.5-1-1.8-1.1-2.8-1.5-2-.6-3.4-2.2-5.3-3-2.1-.8-4.4-1-6.7-.4l-2.2.7a28 28 0 00-4 2c-5.3 3.1-9.3 10.2-14.5 13.5l-5.5 3.4 12.5 11c2-1.6 4-3.2 6.1-4.6 3-1.9 6.2-2 9.6-2.4 2.4-.4 4.7-1 7-1.8a3 3 0 002-1.3 2 2 0 00-1.3-2.6 18 18 0 00-3.6-.5c-.9-.1-3.3.4-3.8-.5-.3-.5 0-1 .4-1.5 2.1-2.7 4.9-5.5 8.3-6.3 1.1-.2 2.1-.6 3-1.3 1-.6 1.3-1.8.8-2.9z"/><path fill="#EA4345" d="M244.8 162.1c-13.2-7.2-25.2-2.6-29.5 6.7-4 8.4-12.2 40.9-12.2 40.9 4 7.4 41.7-47.6 41.7-47.6z"/><path fill="#EA4345" d="M242.9 164.7l2-2.6c-15-7-28.3 2.2-40 20.5-12.7 19.8-19.4 48-19.4 78 0 0 2.5 13.4 19.5 20 18 7.2 43 4.2 50.9-14.5 0 0 .2-18.6 5.8-27.8 3.7-6 12.2-19.1 18.6-28.6 5.5-8.2 9.8-27-1.7-33.8-3-1.8-6.2-3.4-9.4-4.8-10.6 3.5-27.7-2.2-26.3-6.4z"/><path fill="#FFF" d="M242.9 164.8l2-2.7c-15-7-28.3 2.2-40 20.5-12.7 19.8-19.4 48-19.5 78 0 0 2.6 13.4 19.5 20 18 7.2 43.2 4.2 51-14.5 0 0 .1-18.6 5.8-27.8 3.7-6 12.2-19.1 18.6-28.6 5.5-8.2 9.8-27-1.7-33.8-3-1.8-6.2-3.4-9.5-4.8-10.5 3.5-27.6-2.1-26.2-6.3z" opacity="0.75"/><path fill="#EA4345" d="M285 197.8c.9-3.6 1-7.3.5-10.9a58 58 0 01-11.2 17.2c-6.1 6.4-13.6 11.4-19.2 18.2-6 7.2-10.3 15.8-15.3 23.7-2 3.1-4.7 9.2-8.4 9.5-4.6.2-9-5.3-11.4-9.1-4-6-7.3-13.7-12.2-19-4.3-4.7-11-10.7-16.8-8a140.7 140.7 0 00-2.3 9.6v.2a199.8 199.8 0 00-1 5.1l-.7 4.9c-1 7-1.5 14.2-1.5 21.4 0 0 2.5 13.4 19.5 20.1 18 7.2 43.1 4.1 51-14.5 0 0 0-18.7 5.8-27.8l2-3.3v-.2l2.2-3.3.1-.2v-.1l5.3-8.2.9-1.4 5.4-8.2 1.8-2.6.7-1.1.6-1 .2-.2.4-.8.2-.3.4-.9.1-.2.6-1.2v-.1l.4-1.2.1-.3.5-1v-.2l.6-2.2.6-2.2v-.1l.2-.1z" opacity="0.1"/><path fill="#FFA8A7" d="M354.3 216l-3.1 3.1c-4.6 4.2-10 6.1-16.1 10.2l-19.3 12c-6.6 4-13.6 7.3-21 9.7-6 1.8-9.4 1.8-13-7.8-1.7-4.8-3.1-9.7-4.6-14.5l-6.7-21.6c-3.2-10.8-8-19.8 10-29.8 7.9 4.5 10.8 6.3 13.3 15.7 3 11.2 7.7 33.4 7.7 33.4 6.4-2.3 12.6-5 18.6-8 2.3-1 5-1.9 6.7-4 1-1.3 2-2.8 2.9-4.4l2.1-4.2c1.7-2.4 3.7-4.5 6-6.5.3-.4.8-.7 1.4-.8.6 0 1.1.3 1.4.9.7 1.1 0 2.2-.3 3.4l-1.1 4a35.3 35.3 0 0012.4-11.8c.3-.4.8-.5 1.3-.5 1.2.1 2.4 2 2.4 3.2l.1 3.4c.3 1 1 1.9 1.3 2.9a11.1 11.1 0 01-1.1 10l-1.3 2z"/><path fill="#EA4345" d="M279.4 176.5c6.9 2.7 11.8 5.9 15 16.3 3 10.5 6.5 27.3 6.5 27.3s0 3.5-8.3 8.4c-4.8 3-10.7 3.7-16 2.2l-6.4-20.2s-11.1-27 9.3-34zM239.3 334c-5.6-.2-9.9-4.3-23-9.7-24.1-10.1-42.2-18.2-49.1-30.8-7-12.7-11.8-49.2-10-65 0-1.8.5-3.6 1-5.3l-1.6-.2 4.4-3.8c4.5-3.6 11.8-.4 17.4 2.7 15.8 8.6 28.2 17 38 47.1 7.3 22.7 12.2 43.5 22.3 54.5"/><path d="M158.3 223.2l-1.7-.2 4.4-3.8c4.5-3.6 11.8-.4 17.4 2.7 15.8 8.6 28.2 17 38 47.1 7.3 22.7 12.2 43.5 22.3 54.5l.6 10.5c-5.5-.3-9.8-4.3-23-9.7-24.1-10.1-42.2-18.2-49.1-30.8-7-12.7-11.8-49.2-10-65 0-1.8.5-3.6 1-5.3z" opacity="0.30000000000000004"/><path fill="#EA4345" d="M173.8 225.8c15.8 8.6 28.2 17 38 47.1 9.8 30.2 15.1 57 34.4 62 0 0-8.7 3.6-35.4-7.7-8.5-3.6-18.8-10.2-25.6-14-13.3-7.4-21.3-13.5-22.6-15.8-7-12.6-11.8-49.2-10-65 1.7-15.8 13.3-11 21.2-6.6z"/></g><g><path fill="#EA4345" d="M262.7 91.8l-4.3-8.2 3.5-10.1v-6.3L251 73.5v6.2l4.7 8s.1.2.3.2l6.6 4z"/><path d="M262.7 91.8l-4.3-8.2 3.5-10.1v-6.3L251 73.5v6.2l4.7 8s.1.2.3.2l6.6 4z" opacity="0.2"/><path fill="#EA4345" d="M288.4 17.9a7.1 7.1 0 00-3.3-5.6l-2.6-1.5c-2-1-4.4-1-6.4 0L235.8 34a7.1 7.1 0 00-3.2 5.6V84a7.1 7.1 0 003.2 5.5l2.6 1.6c2 1 4.5 1 6.5 0l13-7.5 4.6 8a.7.7 0 001.2-.1l4.9-14.1 16.6-9.6c1.9-1.3 3-3.3 3.2-5.6V17.9z"/><path d="M232.6 84a7.1 7.1 0 003.2 5.5l2.6 1.6c1.9.9 4 1 6 .2-1.6.6-2.7-.3-2.7-2.1V44.9c0-1.1.3-2.2 1-3.2l-9.2-5.2c-.5 1-.9 2-.9 3.2V84z" opacity="0.2"/><path fill="#FFF" d="M288.3 17c-.4-1.4-1.6-1.8-3.1-1l-40.3 23.3c-1 .6-1.7 1.4-2.3 2.4l-9-5.2c.5-1 1.3-1.8 2.2-2.4l40.3-23.3c2-1 4.4-1 6.4 0l2.7 1.5a7 7 0 013 4.7z" opacity="0.5"/><g fill="#FFF"><path d="M247.6 62.3c0-.3 0-.6.2-1l.4-.8 8.8-14.1.1-.2h.1c.1-.2.3-.2.4 0V52c.1.4 0 .8-.2 1.1a7 7 0 01-.4.8l-4.5 6.9 4.5 2 .4.3c.2 0 .3.4.3.8v3.9l-.1.6-.4.4h-.2l-8.8-4-.4-.4c-.2-.2-.2-.4-.2-.7v-1.4zM266.7 40.4l.3-.9.6-.6 3-1.8h.3l.2.5v.3l-7.4 31.5-.3.9-.7.7-2.9 1.7h-.3a.6.6 0 01-.1-.5V72l7.3-31.5zM282.8 45.5c0 .3 0 .6-.2 1l-.5.8-8.7 14.2-.2.1v.1h-.4a.5.5 0 01-.1-.4v-5.5c0-.4 0-.8.2-1.1l.5-.8 3.8-5.9-3.8-1.4c-.2 0-.3-.2-.5-.3l-.2-.8V40l.1-.6.3-.3H273.4l8.7 4c.5 0 .7.5.7 1v1.4z"/></g></g><g><path fill="#263238" d="M165.9 12.3l-54 31a3 3 0 00-1.3 2.4v30a3 3 0 001.4 2.4l5.3 3a3 3 0 002.7 0l53.9-31a3 3 0 001.3-2.3V17.6c0-.9-.5-1.8-1.3-2.3l-5.3-3a3 3 0 00-2.7 0z"/><path fill="#455A64" d="M175.2 17.4c-.1-.7-.7-1-1.3-.5l-54 31-.9 1-8-4.6 1-1 53.8-31a3 3 0 012.7 0l5.3 3a3 3 0 011.4 2.1z"/><path fill="#37474F" d="M173.9 16.9l-54 31a3 3 0 00-1.3 2.3v30.1c0 .9.7 1.2 1.4.8l53.9-31a3 3 0 001.3-2.3V17.6c0-.8-.6-1.2-1.3-.7z"/><path fill="#F0F0F0" d="M132 55.6v4.6l.1 1 .4.7c.2.2.4.3.7.3.3 0 .7-.1 1-.3l1-.8c.4-.5.8-1.1 1-1.8l.1-.8.2-.7.4-.4 2.2-1.3h.3l.1.4c0 1-.2 1.9-.4 2.8a12.7 12.7 0 01-5 6.8c-.6.4-1.4.7-2.2.7-.6 0-1.2-.2-1.6-.6-.5-.4-1-1-1.1-1.6-.3-.9-.4-1.7-.4-2.6v-2.3-2.4a13.8 13.8 0 013.1-8.4c.6-.7 1.4-1.4 2.2-1.8.7-.4 1.4-.7 2.1-.7.6 0 1.2 0 1.7.4.6.3 1 .8 1.2 1.4.3.7.4 1.5.4 2.3l-.1.5-.3.3-2.2 1.3c-.2 0-.4.1-.4 0l-.2-.4-.2-.6a1 1 0 00-.4-.5 1 1 0 00-.6-.1c-.4 0-.7.1-1 .3l-1 .8a4.8 4.8 0 00-1 2.3l-.1 1.2zM146.6 39.9c.6-.4 1.3-.7 2-.7.6 0 1.1 0 1.6.3s.8.7 1 1.1c.3.5.4 1 .5 1.5l-.1.5-.3.3-2.3 1.3-.3.1-.3-.1-.2-.2-.3-.2h-.5a2 2 0 00-.8.3l-.6.4-.6.6-.3.6-.2.7c0 .2 0 .5.2.6l.5.2c.4 0 .7 0 1-.2l1.6-.4 1.7-.2c.4 0 .8.2 1.2.5l.7 1.1.2 2a9 9 0 01-.4 2.7 11.3 11.3 0 01-2.8 4.5c-.6.7-1.3 1.2-2.1 1.7-.7.4-1.4.6-2.1.7-.6.1-1.2 0-1.7-.3-.5-.2-.9-.6-1-1.1-.4-.5-.5-1.1-.5-1.7V56l.3-.3 2.3-1.3.4-.2.2.2.3.2.3.3h.6c.3 0 .6 0 .9-.3l1.5-1.1c.4-.4.6-1 .6-1.5 0-.2 0-.4-.2-.5-.2-.1-.5-.2-.7-.1-.4 0-.8 0-1.1.2l-1.7.4c-.8.4-1.9.2-2.6-.4-.6-1-.9-2-.8-3.2a9.2 9.2 0 011.4-4.8 10.4 10.4 0 013.5-3.7zM159 32.7c.7-.4 1.4-.7 2-.7a3 3 0 011.7.3l1 1.1.4 1.6c0 .1 0 .3-.2.4 0 .2 0 .3-.2.4l-2.3 1.3h-.6l-.2-.2-.3-.2a1 1 0 00-.6 0 2 2 0 00-.7.3 5.5 5.5 0 00-1.2.9l-.3.6-.2.8c0 .2 0 .4.2.5.1.2.3.2.5.2l1-.1 1.6-.4 1.8-.3c.4 0 .8.2 1.2.4l.7 1.2.2 2a10.4 10.4 0 01-3.2 7.2c-.6.7-1.4 1.2-2.1 1.7-.7.4-1.4.6-2.2.7a3 3 0 01-1.6-.3c-.5-.2-.9-.6-1.1-1.1-.3-.5-.4-1.1-.4-1.8v-.4l.3-.3 2.3-1.3.4-.2.2.1.2.3.4.2c.2.1.4.2.6.1l.9-.3 1.5-1.2c.4-.3.6-.9.6-1.4 0-.2 0-.4-.2-.5-.2-.1-.5-.2-.7-.1-.4 0-.8 0-1.1.2l-1.7.4c-.9.4-1.9.2-2.6-.4-.6-1-.9-2.1-.8-3.2a9.2 9.2 0 011.3-4.8c.5-.8 1-1.5 1.6-2.1.6-.7 1.2-1.2 2-1.6z"/><g><path fill="#263238" d="M165.9 74.8l-54 31a3 3 0 00-1.3 2.4v30a3 3 0 001.4 2.3l5.3 3a3 3 0 002.7 0l53.9-31a3 3 0 001.3-2.3v-30a3 3 0 00-1.3-2.4l-5.3-3a3 3 0 00-2.7 0z"/><path fill="#455A64" d="M175.2 80c-.1-.8-.7-1-1.3-.6l-54 31-.9 1-8-4.6 1-1 53.8-31a3 3 0 012.7 0l5.3 3a3 3 0 011.4 2.1z"/><path fill="#37474F" d="M173.9 79.4l-54 31a3 3 0 00-1.3 2.3v30.1c0 .9.7 1.2 1.4.8l53.9-31a3 3 0 001.3-2.3V80c0-.8-.6-1.1-1.3-.7z"/><path fill="#F0F0F0" d="M132.2 111c.1-.1.3-.1.4 0 0 0 .1.2 0 .4V129l-.4.4-2.2 1.3h-.4a.6.6 0 01-.1-.5V124l-3.8 2.2v6.4c0 .2 0 .4-.2.6 0 .2-.1.3-.3.4l-2.2 1.3c-.1.1-.3.1-.4 0a.6.6 0 01-.1-.4v-17.1l.1-.6.4-.4 2.2-1.3h.3l.2.4v6.4l3.8-2.2v-6.4l.1-.6.4-.4 2.2-1.3zM144.8 103.7h.3l.2.4v2.8c0 .2 0 .4-.2.6 0 .2-.2.3-.3.4l-3 1.7v13.6l-.1.6-.4.4-2.2 1.3h-.3a.6.6 0 01-.2-.4v-13.6l-3 1.8h-.3a.6.6 0 01-.1-.5V110v-.6l.4-.4 9.2-5.3zM152.7 113l-.2-.3-1.6-3.5v8.8c0 .2 0 .4-.2.6 0 .2-.2.3-.3.4l-2.3 1.3h-.3a.6.6 0 01-.1-.4v-17.2l.1-.5c0-.2.2-.4.3-.4l2-1.2h.6l.2.3 2.8 5.7 2.8-9c0-.1 0-.3.2-.5 0-.2.3-.4.5-.6l2-1.1h.3l.2.4V113l-.2.6c0 .2-.2.3-.3.4l-2.3 1.3h-.3a.5.5 0 01-.1-.4V106l-1.7 5.3c0 .2 0 .4-.2.6 0 .2-.2.4-.4.5l-1 .6h-.5zM171.4 102.7h.3c.1 0 .2.2.1.4v2.8l-.1.6-.3.4-8 4.6h-.4a.6.6 0 01-.1-.5V94l.1-.6c.1-.2.2-.4.4-.4l2.2-1.3h.3l.2.4v13.6l5.3-3z"/></g><g><path fill="#263238" d="M165.9 137.4l-54 31a3 3 0 00-1.3 2.3v30c0 1 .6 1.9 1.4 2.4l5.3 3a3 3 0 002.7 0l53.9-31a3 3 0 001.3-2.4v-30a3 3 0 00-1.3-2.3l-5.3-3a3 3 0 00-2.7 0z"/><path fill="#455A64" d="M175.2 142.4c-.1-.6-.7-.9-1.3-.5l-54 31-.9 1-8-4.6c.3-.4.6-.8 1-1l53.8-31a3 3 0 012.7 0l5.3 3a3 3 0 011.4 2.1z"/><path fill="#37474F" d="M173.9 141.9l-54 31a3 3 0 00-1.3 2.3v30c0 1 .7 1.3 1.4.9l53.9-31a3 3 0 001.3-2.4v-30c0-.9-.6-1.2-1.3-.8z"/></g><path fill="#F0F0F0" d="M150.6 163.8c.6-.4 1.3-.6 2-.7.6 0 1.1.1 1.6.4.5.2.8.6 1 1 .3.5.4 1 .5 1.6l-.1.5-.3.3-2.3 1.3h-.6l-.2-.2-.3-.2h-.5a2 2 0 00-.8.3c-.2 0-.4.2-.6.4l-.6.5-.3.6-.2.8c0 .2 0 .4.2.6.1 0 .3.2.5.1l1-.1 1.6-.4c.6-.2 1.1-.3 1.7-.2.4 0 .8.1 1.2.4.3.3.5.7.7 1.2l.2 2a9 9 0 01-.4 2.6 11.3 11.3 0 01-2.8 4.6c-.6.6-1.3 1.2-2.1 1.6-.7.4-1.4.7-2.1.8-.6 0-1.2 0-1.7-.3s-.9-.7-1-1.2c-.4-.5-.5-1-.5-1.7v-.5l.3-.3 2.3-1.3.4-.1.2.1.3.2.3.3.6.1.9-.3 1.5-1.2c.4-.4.6-.9.6-1.4 0-.3 0-.5-.2-.6h-.7l-1.1.1-1.7.5c-.8.3-1.9.1-2.6-.5-.6-1-.9-2-.8-3.2a9.2 9.2 0 011.4-4.7 10.4 10.4 0 013.5-3.8zM135.8 193q-1.1.4-2 .5v-3.1l.6-.1.8-.3q1-.3 1.4-1 .5-.9.5-2.3v-13.9l4-1.5V185q0 3-1.3 5-1.3 2.1-4 3z"/></g></g></svg>